<svg width="24" height="24" viewBox="0 0 24 24" fill="none" xmlns="http://www.w3.org/2000/svg">
<g id="time 1">
<g id="Booking">
<path id="Vector" d="M12 18.8018H3.90751C2.95201 18.8018 2.17501 18.0248 2.17501 17.0693V6.01501C2.17501 5.05951 2.95201 4.28251 3.90751 4.28251H5.53651V4.69051C5.53651 5.06326 5.83876 5.36551 6.21151 5.36551C6.58426 5.36551 6.88651 5.06326 6.88651 4.69051V4.28251H14.9595V4.69051C14.9595 5.06326 15.2618 5.36551 15.6345 5.36551C16.0073 5.36551 16.3095 5.06326 16.3095 4.69051V4.28251H17.9325C18.8873 4.28251 19.665 5.05951 19.665 6.01501V10.8375C19.665 11.2103 19.9673 11.5125 20.34 11.5125C20.7128 11.5125 21.015 11.2103 21.015 10.8375V6.01501C21.015 4.31551 19.632 2.93251 17.9325 2.93251H16.3095V2.58751C16.3095 2.21476 16.0073 1.91251 15.6345 1.91251C15.2618 1.91251 14.9595 2.21476 14.9595 2.58751V2.93251H6.88651V2.58751C6.88651 2.21476 6.58426 1.91251 6.21151 1.91251C5.83876 1.91251 5.53651 2.21476 5.53651 2.58751V2.93251H3.90751C2.20801 2.93251 0.825012 4.31551 0.825012 6.01501V17.07C0.825012 18.7703 2.20801 20.1525 3.90751 20.1525H12C12.3728 20.1525 12.675 19.8503 12.675 19.4775C12.675 19.1048 12.3728 18.8018 12 18.8018Z" fill="white"/>
<path id="Vector_2" d="M6.07051 9.18301C5.64001 9.18301 5.29126 9.53176 5.29126 9.96226C5.29126 10.3928 5.64001 10.7415 6.07051 10.7415C6.50101 10.7415 6.84976 10.3928 6.84976 9.96226C6.84976 9.53176 6.50101 9.18301 6.07051 9.18301Z" fill="white"/>
<path id="Vector_3" d="M10.9223 9.18301C10.4918 9.18301 10.143 9.53176 10.143 9.96226C10.143 10.3928 10.4918 10.7415 10.9223 10.7415C11.3528 10.7415 11.7015 10.3928 11.7015 9.96226C11.7015 9.53176 11.352 9.18301 10.9223 9.18301Z" fill="white"/>
<path id="Vector_4" d="M14.994 9.96226C14.994 10.3928 15.3428 10.7415 15.7733 10.7415C16.2038 10.7415 16.5525 10.3928 16.5525 9.96226C16.5525 9.53176 16.2038 9.18301 15.7733 9.18301C15.3428 9.18301 14.994 9.53176 14.994 9.96226Z" fill="white"/>
<path id="Vector_5" d="M6.07051 13.4288C5.64001 13.4288 5.29126 13.7775 5.29126 14.208C5.29126 14.6385 5.64001 14.9873 6.07051 14.9873C6.50101 14.9873 6.84976 14.6385 6.84976 14.208C6.84976 13.7775 6.50101 13.4288 6.07051 13.4288Z" fill="white"/>
<path id="Vector_6" d="M10.9223 13.4288C10.4918 13.4288 10.143 13.7775 10.143 14.208C10.143 14.6385 10.4918 14.9873 10.9223 14.9873C11.3528 14.9873 11.7015 14.6385 11.7015 14.208C11.7015 13.7775 11.352 13.4288 10.9223 13.4288Z" fill="white"/>
<path id="Vector_7" d="M18.3803 12.4987C15.7365 12.4987 13.5848 14.6497 13.5848 17.2935C13.5848 19.9365 15.7358 22.0882 18.3803 22.0882C21.0248 22.0882 23.1758 19.9372 23.1758 17.2935C23.175 14.649 21.024 12.4987 18.3803 12.4987ZM18.3803 20.7367C16.4813 20.7367 14.9355 19.1917 14.9355 17.2927C14.9355 15.3937 16.4813 13.848 18.3803 13.848C20.2793 13.848 21.825 15.3937 21.825 17.2927C21.825 19.1917 20.2793 20.7367 18.3803 20.7367Z" fill="white"/>
<path id="Vector_8" d="M19.3583 16.0657L17.8793 17.2575L17.511 16.7872C17.28 16.494 16.8578 16.443 16.563 16.6732C16.2698 16.9035 16.2188 17.3272 16.449 17.6212L17.2395 18.6292C17.3505 18.771 17.514 18.8632 17.6933 18.8835C17.7188 18.8865 17.7443 18.888 17.7705 18.888C17.9235 18.888 18.0735 18.8355 18.1935 18.7387L20.205 17.1187C20.496 16.884 20.541 16.4595 20.3078 16.1692C20.0738 15.879 19.6485 15.831 19.3583 16.0657Z" fill="white"/>
</g>
</g>
</svg>
