<svg width="34" height="34" viewBox="0 0 34 34" fill="none" xmlns="http://www.w3.org/2000/svg">
<g clip-path="url(#clip0_1463_261)">
<path d="M27.625 34H24.9688C22.7718 34 20.9844 32.2126 20.9844 30.0156C20.9844 29.2821 21.579 28.6875 22.3125 28.6875C23.046 28.6875 23.6406 29.2821 23.6406 30.0156C23.6406 30.748 24.2364 31.3438 24.9688 31.3438H27.625C28.3585 31.3438 28.9531 31.9384 28.9531 32.6719C28.9531 33.4054 28.3585 34 27.625 34Z" fill="#8289AD"/>
<path d="M9.03125 34H6.375C5.64148 34 5.04688 33.4054 5.04688 32.6719C5.04688 31.9384 5.64148 31.3438 6.375 31.3438H9.03125C9.76358 31.3438 10.3594 30.748 10.3594 30.0156C10.3594 29.2821 10.954 28.6875 11.6875 28.6875C12.421 28.6875 13.0156 29.2821 13.0156 30.0156C13.0156 32.2126 11.2282 34 9.03125 34Z" fill="#8289AD"/>
<path d="M23.6406 15.4062C23.2123 15.4062 22.8478 15.0859 22.7927 14.6611L22.6949 13.9073C22.6006 13.1799 21.9339 12.6669 21.2071 12.761C20.4797 12.8553 19.9664 13.5215 20.0607 14.2489L20.1585 15.0026C20.3847 16.7471 21.8817 18.0625 23.6406 18.0625C25.1053 18.0625 26.2969 19.2541 26.2969 20.7188C26.2969 22.1834 25.1053 23.375 23.6406 23.375H22.3125V22.0469C22.3125 21.3134 21.7179 20.7188 20.9844 20.7188C20.2509 20.7188 19.6562 21.3134 19.6562 22.0469V23.375C19.6562 24.8397 18.4647 26.0312 17 26.0312C15.5353 26.0312 14.3438 24.8397 14.3438 23.375V22.0469C14.3438 21.3134 13.7491 20.7188 13.0156 20.7188C12.2821 20.7188 11.6875 21.3134 11.6875 22.0469V23.375H10.3594C8.89472 23.375 7.70312 22.1834 7.70312 20.7188C7.70312 19.2541 8.89472 18.0625 10.3594 18.0625C12.1171 18.0625 13.6132 16.749 13.8411 15.0064C13.8411 15.0064 15.3191 4.13578 15.3194 4.13306C15.4285 3.29116 16.151 2.65625 17 2.65625C17.8489 2.65625 18.5715 3.29116 18.6807 4.13306C18.6815 4.13923 19.3747 8.95488 19.3747 8.95488C19.4792 9.68097 20.1535 10.1848 20.8785 10.0802C21.6046 9.97568 22.1084 9.30239 22.0038 8.57637L21.3136 3.78144C21.0287 1.62503 19.1762 0 17 0C14.8217 0 12.9676 1.62808 12.6857 3.78768C12.6857 3.78768 11.2077 14.6584 11.2073 14.6611C11.1523 15.0859 10.7877 15.4062 10.3594 15.4062C7.43006 15.4062 5.04688 17.7894 5.04688 20.7188C5.04688 23.6481 7.43006 26.0312 10.3594 26.0312H12.4022C13.3222 27.6176 15.038 28.6875 17 28.6875C18.962 28.6875 20.6778 27.6176 21.5978 26.0312H23.6406C26.5699 26.0312 28.9531 23.6481 28.9531 20.7188C28.9531 17.7894 26.5699 15.4062 23.6406 15.4062Z" fill="#8289AD"/>
<path d="M30.2812 28.6875C31.0148 28.6875 31.6094 28.0929 31.6094 27.3594C31.6094 26.6259 31.0148 26.0312 30.2812 26.0312C29.5477 26.0312 28.9531 26.6259 28.9531 27.3594C28.9531 28.0929 29.5477 28.6875 30.2812 28.6875Z" fill="#8289AD"/>
<path d="M17 34C17.7335 34 18.3281 33.4054 18.3281 32.6719C18.3281 31.9384 17.7335 31.3438 17 31.3438C16.2665 31.3438 15.6719 31.9384 15.6719 32.6719C15.6719 33.4054 16.2665 34 17 34Z" fill="#8289AD"/>
<path d="M3.71875 28.6875C4.45225 28.6875 5.04688 28.0929 5.04688 27.3594C5.04688 26.6259 4.45225 26.0312 3.71875 26.0312C2.98525 26.0312 2.39062 26.6259 2.39062 27.3594C2.39062 28.0929 2.98525 28.6875 3.71875 28.6875Z" fill="#8289AD"/>
</g>
<defs>
<clipPath id="clip0_1463_261">
<rect width="34" height="34" fill="white"/>
</clipPath>
</defs>
</svg>
