<svg width="27" height="27" viewBox="0 0 27 27" fill="none" xmlns="http://www.w3.org/2000/svg">
<g id="dust 1" clip-path="url(#clip0_8517_720)">
<g id="g2211">
<g id="g2213">
<g id="Clip path group">
<mask id="mask0_8517_720" style="mask-type:luminance" maskUnits="userSpaceOnUse" x="0" y="0" width="27" height="27">
<g id="clipPath2219">
<path id="path2217" d="M0 0H27V27H0V0Z" fill="white"/>
</g>
</mask>
<g mask="url(#mask0_8517_720)">
<g id="g2215">
<g id="g2221">
<path id="path2223" d="M22.2669 8.97335C21.7009 7.09221 19.9758 5.71289 17.9102 5.71289C16.5855 5.71289 15.4024 6.2853 14.5677 7.18575C13.9244 5.44065 12.2615 4.18945 10.293 4.18945C7.76884 4.18945 5.72266 6.23563 5.72266 8.75977C3.19852 8.75977 1.10156 10.8059 1.10156 13.3301C1.10156 15.3957 2.53166 17.1208 4.4128 17.6868C4.97881 19.5679 6.7039 20.9473 8.76953 20.9473C10.0942 20.9473 11.2773 20.3749 12.112 19.4744C12.7552 21.2195 14.4183 22.4707 16.3867 22.4707C18.9109 22.4707 20.957 20.4245 20.957 17.9004C23.4812 17.9004 25.5781 15.8542 25.5781 13.3301C25.5781 11.2644 24.148 9.53936 22.2669 8.97335Z" stroke="#8289AD" stroke-width="2" stroke-miterlimit="10" stroke-linecap="round" stroke-linejoin="round"/>
</g>
<g id="g2225">
<path id="path2227" d="M25.5781 2.61523C25.5781 3.45658 24.896 4.13867 24.0547 4.13867C23.2133 4.13867 22.5312 3.45658 22.5312 2.61523C22.5312 1.77389 23.2133 1.0918 24.0547 1.0918C24.896 1.0918 25.5781 1.77389 25.5781 2.61523Z" stroke="#8289AD" stroke-width="2" stroke-miterlimit="10" stroke-linecap="round" stroke-linejoin="round"/>
</g>
<g id="g2229">
<path id="path2231" d="M4.14844 24.0449C4.14844 24.8863 3.46634 25.5684 2.625 25.5684C1.78366 25.5684 1.10156 24.8863 1.10156 24.0449C1.10156 23.2036 1.78366 22.5215 2.625 22.5215C3.46634 22.5215 4.14844 23.2036 4.14844 24.0449Z" stroke="#8289AD" stroke-width="2" stroke-miterlimit="10" stroke-linecap="round" stroke-linejoin="round"/>
</g>
<g id="g2233">
<path id="path2235" d="M14.5781 13.0918C14.5781 13.6441 14.1304 14.0918 13.5781 14.0918C13.0259 14.0918 12.5781 13.6441 12.5781 13.0918C12.5781 12.5395 13.0259 12.0918 13.5781 12.0918C14.1304 12.0918 14.5781 12.5395 14.5781 13.0918Z" fill="#8289AD"/>
</g>
<g id="g2237">
<path id="path2239" d="M25.2422 20.709C25.2422 21.2613 24.7945 21.709 24.2422 21.709C23.6899 21.709 23.2422 21.2613 23.2422 20.709C23.2422 20.1567 23.6899 19.709 24.2422 19.709C24.7945 19.709 25.2422 20.1567 25.2422 20.709Z" fill="#8289AD"/>
</g>
<g id="g2241">
<path id="path2243" d="M3.91406 5.47461C3.91406 6.02688 3.46633 6.47461 2.91406 6.47461C2.3618 6.47461 1.91406 6.02688 1.91406 5.47461C1.91406 4.92234 2.3618 4.47461 2.91406 4.47461C3.46633 4.47461 3.91406 4.92234 3.91406 5.47461Z" fill="#8289AD"/>
</g>
<g id="g2245">
<path id="path2247" d="M11.5312 10.0449C11.5312 10.5972 11.0835 11.0449 10.5312 11.0449C9.97898 11.0449 9.53125 10.5972 9.53125 10.0449C9.53125 9.49266 9.97898 9.04492 10.5312 9.04492C11.0835 9.04492 11.5312 9.49266 11.5312 10.0449Z" fill="#8289AD"/>
</g>
<g id="g2249">
<path id="path2251" d="M17.625 16.1387C17.625 16.6909 17.1773 17.1387 16.625 17.1387C16.0727 17.1387 15.625 16.6909 15.625 16.1387C15.625 15.5864 16.0727 15.1387 16.625 15.1387C17.1773 15.1387 17.625 15.5864 17.625 16.1387Z" fill="#8289AD"/>
</g>
<g id="g2253">
<path id="path2255" d="M19.1484 10.0449C19.1484 10.5972 18.7007 11.0449 18.1484 11.0449C17.5962 11.0449 17.1484 10.5972 17.1484 10.0449C17.1484 9.49266 17.5962 9.04492 18.1484 9.04492C18.7007 9.04492 19.1484 9.49266 19.1484 10.0449Z" fill="#8289AD"/>
</g>
<g id="g2257">
<path id="path2259" d="M10.0078 16.1387C10.0078 16.6909 9.56008 17.1387 9.00781 17.1387C8.45555 17.1387 8.00781 16.6909 8.00781 16.1387C8.00781 15.5864 8.45555 15.1387 9.00781 15.1387C9.56008 15.1387 10.0078 15.5864 10.0078 16.1387Z" fill="#8289AD"/>
</g>
<g id="g2261">
<path id="path2263" d="M6.96094 13.0918C6.96094 13.6441 6.5132 14.0918 5.96094 14.0918C5.40867 14.0918 4.96094 13.6441 4.96094 13.0918C4.96094 12.5395 5.40867 12.0918 5.96094 12.0918C6.5132 12.0918 6.96094 12.5395 6.96094 13.0918Z" fill="#8289AD"/>
</g>
<g id="g2265">
<path id="path2267" d="M22.1953 13.0918C22.1953 13.6441 21.7476 14.0918 21.1953 14.0918C20.643 14.0918 20.1953 13.6441 20.1953 13.0918C20.1953 12.5395 20.643 12.0918 21.1953 12.0918C21.7476 12.0918 22.1953 12.5395 22.1953 13.0918Z" fill="#8289AD"/>
</g>
<g id="g2269">
<path id="path2271" d="M11.5312 23.7559C11.5312 24.3081 11.0835 24.7559 10.5312 24.7559C9.97898 24.7559 9.53125 24.3081 9.53125 23.7559C9.53125 23.2036 9.97898 22.7559 10.5312 22.7559C11.0835 22.7559 11.5312 23.2036 11.5312 23.7559Z" fill="#8289AD"/>
</g>
<g id="g2273">
<path id="path2275" d="M16.1016 2.42773C16.1016 2.98 15.6538 3.42773 15.1016 3.42773C14.5493 3.42773 14.1016 2.98 14.1016 2.42773C14.1016 1.87547 14.5493 1.42773 15.1016 1.42773C15.6538 1.42773 16.1016 1.87547 16.1016 2.42773Z" fill="#8289AD"/>
</g>
</g>
</g>
</g>
</g>
</g>
</g>
<defs>
<clipPath id="clip0_8517_720">
<rect width="27" height="27" fill="white"/>
</clipPath>
</defs>
</svg>
