<svg width="26" height="26" viewBox="0 0 26 26" fill="none" xmlns="http://www.w3.org/2000/svg">
<g id="mortar 1" clip-path="url(#clip0_8517_697)">
<g id="Group">
<path id="Vector" d="M13 26C16.5187 26 19.8011 24.6236 22.2427 22.1245C24.6657 19.6445 26 16.3319 26 12.7969C26 11.1168 24.6332 9.75 22.9531 9.75H3.04688C1.36683 9.75 0 11.1168 0 12.7969C0 16.3319 1.33433 19.6445 3.75725 22.1245C6.19887 24.6236 9.48132 26 13 26ZM3.04688 11.7812H22.9531C23.5131 11.7812 23.9688 12.2369 23.9688 12.7969C23.9688 19.0615 19.1507 23.9688 13 23.9688C6.84932 23.9688 2.03125 19.0615 2.03125 12.7969C2.03125 12.2369 2.48686 11.7812 3.04688 11.7812Z" fill="#8289AD"/>
<path id="Vector_2" d="M4.0625 6.09375H5.07812C5.63905 6.09375 6.09375 5.63905 6.09375 5.07812V4.0625C6.09375 1.82244 4.27131 0 2.03125 0H1.01562C0.454695 0 0 0.454695 0 1.01562V2.03125C0 4.27131 1.82244 6.09375 4.0625 6.09375ZM4.0625 4.0625C2.94247 4.0625 2.03125 3.15128 2.03125 2.03125C3.15128 2.03125 4.0625 2.94247 4.0625 4.0625Z" fill="#8289AD"/>
<path id="Vector_3" d="M8.9375 8.125H9.95312C12.1932 8.125 14.0156 6.30256 14.0156 4.0625V3.04688C14.0156 2.48595 13.5609 2.03125 13 2.03125H11.9844C9.74431 2.03125 7.92188 3.85369 7.92188 6.09375V7.10938C7.92188 7.6703 8.37657 8.125 8.9375 8.125ZM11.9844 4.0625C11.9844 5.18253 11.0732 6.09375 9.95312 6.09375C9.95312 4.97372 10.8643 4.0625 11.9844 4.0625Z" fill="#8289AD"/>
<path id="Vector_4" d="M16.7377 7.82752L22.2363 2.32888C22.6322 1.93299 23.2765 1.93299 23.6723 2.32888C24.0682 2.72477 24.0682 3.36898 23.6723 3.76487L21.0459 6.39123C20.6493 6.78783 20.6493 7.43092 21.0459 7.82752C21.4425 8.22412 22.0856 8.22412 22.4823 7.82752L25.1086 5.20117C25.6842 4.62561 26.0012 3.86054 26.0012 3.04688C26.0012 2.23321 25.6842 1.46814 25.1087 0.892582C24.5331 0.316977 23.768 0 22.9543 0C22.1407 0 21.3756 0.316977 20.8 0.892582L15.3014 6.39123C14.9048 6.78783 14.9048 7.43092 15.3014 7.82752C15.698 8.22418 16.3411 8.22418 16.7377 7.82752Z" fill="#8289AD"/>
<path id="Vector_5" d="M10.9688 17.875H11.9844V18.8906C11.9844 19.4516 12.4391 19.9062 13 19.9062C13.5609 19.9062 14.0156 19.4516 14.0156 18.8906V17.875H15.0312C15.5922 17.875 16.0469 17.4203 16.0469 16.8594C16.0469 16.2984 15.5922 15.8438 15.0312 15.8438H14.0156V14.8281C14.0156 14.2672 13.5609 13.8125 13 13.8125C12.4391 13.8125 11.9844 14.2672 11.9844 14.8281V15.8438H10.9688C10.4078 15.8438 9.95312 16.2984 9.95312 16.8594C9.95312 17.4203 10.4078 17.875 10.9688 17.875Z" fill="#8289AD"/>
</g>
</g>
<defs>
<clipPath id="clip0_8517_697">
<rect width="26" height="26" fill="white"/>
</clipPath>
</defs>
</svg>
