<svg width="18" height="8" viewBox="0 0 18 8" fill="none" xmlns="http://www.w3.org/2000/svg">
<path d="M17.4033 3.3042C17.4025 3.30341 17.4019 3.30252 17.4011 3.30173L14.4386 0.339238C14.0529 -0.0464291 13.4276 -0.0464291 13.042 0.339238C12.6564 0.724906 12.6564 1.35014 13.042 1.73576L14.3187 3.0125H1.2978C0.752406 3.0125 0.310303 3.4546 0.310303 3.99999C0.310303 4.54539 0.752406 4.98749 1.2978 4.98749H14.3188L13.042 6.26423C12.6564 6.6499 12.6564 7.27513 13.042 7.66075C13.2348 7.85356 13.4876 7.94999 13.7403 7.94999C13.9931 7.94999 14.2458 7.85356 14.4386 7.66075L17.4011 4.69825C17.4019 4.69746 17.4026 4.69658 17.4034 4.69579C17.7864 4.31002 17.7839 3.68735 17.4033 3.3042Z" fill="white"/>
</svg>
