<svg width="26" height="26" viewBox="0 0 26 26" fill="none" xmlns="http://www.w3.org/2000/svg">
<g id="audit 1">
<path id="Vector" d="M17.6719 26H8.32812C4.96803 26 2.23438 23.2663 2.23438 19.9062V6.09375C2.23438 2.73366 4.96803 0 8.32812 0H17.6719C21.032 0 23.7656 2.73366 23.7656 6.09375V19.9062C23.7656 23.2663 21.032 26 17.6719 26ZM8.32812 2.03125C6.08806 2.03125 4.26562 3.85369 4.26562 6.09375V19.9062C4.26562 22.1463 6.08806 23.9688 8.32812 23.9688H17.6719C19.9119 23.9688 21.7344 22.1463 21.7344 19.9062V6.09375C21.7344 3.85369 19.9119 2.03125 17.6719 2.03125H8.32812ZM18.4844 4.97656C18.4844 4.41563 18.0297 3.96094 17.4688 3.96094C16.9078 3.96094 16.4531 4.41563 16.4531 4.97656C16.4531 5.81659 15.7697 6.5 14.9297 6.5H11.0703C10.2303 6.5 9.54688 5.81659 9.54688 4.97656C9.54688 4.41563 9.09218 3.96094 8.53125 3.96094C7.97032 3.96094 7.51562 4.41563 7.51562 4.97656C7.51562 6.93662 9.11026 8.53125 11.0703 8.53125H14.9297C16.8897 8.53125 18.4844 6.93662 18.4844 4.97656ZM14.531 18.1609L18.5446 14.1222C18.94 13.7243 18.938 13.0813 18.5401 12.6859C18.1423 12.2906 17.4992 12.2924 17.1038 12.6904L13.0894 16.73C12.8768 16.9444 12.5947 17.0626 12.2952 17.0626C11.9957 17.0626 11.7137 16.9444 11.5011 16.73L9.55713 14.7693C9.16226 14.371 8.51921 14.3681 8.12084 14.7631C7.72251 15.158 7.71977 15.801 8.11464 16.1994L10.0586 18.1601C10.6556 18.7622 11.4499 19.0938 12.2953 19.0938C13.1406 19.0938 13.9349 18.7622 14.531 18.1609Z" fill="#8289AD"/>
</g>
</svg>
