<svg width="20" height="20" viewBox="0 0 20 20" fill="none" xmlns="http://www.w3.org/2000/svg">
<g clip-path="url(#clip0_1510_3115)">
<path d="M16.0938 2.1875H15.3125V1.40625C15.3125 0.974766 14.9627 0.625 14.5312 0.625C14.0998 0.625 13.75 0.974766 13.75 1.40625V4.53125C13.75 4.96273 14.0998 5.3125 14.5312 5.3125C14.9627 5.3125 15.3125 4.96273 15.3125 4.53125V3.75H16.0938C17.3861 3.75 18.4375 4.80141 18.4375 6.09375V15.4688C18.4375 16.7611 17.3861 17.8125 16.0938 17.8125H3.90625C2.61391 17.8125 1.5625 16.7611 1.5625 15.4688V6.09375C1.5625 4.80141 2.61391 3.75 3.90625 3.75H4.6875V4.53125C4.6875 4.96273 5.03727 5.3125 5.46875 5.3125C5.90023 5.3125 6.25 4.96273 6.25 4.53125V1.40625C6.25 0.974766 5.90023 0.625 5.46875 0.625C5.03727 0.625 4.6875 0.974766 4.6875 1.40625V2.1875H3.90625C1.75234 2.1875 0 3.93984 0 6.09375V15.4688C0 17.6227 1.75234 19.375 3.90625 19.375H16.0938C18.2477 19.375 20 17.6227 20 15.4688V6.09375C20 3.93984 18.2477 2.1875 16.0938 2.1875Z" fill="#8289AD"/>
<path d="M14.6875 3.75C15.119 3.75 15.4688 3.40023 15.4688 2.96875C15.4688 2.53727 15.119 2.1875 14.6875 2.1875H5.625C5.19352 2.1875 4.84375 2.53727 4.84375 2.96875C4.84375 3.40023 5.19352 3.75 5.625 3.75H14.6875Z" fill="#8289AD"/>
<path d="M3.125 7.65625C3.125 8.08773 3.47477 8.4375 3.90625 8.4375H16.0938C16.5252 8.4375 16.875 8.08773 16.875 7.65625C16.875 7.22477 16.5252 6.875 16.0938 6.875H3.90625C3.47477 6.875 3.125 7.22477 3.125 7.65625Z" fill="#8289AD"/>
<path d="M13.3538 10.2288L9.21874 14.3639L7.42742 12.5726C7.1223 12.2675 6.62765 12.2675 6.32257 12.5726C6.0175 12.8777 6.01746 13.3723 6.32257 13.6774L8.66632 16.0212C8.9714 16.3262 9.46605 16.3263 9.77117 16.0212L14.4587 11.3337C14.7638 11.0285 14.7638 10.5339 14.4587 10.2288C14.1536 9.92375 13.6589 9.92371 13.3538 10.2288Z" fill="#8289AD"/>
</g>
<defs>
<clipPath id="clip0_1510_3115">
<rect width="20" height="20" fill="white"/>
</clipPath>
</defs>
</svg>
