<svg width="20" height="20" viewBox="0 0 20 20" fill="none" xmlns="http://www.w3.org/2000/svg">
<g id="back 1">
<path id="Vector" d="M18.3319 9.16584H3.67685L8.08769 4.75501C8.16728 4.67813 8.23076 4.58618 8.27444 4.48451C8.31811 4.38284 8.3411 4.27349 8.34206 4.16284C8.34302 4.05219 8.32194 3.94246 8.28004 3.84004C8.23814 3.73763 8.17626 3.64459 8.09801 3.56634C8.01977 3.4881 7.92673 3.42622 7.82431 3.38432C7.7219 3.34242 7.61217 3.32134 7.50152 3.3223C7.39087 3.32326 7.28152 3.34625 7.17985 3.38992C7.07818 3.4336 6.98622 3.49708 6.90935 3.57667L1.07602 9.41001C0.919794 9.56628 0.832031 9.7782 0.832031 9.99917C0.832031 10.2201 0.919794 10.4321 1.07602 10.5883L6.90935 16.4217C7.06652 16.5735 7.27702 16.6575 7.49552 16.6556C7.71402 16.6537 7.92303 16.566 8.07753 16.4115C8.23204 16.257 8.31968 16.048 8.32158 15.8295C8.32348 15.611 8.23948 15.4005 8.08769 15.2433L3.67685 10.8325H18.3319C18.5529 10.8325 18.7648 10.7447 18.9211 10.5884C19.0774 10.4321 19.1652 10.2202 19.1652 9.99917C19.1652 9.77816 19.0774 9.5662 18.9211 9.40992C18.7648 9.25364 18.5529 9.16584 18.3319 9.16584Z" fill="white"/>
</g>
</svg>
