<svg width="18" height="18" viewBox="0 0 18 18" fill="none" xmlns="http://www.w3.org/2000/svg">
<g id="bell 1" clip-path="url(#clip0_1360_90)">
<path id="Vector" d="M16.0459 12.6848C14.912 11.7263 14.2618 10.3252 14.2618 8.84097V6.75C14.2618 4.11081 12.3013 1.92604 9.76176 1.56006V0.749954C9.76176 0.33522 9.42572 0 9.01167 0C8.59776 0 8.26172 0.33522 8.26172 0.749954V1.56006C5.72141 1.92604 3.76172 4.11081 3.76172 6.75V8.84097C3.76172 10.3252 3.11147 11.7263 1.97067 12.6907C1.67899 12.9405 1.51172 13.3035 1.51172 13.6875C1.51172 14.4113 2.10045 15 2.82417 15H15.1992C15.923 15 16.5118 14.4113 16.5118 13.6875C16.5118 13.3035 16.3445 12.9405 16.0459 12.6848Z" fill="white"/>
<path id="Vector_2" d="M9.01332 18C10.3716 18 11.5079 17.0317 11.7688 15.75H6.25781C6.51888 17.0317 7.65514 18 9.01332 18Z" fill="white"/>
</g>
<defs>
<clipPath id="clip0_1360_90">
<rect width="18" height="18" fill="white"/>
</clipPath>
</defs>
</svg>
