<svg width="20" height="20" viewBox="0 0 20 20" fill="none" xmlns="http://www.w3.org/2000/svg">
<g clip-path="url(#clip0_1510_3788)">
<path d="M12.3438 8.65625C12.7752 8.65625 13.125 8.30647 13.125 7.875C13.125 7.44353 12.7752 7.09375 12.3438 7.09375C11.9123 7.09375 11.5625 7.44353 11.5625 7.875C11.5625 8.30647 11.9123 8.65625 12.3438 8.65625Z" fill="#0A0B20"/>
<path d="M9.21875 8.65625C9.65022 8.65625 10 8.30647 10 7.875C10 7.44353 9.65022 7.09375 9.21875 7.09375C8.78728 7.09375 8.4375 7.44353 8.4375 7.875C8.4375 8.30647 8.78728 8.65625 9.21875 8.65625Z" fill="#0A0B20"/>
<path d="M6.09375 11.7812C6.52522 11.7812 6.875 11.4315 6.875 11C6.875 10.5685 6.52522 10.2188 6.09375 10.2188C5.66228 10.2188 5.3125 10.5685 5.3125 11C5.3125 11.4315 5.66228 11.7812 6.09375 11.7812Z" fill="#0A0B20"/>
<path d="M9.21875 11.7812C9.65022 11.7812 10 11.4315 10 11C10 10.5685 9.65022 10.2188 9.21875 10.2188C8.78728 10.2188 8.4375 10.5685 8.4375 11C8.4375 11.4315 8.78728 11.7812 9.21875 11.7812Z" fill="#0A0B20"/>
<path d="M12.3438 11.7812C12.7752 11.7812 13.125 11.4315 13.125 11C13.125 10.5685 12.7752 10.2188 12.3438 10.2188C11.9123 10.2188 11.5625 10.5685 11.5625 11C11.5625 11.4315 11.9123 11.7812 12.3438 11.7812Z" fill="#0A0B20"/>
<path d="M18.5938 15.3125H4.53125C4.09977 15.3125 3.75 15.6623 3.75 16.0938V17.6562C3.75 18.087 3.39953 18.4375 2.96875 18.4375C2.53797 18.4375 2.1875 18.087 2.1875 17.6562V4.6875C2.1875 3.82594 2.88844 3.125 3.75 3.125V3.90625C3.75 4.33773 4.09977 4.6875 4.53125 4.6875C4.96273 4.6875 5.3125 4.33773 5.3125 3.90625V3.125H8.4375V3.90625C8.4375 4.33773 8.78727 4.6875 9.21875 4.6875C9.65023 4.6875 10 4.33773 10 3.90625V3.125H13.125V3.90625C13.125 4.33773 13.4748 4.6875 13.9062 4.6875C14.3377 4.6875 14.6875 4.33773 14.6875 3.90625V3.125C15.5491 3.125 16.25 3.82594 16.25 4.6875V13.125C16.25 13.5565 16.5998 13.9062 17.0312 13.9062C17.4627 13.9062 17.8125 13.5565 17.8125 13.125V4.6875C17.8125 2.96438 16.4106 1.5625 14.6875 1.5625V0.78125C14.6875 0.349766 14.3377 0 13.9062 0C13.4748 0 13.125 0.349766 13.125 0.78125V1.5625H10V0.78125C10 0.349766 9.65023 0 9.21875 0C8.78727 0 8.4375 0.349766 8.4375 0.78125V1.5625H5.3125V0.78125C5.3125 0.349766 4.96273 0 4.53125 0C4.09977 0 3.75 0.349766 3.75 0.78125V1.5625C2.02688 1.5625 0.625 2.96438 0.625 4.6875V17.6562C0.625 18.9486 1.67641 20 2.96875 20H17.0312C18.3236 20 19.375 18.9486 19.375 17.6562V16.0938C19.375 15.6623 19.0252 15.3125 18.5938 15.3125ZM17.8125 17.6562C17.8125 18.087 17.462 18.4375 17.0312 18.4375H5.17863C5.26531 18.193 5.3125 17.93 5.3125 17.6562V16.875H17.8125V17.6562Z" fill="#0A0B20"/>
</g>
<defs>
<clipPath id="clip0_1510_3788">
<rect width="20" height="20" fill="white"/>
</clipPath>
</defs>
</svg>
