<svg width="15" height="16" viewBox="0 0 15 16" fill="none" xmlns="http://www.w3.org/2000/svg">
<g clip-path="url(#clip0_1684_1395)">
<path d="M13.125 2.375H12.5V1.12496C12.5 0.780037 12.22 0.5 11.875 0.5H11.25C10.905 0.5 10.625 0.780037 10.625 1.12496V2.375H4.37496V1.12496C4.37496 0.780037 4.09504 0.5 3.75 0.5H3.12504C2.78 0.5 2.49996 0.780037 2.49996 1.12496V2.375H1.875C0.841255 2.375 0 3.21626 0 4.25V13.625C0 14.6587 0.841255 15.5 1.875 15.5H13.125C14.1587 15.5 15 14.6587 15 13.625V4.25C15 3.21626 14.1587 2.375 13.125 2.375ZM13.75 13.625C13.75 13.9694 13.4694 14.25 13.125 14.25H1.875C1.53065 14.25 1.25004 13.9694 1.25004 13.625V6.77502H13.75V13.625Z" fill="white"/>
</g>
<defs>
<clipPath id="clip0_1684_1395">
<rect width="15" height="15" fill="white" transform="translate(0 0.5)"/>
</clipPath>
</defs>
</svg>
