<svg width="28" height="28" viewBox="0 0 28 28" fill="none" xmlns="http://www.w3.org/2000/svg">
<path d="M24.8513 17.9424C24.6658 18.2225 24.3974 18.4375 24.0835 18.5572C23.7696 18.6769 23.4261 18.6953 23.1013 18.6097L19.9233 17.7931C19.3772 17.6529 18.9057 17.3086 18.6061 16.831C18.3065 16.3534 18.2017 15.779 18.3133 15.2264L18.6038 13.7937C15.6441 12.707 12.3951 12.7046 9.43376 13.7867L9.71609 15.2311C9.82572 15.7841 9.71901 16.3581 9.41794 16.8348C9.11687 17.3114 8.64441 17.6544 8.09793 17.7931L4.90126 18.6016C4.57912 18.6838 4.23946 18.6644 3.92872 18.5462C3.61798 18.428 3.35134 18.2167 3.16526 17.9412C2.40814 16.7497 2.15347 15.3068 2.4569 13.9281C2.76033 12.5493 3.59719 11.3467 4.78459 10.5831C7.59599 8.99602 10.7702 8.16336 13.9986 8.16602C17.227 8.16868 20.3998 9.00656 23.2086 10.5982C24.3948 11.359 25.2327 12.5573 25.5403 13.9325C25.8479 15.3077 25.6003 16.7487 24.8513 17.9424Z" fill="white"/>
</svg>
