<svg width="29" height="29" viewBox="0 0 29 29" fill="none" xmlns="http://www.w3.org/2000/svg">
<g id="photo-camera 1" opacity="0.5">
<g id="Group">
<path id="Vector" d="M23.3359 12.9814C23.9616 12.9814 24.4688 12.4743 24.4688 11.8486C24.4688 11.223 23.9616 10.7158 23.3359 10.7158C22.7103 10.7158 22.2031 11.223 22.2031 11.8486C22.2031 12.4743 22.7103 12.9814 23.3359 12.9814Z" fill="white"/>
<path id="Vector_2" d="M23.3359 25.4424H5.66406C2.54084 25.4424 0 22.9015 0 19.7783V11.8486C0 8.72547 2.54084 6.18457 5.66406 6.18457H8.83582L9.51438 5.27974C10.1533 4.42769 11.1702 3.91895 12.2343 3.91895H16.7656C17.8296 3.91895 18.8464 4.42763 19.4855 5.27968L20.1641 6.18457H23.3359C26.4592 6.18457 29 8.72547 29 11.8486V19.7783C29 22.9015 26.4592 25.4424 23.3359 25.4424ZM5.66406 8.4502C3.79016 8.4502 2.26562 9.97473 2.26562 11.8486V19.7783C2.26562 21.6522 3.79016 23.1768 5.66406 23.1768H23.3359C25.2098 23.1768 26.7344 21.6522 26.7344 19.7783V11.8486C26.7344 9.97473 25.2098 8.4502 23.3359 8.4502H19.5978C19.2412 8.4502 18.9054 8.28231 18.6915 7.99707L17.8016 6.81039C17.8007 6.80932 17.8 6.80824 17.7991 6.80722L17.673 6.63905C17.4564 6.35024 17.1257 6.18463 16.7656 6.18463H12.2343C11.8743 6.18463 11.5435 6.35024 11.3269 6.63911L10.3085 7.99713C10.0946 8.28243 9.75878 8.45025 9.40223 8.45025L5.66406 8.4502Z" fill="white"/>
<path id="Vector_3" d="M14.5 20.9111C11.3768 20.9111 8.83594 18.3702 8.83594 15.2471C8.83594 12.1239 11.3768 9.58301 14.5 9.58301C17.6232 9.58301 20.1641 12.1239 20.1641 15.2471C20.1641 18.3702 17.6232 20.9111 14.5 20.9111ZM14.5 11.8486C12.6261 11.8486 11.1016 13.3732 11.1016 15.2471C11.1016 17.121 12.6261 18.6455 14.5 18.6455C16.3739 18.6455 17.8984 17.121 17.8984 15.2471C17.8984 13.3732 16.3739 11.8486 14.5 11.8486Z" fill="white"/>
</g>
</g>
</svg>
