<svg width="36" height="36" viewBox="0 0 36 36" fill="none" xmlns="http://www.w3.org/2000/svg">
<circle opacity="0.3" cx="18" cy="18" r="17.5" stroke="white"/>
<path d="M10.6917 19.4584C10.5659 19.585 10.4841 19.7486 10.4584 19.9251L9.67503 25.3834C9.6557 25.5116 9.66673 25.6424 9.70722 25.7655C9.74771 25.8885 9.81653 26.0004 9.90814 26.092C9.99975 26.1836 10.1116 26.2524 10.2347 26.2929C10.3577 26.3334 10.4886 26.3444 10.6167 26.3251L16.075 25.5418C16.2516 25.516 16.4152 25.4342 16.5417 25.3084L22.975 18.8834L17.1167 13.0334L10.6917 19.4584Z" fill="#555564"/>
<path d="M19.2667 10.8833L18.3 11.85L24.15 17.7L25.125 16.7333C28.9858 12.8525 23.1302 7.0198 19.2667 10.8833Z" fill="#555564"/>
</svg>
