<svg width="16" height="16" viewBox="0 0 16 16" fill="none" xmlns="http://www.w3.org/2000/svg">
<g id="clock 1" clip-path="url(#clip0_1996_1806)">
<g id="Layer 2">
<path id="Vector" d="M7.99984 0.666626C6.54944 0.666626 5.13162 1.09672 3.92566 1.90252C2.7197 2.70831 1.77977 3.85362 1.22472 5.19361C0.669681 6.53361 0.524457 8.00809 0.807415 9.43062C1.09037 10.8531 1.78881 12.1598 2.81439 13.1854C3.83998 14.211 5.14665 14.9094 6.56918 15.1924C7.9917 15.4753 9.46619 15.3301 10.8062 14.7751C12.1462 14.22 13.2915 13.2801 14.0973 12.0741C14.9031 10.8682 15.3332 9.45036 15.3332 7.99996C15.3309 6.05574 14.5575 4.19181 13.1828 2.81704C11.808 1.44227 9.94406 0.66892 7.99984 0.666626ZM10.4712 10.4713C10.3462 10.5963 10.1766 10.6665 9.99984 10.6665C9.82306 10.6665 9.65353 10.5963 9.52851 10.4713L7.52851 8.47129C7.40347 8.3463 7.33321 8.17676 7.33317 7.99996V3.99996C7.33317 3.82315 7.40341 3.65358 7.52844 3.52855C7.65346 3.40353 7.82303 3.33329 7.99984 3.33329C8.17665 3.33329 8.34622 3.40353 8.47124 3.52855C8.59627 3.65358 8.66651 3.82315 8.66651 3.99996V7.72396L10.4712 9.52863C10.5962 9.65364 10.6664 9.82318 10.6664 9.99996C10.6664 10.1767 10.5962 10.3463 10.4712 10.4713Z" fill="white"/>
</g>
</g>
<defs>
<clipPath id="clip0_1996_1806">
<rect width="16" height="16" fill="white"/>
</clipPath>
</defs>
</svg>
