<svg width="30" height="30" viewBox="0 0 30 30" fill="none" xmlns="http://www.w3.org/2000/svg">
<g id="clock-2 1" clip-path="url(#clip0_1552_418)">
<path id="Vector" d="M15.0001 29.9854C1.68539 29.972 -5.01187 13.8021 4.39358 4.37878C9.97691 -1.43963 20.0234 -1.44057 25.6066 4.37901C35.012 13.8032 28.314 29.9728 15.0001 29.9854ZM15.0001 2.32917C8.02141 2.32917 2.34386 8.00672 2.34386 14.9854C3.03908 31.7756 26.9636 31.7707 27.6563 14.9853C27.6563 8.00678 21.9787 2.32917 15.0001 2.32917ZM20.4576 18.7857L16.7552 15.0832C16.7878 14.5365 16.5546 14.0139 16.1714 13.6747C16.1717 13.6625 16.172 13.6502 16.172 13.6378V6.78235C16.1101 5.2275 13.8896 5.22868 13.8282 6.78235V13.6378C13.8282 13.6502 13.8284 13.6625 13.8288 13.6747C12.6033 14.7717 13.4346 16.8262 15.0979 16.7406L18.8003 20.443C19.2579 20.9007 19.9999 20.9007 20.4576 20.443C20.9152 19.9853 20.9152 19.2433 20.4576 18.7857Z" fill="#8289AD"/>
</g>
<defs>
<clipPath id="clip0_1552_418">
<rect width="30" height="30" fill="white"/>
</clipPath>
</defs>
</svg>
