<svg width="23" height="23" viewBox="0 0 23 23" fill="none" xmlns="http://www.w3.org/2000/svg">
<path d="M11.395 8.86281L18.9917 1.2661C19.691 0.56685 20.8247 0.566854 21.5239 1.2661C22.2232 1.96535 22.2231 3.09906 21.5239 3.7983L13.9272 11.395L21.5239 18.9916C22.2231 19.6908 22.2231 20.8245 21.5239 21.5238C20.8246 22.223 19.691 22.223 18.9917 21.5238L11.395 13.9272L3.79832 21.5238C3.09907 22.223 1.96538 22.223 1.26613 21.5238C0.566868 20.8245 0.566868 19.6908 1.26613 18.9915L8.86277 11.395L1.26611 3.79832C0.566856 3.09906 0.56686 1.96535 1.26612 1.2661C1.96537 0.566853 3.09908 0.566857 3.79833 1.26611L11.395 8.86281Z" fill="#8289AD"/>
</svg>
