<svg width="50" height="50" viewBox="0 0 50 50" fill="none" xmlns="http://www.w3.org/2000/svg">
<g id="Group">
<g id="Group_2">
<g id="Group_3">
<path id="Vector" d="M0.0113931 21.7832C-0.0972004 22.6571 0.584341 23.4287 1.465 23.4287H7.42456C8.13989 23.4287 8.75063 22.912 8.86909 22.2065C10.0161 15.3759 15.3758 10.0161 22.2064 8.86919C22.9119 8.75073 23.4286 8.13999 23.4286 7.42456V1.465C23.4286 0.584341 22.6571 -0.0972004 21.7831 0.0113931C16.288 0.694302 11.0968 3.23521 7.16597 7.16597C3.23521 11.0968 0.694302 16.288 0.0113931 21.7832Z" fill="white"/>
<path id="Vector_2" d="M34.3335 38.1525C31.5532 40.1377 28.2932 41.1869 24.9058 41.1869C16.935 41.1869 10.1907 35.475 8.86919 27.6051C8.75073 26.8996 8.13999 26.3828 7.42466 26.3828H1.465C0.584341 26.3828 -0.0972004 27.1543 0.0113931 28.0282V28.0283C1.56813 40.5543 12.2704 50.0001 24.9058 50.0001C30.5347 50.0001 35.8579 48.1731 40.3001 44.7166C40.9954 44.1756 41.0593 43.1476 40.4363 42.5247L36.2205 38.3089C35.7142 37.8026 34.9161 37.7365 34.3335 38.1525Z" fill="white"/>
<path id="Vector_3" d="M27.6042 8.86943C35.474 10.1909 41.1861 16.9352 41.1861 24.906C41.1861 28.2934 40.1368 31.5534 38.1517 34.3337C37.7357 34.9163 37.8018 35.7144 38.3081 36.2206L42.5241 40.4366C43.147 41.0596 44.1749 40.9956 44.7159 40.3004L44.716 40.3003C48.1723 35.8583 49.9993 30.535 49.9993 24.906C49.9993 12.2706 40.5534 1.56837 28.0274 0.0116373H28.0273C27.1534 -0.0969562 26.3818 0.584585 26.3818 1.46525V7.4248C26.3819 8.14023 26.8986 8.75097 27.6042 8.86943Z" fill="white"/>
</g>
</g>
<g id="Group_4">
<path id="Vector_4" d="M25.881 14.8401H23.9268C23.1178 14.8401 22.4619 15.4959 22.4619 16.3049V33.3945H27.3459V16.3049C27.3459 15.4959 26.69 14.8401 25.881 14.8401Z" fill="white"/>
<path id="Vector_5" d="M30.2754 33.3946H33.6945C34.5035 33.3946 35.1594 32.7388 35.1594 31.9298V20.2112C35.1594 19.4022 34.5035 18.7463 33.6945 18.7463H30.2754V33.3946Z" fill="white"/>
<path id="Vector_6" d="M19.5326 22.6526H16.1172C15.3082 22.6526 14.6523 23.3084 14.6523 24.1174V31.9298C14.6523 32.7388 15.3082 33.3947 16.1172 33.3947H19.5326V22.6526Z" fill="white"/>
</g>
</g>
</svg>
