<svg width="25" height="28" viewBox="0 0 25 28" fill="none" xmlns="http://www.w3.org/2000/svg">
<path d="M2.78238 25.6238L2.79493 25.6249H2.80752H2.80765H2.80779H2.80792H2.80805H2.80818H2.80832H2.80845H2.80858H2.80871H2.80884H2.80896H2.80909H2.80922H2.80935H2.80947H2.8096H2.80973H2.80985H2.80997H2.8101H2.81022H2.81035H2.81047H2.81059H2.81071H2.81083H2.81095H2.81108H2.8112H2.81131H2.81143H2.81155H2.81167H2.81179H2.8119H2.81202H2.81214H2.81225H2.81237H2.81248H2.8126H2.81271H2.81283H2.81294H2.81305H2.81316H2.81328H2.81339H2.8135H2.81361H2.81372H2.81383H2.81394H2.81405H2.81416H2.81426H2.81437H2.81448H2.81459H2.81469H2.8148H2.8149H2.81501H2.81511H2.81522H2.81532H2.81543H2.81553H2.81563H2.81574H2.81584H2.81594H2.81604H2.81614H2.81624H2.81634H2.81644H2.81654H2.81664H2.81674H2.81684H2.81694H2.81703H2.81713H2.81723H2.81733H2.81742H2.81752H2.81761H2.81771H2.8178H2.8179H2.81799H2.81809H2.81818H2.81827H2.81837H2.81846H2.81855H2.81864H2.81874H2.81883H2.81892H2.81901H2.8191H2.81919H2.81928H2.81937H2.81946H2.81955H2.81964H2.81972H2.81981H2.8199H2.81999H2.82007H2.82016H2.82025H2.82033H2.82042H2.82051H2.82059H2.82068H2.82076H2.82085H2.82093H2.82102H2.8211H2.82118H2.82127H2.82135H2.82143H2.82151H2.8216H2.82168H2.82176H2.82184H2.82192H2.822H2.82209H2.82217H2.82225H2.82233H2.82241H2.82249H2.82257H2.82265H2.82272H2.8228H2.82288H2.82296H2.82304H2.82312H2.82319H2.82327H2.82335H2.82343H2.8235H2.82358H2.82366H2.82373H2.82381H2.82388H2.82396H2.82404H2.82411H2.82419H2.82426H2.82434H2.82441H2.82449H2.82456H2.82463H2.82471H2.82478H2.82485H2.82493H2.825H2.82507H2.82515H2.82522H2.82529H2.82537H2.82544H2.82551H2.82558H2.82565H2.82573H2.8258H2.82587H2.82594H2.82601H2.82608H2.82615H2.82623H2.8263H2.82637H2.82644H2.82651H2.82658H2.82665H2.82672H2.82679H2.82686H2.82693H2.827H2.82707H2.82714H2.8272H2.82727H2.82734H2.82741H2.82748H2.82755H2.82762H2.82769H2.82776H2.82782H2.82789H2.82796H2.82803H2.8281H2.82817H2.82823H2.8283H2.82837H2.82844H2.82851H2.82857H2.82864H2.82871H2.82878H2.82884H2.82891H2.82898H2.82905H2.82911H2.82918H2.82925H2.82932H2.82938H2.82945H2.82952H2.82958H2.82965H2.82972H2.82979H2.82985H2.82992H2.82999H2.83005H2.83012H2.83019H2.83026H2.83032H2.83039H2.83046H2.83052H2.83059H2.83066H2.83072H2.83079H2.83086H2.83093H2.83099H2.83106H2.83113H2.83119H2.83126H2.83133H2.8314H2.83146H2.83153H2.8316H2.83166H2.83173H2.8318H2.83187H2.83193H2.832H2.83207H2.83214H2.8322H2.83227H2.83234H2.83241H2.83248H2.83254H2.83261H2.83268H2.83275H2.83282H2.83289H2.83295H2.83302H2.83309H2.83316H2.83323H2.8333H2.83337H2.83343H2.8335H2.83357H2.83364H2.83371H2.83378H2.83385H2.83392H2.83399H2.83406H2.83413H2.8342H2.83427H2.83434H2.83441H2.83448H2.83455H2.83462H2.8347H2.83477H2.83484H2.83491H2.83498H2.83505H2.83512H2.8352H2.83527H2.83534H2.83541H2.83548H2.83556H2.83563H2.8357H2.83578H2.83585H2.83592H2.836H2.83607H2.83614H2.83622H2.83629H2.83637H2.83644H2.83652H2.83659H2.83667H2.83674H2.83682H2.83689H2.83697H2.83705H2.83712H2.8372H2.83728H2.83735H2.83743H2.83751H2.83758H2.83766H2.83774H2.83782H2.8379H2.83798H2.83805H2.83813H2.83821H2.83829H2.83837H2.83845H2.83853H2.83861H2.83869H2.83877H2.83885H2.83894H2.83902H2.8391H2.83918H2.83926H2.83935H2.83943H2.83951H2.8396H2.83968H2.83976H2.83985H2.83993H2.84002H2.8401H2.84019H2.84027H2.84036H2.84044H2.84053H2.84062H2.8407H2.84079H2.84088H2.84097H2.84105H2.84114H2.84123H2.84132H2.84141H2.8415H2.84159H2.84168H2.84177H2.84186H2.84195H2.84204H2.84213H2.84223H2.84232H2.84241H2.8425H2.8426H2.84269H2.84279H2.84288H2.84297H2.84307H2.84316H2.84326H2.84336H2.84345H2.84355H2.84365H2.84374H2.84384H2.84394H2.84404H2.84414H2.84424H2.84434H2.84444H2.84454H2.84464H2.84474H2.84484H2.84494H2.84504H2.84515H2.84525H2.84535H2.84546H2.84556H2.84566H2.84577H2.84587H2.84598H2.84609H2.84619H2.8463H2.84641H2.84651H2.84662H2.84673H2.84684H2.84695H2.84706H2.84717H2.84728H2.84739H2.8475H2.84761H2.84773H2.84784H2.84795H2.84807H2.84818H2.84829H2.84841H2.84852H2.84864H2.84876H2.84887H2.84899H2.84911H2.84923H2.84934H2.84946H2.84958H2.8497H2.84982H2.84994H2.85007H2.85019H2.85031H2.85043H2.85056H2.85068H2.8508H2.85093H2.85105H2.85118H2.8513H2.85143H2.85156H2.85169H2.85181H2.85194H2.85207H2.8522H2.85233H2.85246H2.85259H2.85273H2.85286H2.85299H2.85312H2.85326C3.28834 25.6249 3.62284 25.2509 3.65548 24.8227L3.65552 24.8227L3.65581 24.8179C3.89699 20.8149 7.4114 17.6499 11.6803 17.6499C15.9267 17.6499 19.4417 20.7906 19.7049 24.7945L19.7051 24.7977C19.7371 25.2177 20.0723 25.6413 20.5782 25.5988L20.5803 25.5986C21.0223 25.5583 21.3659 25.1619 21.3326 24.6801C21.0243 19.7626 16.7678 15.9249 11.6803 15.9249C6.59266 15.9249 2.33678 19.7626 2.02801 24.7041C1.99549 25.1445 2.29941 25.5832 2.78238 25.6238Z" fill="#8289AD" stroke="#8289AD" stroke-width="0.6"/>
<path d="M5.51396 6.79351C5.51396 10.1092 8.19828 12.7935 11.514 12.7935C14.8296 12.7935 17.514 10.1092 17.514 6.79351C17.514 3.47782 14.8296 0.793506 11.514 0.793506C8.19828 0.793506 5.51396 3.47782 5.51396 6.79351ZM7.26396 6.79351C7.26396 4.45919 9.17965 2.54351 11.514 2.54351C13.8483 2.54351 15.764 4.45919 15.764 6.79351C15.764 9.12782 13.8483 11.0435 11.514 11.0435C9.17965 11.0435 7.26396 9.12782 7.26396 6.79351Z" fill="#8289AD" stroke="#8289AD" stroke-width="0.6"/>
</svg>
