<svg width="26" height="26" viewBox="0 0 26 26" fill="none" xmlns="http://www.w3.org/2000/svg">
<g id="schedule 1" clip-path="url(#clip0_8517_685)">
<path id="Vector" d="M11.0195 26H6.09375C2.73366 26 0 23.2663 0 19.9062V6.09375C0 2.73366 2.73366 0 6.09375 0H15.4375C18.7976 0 21.5312 2.73366 21.5312 6.09375V9.39453C21.4776 10.7421 19.5532 10.741 19.5 9.39453V6.09375C19.5 3.85369 17.6776 2.03125 15.4375 2.03125H6.09375C3.85369 2.03125 2.03125 3.85369 2.03125 6.09375V19.9062C2.03125 22.1463 3.85369 23.9688 6.09375 23.9688H11.0195C12.3671 24.0224 12.366 25.9468 11.0195 26ZM16.25 4.97656C16.1964 3.62918 14.272 3.62989 14.2188 4.97656C14.2188 5.81659 13.5353 6.5 12.6953 6.5H8.83594C7.99591 6.5 7.3125 5.81659 7.3125 4.97656C7.3125 4.41563 6.8578 3.96094 6.29688 3.96094C5.73595 3.96094 5.28125 4.41563 5.28125 4.97656C5.28125 6.93662 6.87588 8.53125 8.83594 8.53125H12.6953C14.6554 8.53125 16.25 6.93662 16.25 4.97656ZM26 19.1445C26 15.3644 22.9246 12.2891 19.1445 12.2891C10.0494 12.6657 10.0529 25.6251 19.1445 26C22.9246 26 26 22.9246 26 19.1445ZM23.9688 19.1445C23.9688 21.8046 21.8046 23.9688 19.1445 23.9688C12.7443 23.7037 12.7468 14.5841 19.1445 14.3203C21.8046 14.3203 23.9688 16.4845 23.9688 19.1445ZM20.8704 20.1602H19.1445C18.5836 20.1602 18.1289 19.7055 18.1289 19.1445V17.0625C18.1825 15.715 20.107 15.716 20.1602 17.0625V18.1289H20.8704C22.218 18.1825 22.2169 20.107 20.8704 20.1602ZM13.3555 12.0859C13.3555 11.525 12.9008 11.0703 12.3398 11.0703H6.60156C5.25403 11.1239 5.25505 13.0484 6.60156 13.1016H12.3398C12.9008 13.1016 13.3555 12.6469 13.3555 12.0859ZM10.8164 16.1484C10.8164 15.5875 10.3617 15.1328 9.80078 15.1328H6.60156C5.25403 15.1864 5.25505 17.1109 6.60156 17.1641H9.80078C10.3617 17.1641 10.8164 16.7094 10.8164 16.1484ZM10.3086 20.2109C10.3086 19.65 9.8539 19.1953 9.29297 19.1953H6.60156C5.25403 19.2489 5.25505 21.1734 6.60156 21.2266H9.29297C9.8539 21.2266 10.3086 20.7719 10.3086 20.2109Z" fill="#8289AD"/>
</g>
<defs>
<clipPath id="clip0_8517_685">
<rect width="26" height="26" fill="white"/>
</clipPath>
</defs>
</svg>
