<svg width="131" height="131" viewBox="0 0 131 131" fill="none" xmlns="http://www.w3.org/2000/svg">
<g filter="url(#filter0_ii_7399_1865)">
<path fill-rule="evenodd" clip-rule="evenodd" d="M23.4224 10.916C22.2442 10.916 21.2891 11.8711 21.2891 13.0493V117.949C21.2891 119.128 22.2442 120.083 23.4224 120.083H107.581C108.759 120.083 109.714 119.128 109.714 117.949L109.714 38.2077L82.4224 10.916H23.4224Z" fill="#0263D1"/>
</g>
<path d="M35 81.777V62.223H41.9489C43.3386 62.223 44.6327 62.43 45.8307 62.8122C47.0288 63.2102 48.115 63.7835 49.0896 64.5479C50.064 65.3122 50.8308 66.3314 51.3899 67.6052C51.949 68.879 52.2366 70.344 52.2366 72C52.2366 73.656 51.949 75.121 51.3899 76.3948C50.8308 77.6686 50.064 78.6878 49.0896 79.4521C48.1152 80.2164 47.0288 80.7896 45.8307 81.1878C44.6327 81.57 43.3388 81.777 41.9489 81.777H35ZM39.9041 77.5255H41.3578C42.1405 77.5255 42.8754 77.43 43.5303 77.2548C44.2012 77.0637 44.8081 76.7612 45.3832 76.363C45.9583 75.9648 46.4055 75.3917 46.725 74.6433C47.0605 73.9108 47.2202 73.019 47.2202 72C47.2202 70.981 47.0604 70.0892 46.725 69.3408C46.4055 68.6083 45.9583 68.035 45.3832 67.637C44.8081 67.223 44.2012 66.9364 43.5303 66.7452C42.8754 66.57 42.1405 66.4745 41.3578 66.4745H39.9041V77.5255ZM64.1374 82C61.1822 82 58.7381 81.0445 56.8052 79.1497C54.8723 77.2548 53.9138 74.8662 53.9138 72.0002C53.9138 69.1339 54.8723 66.7454 56.8052 64.8506C58.7381 62.9556 61.1822 62.0003 64.1374 62.0003C67.0447 62.0003 69.4568 62.9558 71.3898 64.8506C73.3066 66.7455 74.2652 69.1341 74.2652 72.0002C74.2652 74.8662 73.3066 77.2549 71.3898 79.1497C69.4568 81.0445 67.0447 82 64.1374 82ZM60.3674 76.1242C61.3418 77.207 62.5878 77.7485 64.1053 77.7485C65.6229 77.7485 66.8529 77.207 67.8274 76.1242C68.8018 75.0255 69.2811 73.656 69.2811 72C69.2811 70.344 68.8018 68.9745 67.8274 67.8758C66.853 66.793 65.6229 66.2515 64.1053 66.2515C62.5878 66.2515 61.3418 66.793 60.3674 67.8758C59.393 68.9745 58.8977 70.344 58.8977 72C58.8977 73.656 59.393 75.0255 60.3674 76.1242ZM85.9264 82C83.067 82 80.6867 81.1083 78.8019 79.3567C76.9009 77.5892 75.9585 75.137 75.9585 72C75.9585 68.879 76.917 66.4267 78.8339 64.6592C80.7668 62.8917 83.1151 62 85.9266 62C88.4664 62 90.5431 62.621 92.1885 63.879C93.8179 65.121 94.7604 66.777 95 68.8471L90.048 69.8503C89.8403 68.7675 89.345 67.8917 88.5783 67.2388C87.8116 66.5858 86.917 66.2515 85.8945 66.2515C84.4888 66.2515 83.3226 66.7452 82.3801 67.7483C81.4376 68.7674 80.9583 70.1686 80.9583 71.9999C80.9583 73.8311 81.4376 75.2323 82.3641 76.2356C83.3066 77.2546 84.4728 77.7483 85.8944 77.7483C86.9167 77.7483 87.7954 77.4618 88.5142 76.8885C89.233 76.3153 89.6804 75.551 89.872 74.5955L94.9359 75.742C94.4727 77.7165 93.4502 79.2452 91.8528 80.3438C90.2715 81.4427 88.2907 82 85.9264 82Z" fill="white"/>
<path d="M107.153 35.6494L84.9805 35.6494L109.714 60.3825L109.714 38.208L107.153 35.6494Z" fill="url(#paint0_linear_7399_1865)"/>
<path d="M84.5526 38.208L109.711 38.208L82.4193 10.9163L82.4193 36.0747C82.4193 37.2529 83.3744 38.208 84.5526 38.208Z" fill="#4E92DF"/>
<defs>
<filter id="filter0_ii_7399_1865" x="21.2891" y="10.7827" width="88.4258" height="109.434" filterUnits="userSpaceOnUse" color-interpolation-filters="sRGB">
<feFlood flood-opacity="0" result="BackgroundImageFix"/>
<feBlend mode="normal" in="SourceGraphic" in2="BackgroundImageFix" result="shape"/>
<feColorMatrix in="SourceAlpha" type="matrix" values="0 0 0 0 0 0 0 0 0 0 0 0 0 0 0 0 0 0 127 0" result="hardAlpha"/>
<feOffset dy="-0.266667"/>
<feGaussianBlur stdDeviation="0.0666667"/>
<feComposite in2="hardAlpha" operator="arithmetic" k2="-1" k3="1"/>
<feColorMatrix type="matrix" values="0 0 0 0 0 0 0 0 0 0 0 0 0 0 0 0 0 0 0.3 0"/>
<feBlend mode="normal" in2="shape" result="effect1_innerShadow_7399_1865"/>
<feColorMatrix in="SourceAlpha" type="matrix" values="0 0 0 0 0 0 0 0 0 0 0 0 0 0 0 0 0 0 127 0" result="hardAlpha"/>
<feOffset dy="0.266667"/>
<feGaussianBlur stdDeviation="0.0666667"/>
<feComposite in2="hardAlpha" operator="arithmetic" k2="-1" k3="1"/>
<feColorMatrix type="matrix" values="0 0 0 0 1 0 0 0 0 1 0 0 0 0 1 0 0 0 0.3 0"/>
<feBlend mode="normal" in2="effect1_innerShadow_7399_1865" result="effect2_innerShadow_7399_1865"/>
</filter>
<linearGradient id="paint0_linear_7399_1865" x1="90.5241" y1="30.1058" x2="115.257" y2="54.8389" gradientUnits="userSpaceOnUse">
<stop stop-opacity="0.2"/>
<stop offset="1" stop-opacity="0"/>
</linearGradient>
</defs>
</svg>
