<svg width="16" height="17" viewBox="0 0 16 17" fill="none" xmlns="http://www.w3.org/2000/svg">
<g id="edit 1">
<path id="Vector" d="M2.15277 9.66734C2.05215 9.76857 1.98671 9.89945 1.9661 10.0407L1.33944 14.4073C1.32398 14.5098 1.3328 14.6145 1.36519 14.713C1.39758 14.8114 1.45264 14.9009 1.52593 14.9742C1.59922 15.0475 1.68869 15.1025 1.78714 15.1349C1.8856 15.1673 1.99028 15.1761 2.09277 15.1607L6.45944 14.534C6.60067 14.5134 6.73154 14.448 6.83277 14.3473L11.9794 9.20734L7.29277 4.52734L2.15277 9.66734Z" fill="white"/>
<path id="Vector_2" d="M9.01357 2.80605L8.24023 3.57939L12.9202 8.25939L13.7002 7.48605C16.7888 4.38139 12.1044 -0.284749 9.01357 2.80605Z" fill="white"/>
</g>
</svg>
