<svg width="26" height="26" viewBox="0 0 26 26" fill="none" xmlns="http://www.w3.org/2000/svg">
<g id="depression 1" clip-path="url(#clip0_8517_630)">
<g id="Depression">
<g id="Group">
<path id="Vector" d="M11.1719 26C8.18771 26 5.38225 24.8379 3.27219 22.7278C1.16213 20.6177 0 17.8122 0 14.8281C0 12.2972 0.869984 9.81784 2.44959 7.84661C4.00481 5.9059 6.18719 4.52389 8.59463 3.95519C9.14078 3.82616 9.68754 4.16426 9.81652 4.71011C9.94551 5.25601 9.60751 5.80307 9.06161 5.93201C4.92223 6.9099 2.03125 10.5681 2.03125 14.8281C2.03125 19.8683 6.13173 23.9687 11.1719 23.9687C16.212 23.9687 20.3125 19.8683 20.3125 14.8281C20.3125 14.3374 20.2733 13.8448 20.1961 13.3643C20.1071 12.8105 20.4838 12.2894 21.0377 12.2003C21.5912 12.1113 22.1125 12.4881 22.2016 13.0419C22.2959 13.6288 22.3438 14.2297 22.3438 14.8281C22.3438 17.8122 21.1817 20.6177 19.0716 22.7278C16.9614 24.8379 14.156 26 11.1719 26Z" fill="#8289AD"/>
</g>
<g id="Group_2">
<path id="Vector_2" d="M22.9531 10.1562H15.8438C13.6037 10.1562 11.7812 8.33381 11.7812 6.09375C11.7812 5.12413 12.1285 4.18519 12.7591 3.44998C13.2765 2.8469 13.9578 2.41033 14.7124 2.19136C15.6552 0.829105 17.2167 0 18.8906 0C21.3952 0 23.4822 1.82284 23.8948 4.21139C25.1154 4.60891 26 5.75778 26 7.10938C26 8.78942 24.6332 10.1562 22.9531 10.1562ZM18.8906 2.03125C17.7918 2.03125 16.7737 2.62676 16.2336 3.58541C16.0823 3.85414 15.8169 4.0395 15.5126 4.08921C14.5274 4.25014 13.8125 5.09316 13.8125 6.09375C13.8125 7.21378 14.7237 8.125 15.8438 8.125H22.9531C23.5131 8.125 23.9688 7.66939 23.9688 7.10938C23.9688 6.54936 23.5131 6.09375 22.9531 6.09375C22.3922 6.09375 21.9375 5.63905 21.9375 5.07812C21.9375 3.39808 20.5707 2.03125 18.8906 2.03125Z" fill="#8289AD"/>
</g>
<g id="Group_3">
<path id="Vector_3" d="M7.10938 15.8438C5.42933 15.8438 4.0625 14.4769 4.0625 12.7969C4.0625 12.2359 4.5172 11.7812 5.07812 11.7812C5.63905 11.7812 6.09375 12.2359 6.09375 12.7969C6.09375 13.3569 6.54936 13.8125 7.10938 13.8125C7.66939 13.8125 8.125 13.3569 8.125 12.7969C8.125 12.2359 8.5797 11.7812 9.14062 11.7812C9.70155 11.7812 10.1562 12.2359 10.1562 12.7969C10.1562 14.4769 8.78942 15.8438 7.10938 15.8438Z" fill="#8289AD"/>
</g>
<g id="Group_4">
<path id="Vector_4" d="M15.2344 15.8438C13.5543 15.8438 12.1875 14.4769 12.1875 12.7969C12.1875 12.2359 12.6422 11.7812 13.2031 11.7812C13.7641 11.7812 14.2188 12.2359 14.2188 12.7969C14.2188 13.3569 14.6744 13.8125 15.2344 13.8125C15.7944 13.8125 16.25 13.3569 16.25 12.7969C16.25 12.2359 16.7047 11.7812 17.2656 11.7812C17.8266 11.7812 18.2812 12.2359 18.2812 12.7969C18.2812 14.4769 16.9144 15.8438 15.2344 15.8438Z" fill="#8289AD"/>
</g>
<g id="Group_5">
<path id="Vector_5" d="M13.3188 20.3774C13.3138 20.3674 12.5015 18.8906 11.1715 18.8906C9.84148 18.8906 9.02914 20.3674 9.02121 20.3823C8.75639 20.8743 8.1395 21.0597 7.64951 20.7999C7.15658 20.5381 6.96615 19.9301 7.22503 19.4352C7.28059 19.33 8.60364 16.8594 11.1715 16.8594C13.7394 16.8594 15.0624 19.33 15.118 19.4352C15.3788 19.932 15.1864 20.546 14.6895 20.8058C14.2062 21.0619 13.5841 20.8834 13.3188 20.3774Z" fill="#8289AD"/>
</g>
</g>
</g>
<defs>
<clipPath id="clip0_8517_630">
<rect width="26" height="26" fill="white"/>
</clipPath>
</defs>
</svg>
