<svg width="20" height="20" viewBox="0 0 20 20" fill="none" xmlns="http://www.w3.org/2000/svg">
<g id="eye 1">
<g id="Group">
<g id="Group_2">
<path id="Vector" d="M10 3.33301C5.72427 3.33301 2.00024 6.01851 0 9.99976C2.00024 13.9817 5.72427 16.6665 10 16.6665C14.2757 16.6665 17.9998 13.9817 20 9.99976C17.9998 6.01851 14.2757 3.33301 10 3.33301ZM10 14.1665C7.69849 14.1665 5.83325 12.3013 5.83325 9.99976C5.83325 7.69824 7.69849 5.83301 10 5.83301C12.3015 5.83301 14.1667 7.69824 14.1667 9.99976C14.1667 12.3013 12.3015 14.1665 10 14.1665Z" fill="white"/>
</g>
</g>
<g id="Group_3">
<g id="Group_4">
<path id="Vector_2" d="M10 12.5C11.3807 12.5 12.5 11.3807 12.5 10C12.5 8.61929 11.3807 7.5 10 7.5C8.61929 7.5 7.5 8.61929 7.5 10C7.5 11.3807 8.61929 12.5 10 12.5Z" fill="white"/>
</g>
</g>
</g>
</svg>
