<svg width="22" height="21" viewBox="0 0 22 21" fill="none" xmlns="http://www.w3.org/2000/svg">
<g id="eye 1">
<g id="Group">
<g id="Group_2">
<path id="Vector" d="M11 4.33301C6.72427 4.33301 3.00024 7.01851 1 10.9998C3.00024 14.9817 6.72427 17.6665 11 17.6665C15.2757 17.6665 18.9998 14.9817 21 10.9998C18.9998 7.01851 15.2757 4.33301 11 4.33301ZM11 15.1665C8.69849 15.1665 6.83325 13.3013 6.83325 10.9998C6.83325 8.69824 8.69849 6.83301 11 6.83301C13.3015 6.83301 15.1667 8.69824 15.1667 10.9998C15.1667 13.3013 13.3015 15.1665 11 15.1665Z" fill="white"/>
</g>
</g>
<g id="Group_3">
<g id="Group_4">
<path id="Vector_2" d="M11 13.5C12.3807 13.5 13.5 12.3807 13.5 11C13.5 9.61929 12.3807 8.5 11 8.5C9.61929 8.5 8.5 9.61929 8.5 11C8.5 12.3807 9.61929 13.5 11 13.5Z" fill="white"/>
</g>
</g>
<path id="Vector 70" d="M2 20L20.5 2" stroke="#0F0F0F" stroke-width="2" stroke-linecap="round"/>
<path id="Vector 71" d="M1 19L19.5 1" stroke="white" stroke-width="2" stroke-linecap="round"/>
</g>
</svg>
