<svg width="20" height="20" viewBox="0 0 20 20" fill="none" xmlns="http://www.w3.org/2000/svg">
<path d="M10.7812 12.3438C10.7812 11.0514 9.72984 10 8.4375 10C8.00672 10 7.65625 9.64953 7.65625 9.21875C7.65625 8.78797 8.00672 8.4375 8.4375 8.4375C8.71563 8.4375 8.97516 8.58738 9.11473 8.82871C9.33078 9.20223 9.80871 9.3298 10.1822 9.11375C10.5557 8.8977 10.6833 8.41977 10.4672 8.04629C10.1845 7.5575 9.73691 7.19422 9.21875 7.0102V6.09375C9.21875 5.66227 8.86898 5.3125 8.4375 5.3125C8.00602 5.3125 7.65625 5.66227 7.65625 6.09375V7.00938C6.74695 7.33188 6.09375 8.20027 6.09375 9.21875C6.09375 10.5111 7.14516 11.5625 8.4375 11.5625C8.86828 11.5625 9.21875 11.913 9.21875 12.3438C9.21875 12.7745 8.86828 13.125 8.4375 13.125C8.15937 13.125 7.89984 12.9751 7.76027 12.7338C7.54422 12.3603 7.06625 12.2327 6.69281 12.4487C6.3193 12.6648 6.19172 13.1427 6.40777 13.5162C6.69055 14.005 7.13809 14.3683 7.65625 14.5523V15.4688C7.65625 15.9002 8.00602 16.25 8.4375 16.25C8.86898 16.25 9.21875 15.9002 9.21875 15.4688V14.5531C10.128 14.2306 10.7812 13.3622 10.7812 12.3438Z" fill="#8289AD"/>
<path d="M14.6875 10.625C15.119 10.625 15.4688 10.2752 15.4688 9.84375V0.78125C15.4688 0.349766 15.119 0 14.6875 0C14.256 0 13.9062 0.349766 13.9062 0.78125C13.9062 1.21203 13.5558 1.5625 13.125 1.5625C12.6942 1.5625 12.3438 1.21203 12.3438 0.78125C12.3438 0.349766 11.994 0 11.5625 0C11.131 0 10.7812 0.349766 10.7812 0.78125C10.7812 1.21203 10.4308 1.5625 10 1.5625C9.56922 1.5625 9.21875 1.21203 9.21875 0.78125C9.21875 0.349766 8.86898 0 8.4375 0C8.00602 0 7.65625 0.349766 7.65625 0.78125C7.65625 1.21203 7.30578 1.5625 6.875 1.5625C6.44422 1.5625 6.09375 1.21203 6.09375 0.78125C6.09375 0.349766 5.74398 0 5.3125 0C4.88102 0 4.53125 0.349766 4.53125 0.78125C4.53125 1.21203 4.18078 1.5625 3.75 1.5625C3.31922 1.5625 2.96875 1.21203 2.96875 0.78125C2.96875 0.349766 2.61898 0 2.1875 0C1.75602 0 1.40625 0.349766 1.40625 0.78125V16.0938C1.40625 18.2477 3.15859 20 5.3125 20H16.25C17.5423 20 18.5938 18.9486 18.5938 17.6562V12.9688C18.5938 12.5373 18.244 12.1875 17.8125 12.1875C17.381 12.1875 17.0312 12.5373 17.0312 12.9688C17.0312 13.3995 16.6808 13.75 16.25 13.75C15.8192 13.75 15.4688 13.3995 15.4688 12.9688C15.4688 12.5373 15.119 12.1875 14.6875 12.1875C14.256 12.1875 13.9062 12.5373 13.9062 12.9688V17.6562C13.9062 17.9278 13.9555 18.199 14.0401 18.4375H5.3125C4.02016 18.4375 2.96875 17.3861 2.96875 16.0938V2.99113C3.2132 3.07781 3.47621 3.125 3.75 3.125C4.34973 3.125 4.89754 2.89859 5.3125 2.52676C5.72746 2.89859 6.27527 3.125 6.875 3.125C7.4748 3.125 8.0225 2.89824 8.4375 2.52629C8.8525 2.89824 9.4002 3.125 10 3.125C10.5998 3.125 11.1475 2.89824 11.5625 2.52629C11.9775 2.89824 12.5252 3.125 13.125 3.125C13.3989 3.125 13.6617 3.07734 13.9062 2.99062V9.84375C13.9062 10.2752 14.256 10.625 14.6875 10.625ZM15.4688 15.1786C15.7132 15.2653 15.9762 15.3125 16.25 15.3125C16.5239 15.3125 16.7867 15.2648 17.0312 15.1781V17.6562C17.0312 18.087 16.6808 18.4375 16.25 18.4375C15.8192 18.4375 15.4688 18.087 15.4688 17.6562V15.1786Z" fill="#8289AD"/>
</svg>
