<svg width="19" height="19" viewBox="0 0 19 19" fill="none" xmlns="http://www.w3.org/2000/svg">
<g clip-path="url(#clip0_1510_3302)">
<path d="M3.71094 16.0312H5.19531C5.60522 16.0312 5.9375 15.699 5.9375 15.2891C5.9375 14.8792 5.60522 14.5469 5.19531 14.5469H3.71094C3.30103 14.5469 2.96875 14.8792 2.96875 15.2891C2.96875 15.699 3.30103 16.0312 3.71094 16.0312Z" fill="#0A0B20"/>
<path d="M15.2891 8.60938H8.8317C8.48684 6.91763 6.98736 5.64062 5.19531 5.64062H3.71094C1.66569 5.64062 0 7.30628 0 9.35156V15.2891C0 17.3353 1.66469 19 3.71094 19H15.2891C17.3353 19 19 17.3353 19 15.2891V12.3203C19 10.2741 17.3353 8.60938 15.2891 8.60938ZM17.5156 15.2891C17.5156 16.5168 16.5168 17.5156 15.2891 17.5156H3.71094C2.48321 17.5156 1.48438 16.5168 1.48438 15.2891V9.35156C1.48438 8.17471 2.45159 7.125 3.71094 7.125H5.19531C6.42304 7.125 7.42188 8.12384 7.42188 9.35156C7.42188 9.76147 7.75415 10.0938 8.16406 10.0938H15.2891C16.5168 10.0938 17.5156 11.0926 17.5156 12.3203V15.2891Z" fill="#0A0B20"/>
<path d="M15.4375 7.125C15.8474 7.125 16.1797 6.79272 16.1797 6.38281V2.22656C16.1797 0.998836 15.1809 0 13.9531 0H5.04688C3.81915 0 2.82031 0.998836 2.82031 2.22656V3.41406C2.82031 3.82397 3.15259 4.15625 3.5625 4.15625C3.97241 4.15625 4.30469 3.82397 4.30469 3.41406V2.22656C4.30469 1.81732 4.63763 1.48438 5.04688 1.48438H13.9531C14.3624 1.48438 14.6953 1.81732 14.6953 2.22656V6.38281C14.6953 6.79272 15.0276 7.125 15.4375 7.125Z" fill="#0A0B20"/>
</g>
<defs>
<clipPath id="clip0_1510_3302">
<rect width="19" height="19" fill="white"/>
</clipPath>
</defs>
</svg>
