<svg width="52" height="52" viewBox="0 0 52 52" fill="none" xmlns="http://www.w3.org/2000/svg">
<g id="folder 1" clip-path="url(#clip0_2686_6697)">
<path id="Vector" d="M51.395 24.2216C50.6047 22.9473 49.2083 22.1855 47.6594 22.1855H13.1726C11.4631 22.1855 9.9083 23.1492 9.21045 24.6413L0.0888672 43.7664C0.433228 45.1668 1.74124 46.213 3.2992 46.213H39.9907C41.5593 46.213 42.9931 45.3259 43.6937 43.9223L51.5779 28.1198C52.2004 26.8693 52.1313 25.4121 51.395 24.2216Z" fill="white"/>
<path id="Vector_2" d="M7.35337 21.6995C8.05042 20.2078 9.6056 19.2437 11.3155 19.2437H43.7905V15.09C43.7905 13.3777 42.346 11.9844 40.5707 11.9844H21.6348C21.607 11.9844 21.588 11.9772 21.5809 11.9721L18.1916 7.23316C17.5913 6.39249 16.5999 5.89062 15.5407 5.89062H3.22064C1.44449 5.89062 0 7.28394 0 8.99622V37.1163L7.35337 21.6995Z" fill="white"/>
</g>
<defs>
<clipPath id="clip0_2686_6697">
<rect width="52" height="52" fill="white"/>
</clipPath>
</defs>
</svg>
