<svg width="20" height="20" viewBox="0 0 20 20" fill="none" xmlns="http://www.w3.org/2000/svg">
<g id="back 1">
<path id="Vector" d="M1.66669 9.16669H16.3217L11.9109 4.75586C11.8313 4.67899 11.7678 4.58703 11.7241 4.48536C11.6804 4.38369 11.6574 4.27434 11.6565 4.16369C11.6555 4.05305 11.6766 3.94331 11.7185 3.8409C11.7604 3.73848 11.8223 3.64544 11.9005 3.5672C11.9788 3.48895 12.0718 3.42708 12.1742 3.38518C12.2766 3.34327 12.3864 3.32219 12.497 3.32315C12.6077 3.32411 12.717 3.3471 12.8187 3.39078C12.9204 3.43445 13.0123 3.49794 13.0892 3.57753L18.9225 9.41086C19.0787 9.56713 19.1665 9.77906 19.1665 10C19.1665 10.221 19.0787 10.4329 18.9225 10.5892L13.0892 16.4225C12.932 16.5743 12.7215 16.6583 12.503 16.6564C12.2845 16.6545 12.0755 16.5669 11.921 16.4124C11.7665 16.2579 11.6789 16.0489 11.677 15.8304C11.6751 15.6119 11.7591 15.4014 11.9109 15.2442L16.3217 10.8334H1.66669C1.44567 10.8334 1.23371 10.7456 1.07743 10.5893C0.921148 10.433 0.833351 10.221 0.833351 10C0.833351 9.77901 0.921148 9.56705 1.07743 9.41077C1.23371 9.25449 1.44567 9.16669 1.66669 9.16669Z" fill="white"/>
</g>
</svg>
