<svg width="21" height="21" viewBox="0 0 21 21" fill="none" xmlns="http://www.w3.org/2000/svg">
<path d="M12.1406 8.85938C12.1406 5.69313 9.56468 3.11719 6.39844 3.11719C3.2322 3.11719 0.65625 5.69313 0.65625 8.85938C0.65625 12.0256 3.2322 14.6016 6.39844 14.6016C9.56468 14.6016 12.1406 12.0256 12.1406 8.85938ZM6.39844 12.9609C4.1368 12.9609 2.29688 11.121 2.29688 8.85938C2.29688 6.59777 4.1368 4.75781 6.39844 4.75781C8.66008 4.75781 10.5 6.59777 10.5 8.85938C10.5 11.121 8.66004 12.9609 6.39844 12.9609Z" fill="#8289AD"/>
<path d="M12.9105 12.6416C12.4929 12.8174 12.297 13.2984 12.4728 13.7159C12.6479 14.132 13.1283 14.33 13.5471 14.1536C15.6826 13.2545 17.0625 11.1763 17.0625 8.85939C17.0625 6.54246 15.6826 4.46432 13.5471 3.56518C13.1295 3.38934 12.6486 3.58536 12.4728 4.00285C12.297 4.42039 12.4929 4.90142 12.9105 5.07722C14.4361 5.7196 15.4219 7.20421 15.4219 8.85939C15.4219 10.5146 14.4361 11.9992 12.9105 12.6416Z" fill="#8289AD"/>
<path d="M6.39844 21C6.8515 21 7.21875 20.6327 7.21875 20.1797V19.3594H8.03906C8.49212 19.3594 8.85938 18.9921 8.85938 18.5391C8.85938 18.086 8.49212 17.7188 8.03906 17.7188H7.21875V16.8984C7.21875 16.4454 6.8515 16.0781 6.39844 16.0781C5.94538 16.0781 5.57812 16.4454 5.57812 16.8984V17.7188H4.75781C4.30475 17.7188 3.9375 18.086 3.9375 18.5391C3.9375 18.9921 4.30475 19.3594 4.75781 19.3594H5.57812V20.1797C5.57812 20.6327 5.94538 21 6.39844 21Z" fill="#8289AD"/>
<path d="M19.5234 4.92188C19.9765 4.92188 20.3438 4.55462 20.3438 4.10156V0.820312C20.3438 0.819082 20.3436 0.817934 20.3436 0.816703C20.3415 0.362742 19.9697 0 19.5234 0H16.2422C15.7891 0 15.4219 0.367254 15.4219 0.820312C15.4219 1.27337 15.7891 1.64062 16.2422 1.64062H17.543L16.5379 2.64571C16.2175 2.96609 16.2175 3.48547 16.5379 3.8058C16.8582 4.12613 17.3777 4.12617 17.698 3.8058L18.7031 2.80075V4.10156C18.7031 4.55462 19.0704 4.92188 19.5234 4.92188Z" fill="#8289AD"/>
</svg>
