<svg width="22" height="22" viewBox="0 0 22 22" fill="none" xmlns="http://www.w3.org/2000/svg">
<g id="back 1">
<path id="Vector" d="M11.9168 20.1668L11.9168 4.0463L16.7687 8.89821C16.8533 8.98576 16.9544 9.0556 17.0663 9.10364C17.1781 9.15168 17.2984 9.17697 17.4201 9.17803C17.5418 9.17908 17.6625 9.15589 17.7752 9.1098C17.8878 9.06371 17.9902 8.99564 18.0762 8.90957C18.1623 8.82351 18.2304 8.72116 18.2765 8.6085C18.3226 8.49585 18.3457 8.37514 18.3447 8.25343C18.3436 8.13171 18.3183 8.01143 18.2703 7.89959C18.2223 7.78776 18.1524 7.68661 18.0649 7.60205L11.6482 1.18538C11.4763 1.01353 11.2432 0.916992 11.0001 0.916992C10.7571 0.916992 10.5239 1.01353 10.352 1.18538L3.93538 7.60205C3.7684 7.77493 3.67601 8.00648 3.67809 8.24683C3.68018 8.48718 3.77659 8.71709 3.94655 8.88705C4.1165 9.057 4.34641 9.15341 4.58676 9.1555C4.82711 9.15758 5.05866 9.06519 5.23155 8.89821L10.0835 4.0463L10.0835 20.1668C10.0835 20.4099 10.18 20.6431 10.3519 20.815C10.5239 20.9869 10.757 21.0835 11.0001 21.0835C11.2432 21.0835 11.4764 20.9869 11.6483 20.815C11.8202 20.6431 11.9168 20.4099 11.9168 20.1668Z" fill="#0A0B20"/>
</g>
</svg>
