<svg width="49" height="49" viewBox="0 0 49 49" fill="none" xmlns="http://www.w3.org/2000/svg">
<g id="first-aid 1">
<g id="Group">
<path id="Vector" fill-rule="evenodd" clip-rule="evenodd" d="M21.2719 23.5587V18.6199H28.5441V23.5587H33.4833V30.8309H28.5441V35.7699H21.2719V30.8309H16.3333V23.5587H21.2719ZM22.5552 19.9032H27.2608V24.8421H32.1999V29.5476H27.2608V34.4865H22.5552V29.5476H17.6166V24.8421H22.5552V19.9032Z" fill="#8289AD"/>
<path id="Vector_2" fill-rule="evenodd" clip-rule="evenodd" d="M15.3805 6.15217V10.2899H9.74547C6.76867 10.2899 4.35547 12.7031 4.35547 15.6799V38.2199C4.35547 41.1967 6.76867 43.6099 9.74547 43.6099H40.1255C43.1023 43.6099 45.5155 41.1967 45.5155 38.2199V15.6799C45.5155 12.7031 43.1023 10.2899 40.1255 10.2899H34.0005V6.15217C34.0005 4.12254 32.3551 2.47717 30.3255 2.47717H19.0555C17.0258 2.47717 15.3805 4.12254 15.3805 6.15217ZM19.0555 3.94717C17.8377 3.94717 16.8505 4.93438 16.8505 6.15217V10.2899H32.5305V6.15217C32.5305 4.93438 31.5433 3.94717 30.3255 3.94717H19.0555ZM9.74547 11.7599H40.1255C42.2904 11.7599 44.0455 13.515 44.0455 15.6799V38.2199C44.0455 40.3849 42.2904 42.1399 40.1255 42.1399H9.74547C7.5805 42.1399 5.82547 40.3849 5.82547 38.2199V15.6799C5.82547 13.515 7.5805 11.7599 9.74547 11.7599Z" fill="#8289AD"/>
</g>
</g>
</svg>
