<svg width="20" height="20" viewBox="0 0 20 20" fill="none" xmlns="http://www.w3.org/2000/svg">
<g clip-path="url(#clip0_1510_3111)">
<path d="M17.6562 11.5625C18.9486 11.5625 20 10.5111 20 9.21876C20 7.92642 18.9486 6.87501 17.6562 6.87501H16.906L19.2006 4.78067C20.1575 3.90739 20.225 2.42638 19.3517 1.46954C18.4785 0.51286 16.9973 0.445204 16.0406 1.31845L9.95273 6.87501H2.34375C1.05141 6.87501 0 7.92642 0 9.21876C0 10.2372 0.653203 11.1056 1.5625 11.4281V12.3438C1.5625 14.4737 2.80387 16.3992 4.70203 17.2931C4.83262 18.4626 5.82742 19.375 7.03125 19.375H12.9688C14.1724 19.375 15.1671 18.4629 15.2979 17.2936C16.6182 16.6746 17.6339 15.5592 18.1261 14.1666C18.2699 13.7598 18.0567 13.3134 17.6499 13.1697C17.2432 13.0259 16.7967 13.2391 16.653 13.6459C16.2634 14.7479 15.3729 15.6384 14.2709 16.0279C13.9587 16.1383 13.75 16.4334 13.75 16.7645V17.0313C13.75 17.462 13.3995 17.8125 12.9688 17.8125H7.03125C6.60047 17.8125 6.25 17.462 6.25 17.0313V16.7645C6.25 16.4334 6.04129 16.1383 5.7291 16.0279C4.17152 15.4774 3.125 13.9968 3.125 12.3438V11.5625H17.6562ZM18.1977 2.5229C18.4887 2.84184 18.4662 3.33544 18.1473 3.62657L14.5883 6.87501H12.2705L17.0939 2.47251C17.4136 2.18079 17.9071 2.20454 18.1977 2.5229ZM2.34375 8.43751H17.6562C18.087 8.43751 18.4375 8.78798 18.4375 9.21876C18.4375 9.64954 18.087 10 17.6562 10H2.34375C1.91297 10 1.5625 9.64954 1.5625 9.21876C1.5625 8.78798 1.91297 8.43751 2.34375 8.43751Z" fill="#8289AD"/>
<path d="M10.1562 0.625H8.59375C7.31734 0.625 6.18203 1.24043 5.46875 2.19008C4.75547 1.24043 3.62016 0.625 2.34375 0.625H0.78125C0.349766 0.625 0 0.974766 0 1.40625C0 3.56016 1.75234 5.3125 3.90625 5.3125H7.03125C9.18516 5.3125 10.9375 3.56016 10.9375 1.40625C10.9375 0.974766 10.5877 0.625 10.1562 0.625ZM3.90625 3.75C2.8877 3.75 2.01883 3.09691 1.69637 2.1875H2.34375C3.3623 2.1875 4.23117 2.84059 4.55363 3.75H3.90625ZM7.03125 3.75H6.38387C6.70629 2.84059 7.5752 2.1875 8.59375 2.1875H9.24113C8.91867 3.09691 8.0498 3.75 7.03125 3.75Z" fill="#8289AD"/>
</g>
<defs>
<clipPath id="clip0_1510_3111">
<rect width="20" height="20" fill="white"/>
</clipPath>
</defs>
</svg>
