<svg width="33" height="33" viewBox="0 0 33 33" fill="none" xmlns="http://www.w3.org/2000/svg">
<g clip-path="url(#clip0_1473_573)">
<path d="M29.1317 16.7887C29.1317 14.6561 27.3967 12.9211 25.2641 12.9211C23.1315 12.9211 21.3965 14.6561 21.3965 16.7887C19.2639 16.7887 17.5289 18.5238 17.5289 20.6563C17.5289 22.7889 19.2639 24.524 21.3965 24.524C21.3965 26.6565 23.1315 28.3916 25.2641 28.3916C27.3967 28.3916 29.1317 26.6565 29.1317 24.524C31.2643 24.524 32.9993 22.7889 32.9993 20.6563C32.9993 18.5238 31.2643 16.7887 29.1317 16.7887ZM29.1317 21.9455H27.8425C27.1305 21.9455 26.5533 22.5227 26.5533 23.2347V24.524C26.5533 25.2348 25.975 25.8132 25.2641 25.8132C24.5533 25.8132 23.9749 25.2348 23.9749 24.524V23.2347C23.9749 22.5227 23.3978 21.9455 22.6857 21.9455H21.3965C20.6857 21.9455 20.1073 21.3672 20.1073 20.6563C20.1073 19.9455 20.6857 19.3671 21.3965 19.3671H22.6857C23.3978 19.3671 23.9749 18.79 23.9749 18.0779V16.7887C23.9749 16.0779 24.5533 15.4995 25.2641 15.4995C25.975 15.4995 26.5533 16.0779 26.5533 16.7887V18.0779C26.5533 18.79 27.1305 19.3671 27.8425 19.3671H29.1317C29.8426 19.3671 30.4209 19.9455 30.4209 20.6563C30.4209 21.3672 29.8426 21.9455 29.1317 21.9455Z" fill="#8289AD"/>
<path d="M17.5937 5.25073C17.5754 5.26904 17.5576 5.28792 17.5405 5.30726L16.4976 6.48411C16.4976 6.48411 15.4197 5.26904 15.4014 5.25073C11.8745 1.7238 6.16589 1.7238 2.63896 5.25073C-0.879654 8.76935 -0.879654 14.4946 2.63896 18.0132L13.784 29.1581C14.6082 29.9824 15.5528 30.3945 16.4976 30.3945C17.4423 30.3945 18.3869 29.9824 19.2112 29.1581L19.3313 29.038C19.8348 28.5345 19.8348 27.7182 19.3313 27.2148C18.8278 26.7113 18.0115 26.7113 17.5081 27.2148L17.3879 27.3349C16.7555 27.9674 16.2396 27.9674 15.6072 27.3349L4.46228 16.19C1.94898 13.6767 1.94898 9.58721 4.46228 7.07392C6.97093 4.5652 11.0292 4.55321 13.552 7.04781L15.5328 9.28296C15.7775 9.55905 16.1286 9.7171 16.4976 9.7171C16.8666 9.7171 17.2178 9.55905 17.4625 9.28296L19.4432 7.04781C21.9661 4.55314 26.0242 4.5652 28.533 7.07392C29.9165 8.45736 30.5914 10.3681 30.3848 12.3164C30.3097 13.0244 30.8229 13.6593 31.5309 13.7344C32.239 13.8093 32.8738 13.2964 32.9488 12.5883C33.238 9.86194 32.293 7.1875 30.3562 5.25073C26.8293 1.7238 21.1207 1.7238 17.5937 5.25073Z" fill="#8289AD"/>
</g>
<defs>
<clipPath id="clip0_1473_573">
<rect width="33" height="33" fill="white"/>
</clipPath>
</defs>
</svg>
