<svg width="43" height="43" viewBox="0 0 43 43" fill="none" xmlns="http://www.w3.org/2000/svg">
<path fill-rule="evenodd" clip-rule="evenodd" d="M9.12161 3.58398C7.94341 3.58398 6.98828 4.53911 6.98828 5.71732V37.284C6.98828 38.4622 7.94341 39.4173 9.12161 39.4173H33.8799C35.0582 39.4173 36.0133 38.4622 36.0133 37.284L36.0133 12.5423L27.0549 3.58398H9.12161Z" fill="#F6AD00"/>
<path d="M13.3855 29.5509L16.6506 24.7519C16.6924 24.6904 16.7472 24.6388 16.8112 24.6008C16.8751 24.5628 16.9466 24.5394 17.0206 24.5321C17.0946 24.5248 17.1693 24.5339 17.2395 24.5586C17.3096 24.5834 17.3734 24.6233 17.4264 24.6755L19.5842 26.7897L24.3187 19.3688C24.3656 19.2952 24.4307 19.2349 24.5077 19.1937C24.5846 19.1526 24.671 19.132 24.7582 19.1339C24.8455 19.1359 24.9308 19.1603 25.0059 19.2049C25.0809 19.2494 25.1433 19.3126 25.1868 19.3883L31.0693 29.5829C31.1139 29.6601 31.1375 29.7477 31.1375 29.8368C31.1376 29.926 31.1141 30.0136 31.0695 30.0909C31.0249 30.1681 30.9607 30.2322 30.8835 30.2767C30.8062 30.3213 30.7186 30.3447 30.6294 30.3446H13.8054C13.713 30.3448 13.6223 30.3197 13.543 30.2721C13.4638 30.2245 13.3991 30.1562 13.3558 30.0745C13.3126 29.9928 13.2925 29.9009 13.2977 29.8086C13.3029 29.7163 13.3332 29.6272 13.3853 29.5509H13.3855Z" fill="white"/>
<path d="M14.3633 18.6846C14.3633 19.3635 14.633 20.0145 15.113 20.4945C15.593 20.9746 16.2441 21.2442 16.9229 21.2442C17.6018 21.2442 18.2528 20.9746 18.7329 20.4945C19.2129 20.0145 19.4826 19.3635 19.4826 18.6846C19.4826 18.0058 19.2129 17.3547 18.7329 16.8747C18.2528 16.3947 17.6018 16.125 16.9229 16.125C16.2441 16.125 15.593 16.3947 15.113 16.8747C14.633 17.3547 14.3633 18.0058 14.3633 18.6846Z" fill="white"/>
<path d="M35.1725 11.7012L27.8945 11.7012L36.013 19.8197L36.013 12.541L35.1725 11.7012Z" fill="url(#paint0_linear_8517_1327)"/>
<path d="M29.1867 12.541L36.0117 12.541L27.0534 3.58268L27.0534 10.4077C27.0534 11.5859 28.0085 12.541 29.1867 12.541Z" fill="#FBDE99"/>
<defs>
<linearGradient id="paint0_linear_8517_1327" x1="29.7142" y1="9.88151" x2="37.8327" y2="18" gradientUnits="userSpaceOnUse">
<stop stop-opacity="0.2"/>
<stop offset="1" stop-opacity="0"/>
</linearGradient>
</defs>
</svg>
