<svg width="26" height="26" viewBox="0 0 26 26" fill="none" xmlns="http://www.w3.org/2000/svg">
<g id="paramecium 1" clip-path="url(#clip0_8517_646)">
<g id="Group">
<g id="Group_2">
<g id="Group_3">
<path id="Vector" d="M24.1719 11.9844C24.7328 11.9844 25.1875 11.5297 25.1875 10.9688C25.1875 10.4078 24.7328 9.95312 24.1719 9.95312C23.611 9.95312 23.1562 10.4078 23.1562 10.9688C23.1562 11.5297 23.611 11.9844 24.1719 11.9844Z" fill="#8289AD"/>
</g>
<g id="Group_4">
<path id="Vector_2" d="M1.82812 16.0469C2.38904 16.0469 2.84375 15.5922 2.84375 15.0312C2.84375 14.4703 2.38904 14.0156 1.82812 14.0156C1.26721 14.0156 0.8125 14.4703 0.8125 15.0312C0.8125 15.5922 1.26721 16.0469 1.82812 16.0469Z" fill="#8289AD"/>
</g>
<g id="Group_5">
<path id="Vector_3" d="M11.9844 18.0781C12.5453 18.0781 13 17.6234 13 17.0625C13 16.5016 12.5453 16.0469 11.9844 16.0469C11.4235 16.0469 10.9688 16.5016 10.9688 17.0625C10.9688 17.6234 11.4235 18.0781 11.9844 18.0781Z" fill="#8289AD"/>
</g>
<g id="Group_6">
<path id="Vector_4" d="M14.0156 14.0156C14.5765 14.0156 15.0312 13.5609 15.0312 13C15.0312 12.4391 14.5765 11.9844 14.0156 11.9844C13.4547 11.9844 13 12.4391 13 13C13 13.5609 13.4547 14.0156 14.0156 14.0156Z" fill="#8289AD"/>
</g>
<g id="Group_7">
<path id="Vector_5" d="M11.9844 9.95312C12.5453 9.95312 13 9.49841 13 8.9375C13 8.37659 12.5453 7.92188 11.9844 7.92188C11.4235 7.92188 10.9688 8.37659 10.9688 8.9375C10.9688 9.49841 11.4235 9.95312 11.9844 9.95312Z" fill="#8289AD"/>
</g>
</g>
<path id="Vector_6" d="M5.89062 11.9844C5.3297 11.9844 4.875 12.4391 4.875 13C4.875 13.5609 5.3297 14.0156 5.89062 14.0156H6.93037C6.96963 14.8471 7.05692 15.6599 7.18956 16.4413L6.04729 16.9141C5.52901 17.1286 5.28272 17.7227 5.49727 18.2409C5.71177 18.7593 6.30591 19.0054 6.82409 18.7909L7.65116 18.4486C7.90827 19.318 8.24114 20.1708 8.67435 20.9671L7.78197 21.8598C7.38537 22.2565 7.38542 22.8995 7.78212 23.2961C8.17878 23.6926 8.82187 23.6926 9.21842 23.2958L9.86212 22.6519C10.5063 23.3434 11.2228 23.8091 11.9844 24.0278V24.9844C11.9844 25.5453 12.4391 26 13 26C13.5609 26 14.0156 25.5453 14.0156 24.9844V24.0278C14.7738 23.8096 15.4903 23.3456 16.1373 22.6514L16.7816 23.2959C17.1782 23.6926 17.8212 23.6927 18.2179 23.2961C18.6146 22.8995 18.6146 22.2565 18.2181 21.8598L17.3256 20.9671C17.7291 20.2263 18.0738 19.3791 18.3487 18.4486L19.1759 18.791C19.694 19.0054 20.2882 18.7593 20.5027 18.241C20.7173 17.7227 20.471 17.1287 19.9527 16.9142L18.0439 16.1242C17.7662 16.0091 17.4516 16.0232 17.1851 16.1625C16.9186 16.3018 16.7275 16.552 16.6634 16.8458C15.9823 19.9633 14.4759 22.1406 13 22.1406C11.0861 22.1406 8.9375 18.4038 8.9375 13C8.9375 7.63095 11.0778 3.85938 13 3.85938C14.991 3.85938 17.0625 7.77979 17.0625 13C17.0625 13.5609 17.5172 14.0156 18.0781 14.0156H20.1094C20.6703 14.0156 21.125 13.5609 21.125 13C21.125 12.4391 20.6703 11.9844 20.1094 11.9844H19.0699C19.0306 11.1528 18.9431 10.3401 18.8104 9.55866L19.9527 9.08588C20.471 8.87138 20.7173 8.27734 20.5027 7.75907C20.2882 7.2408 19.6942 6.99451 19.1759 7.20906L18.349 7.55132C18.0919 6.68185 17.759 5.82933 17.3257 5.03288L18.2181 4.14025C18.6147 3.74354 18.6146 3.1005 18.2179 2.70395C17.8213 2.3074 17.1782 2.30745 16.7816 2.70415L16.1379 3.34806C15.4937 2.65647 14.7772 2.19086 14.0156 1.97219V1.01562C14.0156 0.454695 13.5609 0 13 0C12.4391 0 11.9844 0.454695 11.9844 1.01562V1.97219C11.2228 2.19086 10.5063 2.65652 9.86212 3.34801L9.21842 2.7041C8.82187 2.3074 8.17883 2.3073 7.78212 2.7039C7.38542 3.1005 7.38542 3.74354 7.78197 4.1402L8.67435 5.03283C8.24114 5.82918 7.90827 6.682 7.65116 7.55132L6.82409 7.20901C6.30591 6.99446 5.71172 7.24075 5.49727 7.75902C5.28272 8.27729 5.52901 8.87133 6.04729 9.08583L7.18956 9.55861C7.05692 10.34 6.96963 11.1528 6.93037 11.9843H5.89062V11.9844Z" fill="#8289AD"/>
<path id="Vector_7" d="M1.82812 24.1719C3.50817 24.1719 4.875 22.805 4.875 21.125C4.875 20.5641 4.4203 20.1094 3.85938 20.1094C3.29845 20.1094 2.84375 20.5641 2.84375 21.125C2.84375 21.685 2.38814 22.1406 1.82812 22.1406C1.2672 22.1406 0.8125 22.5953 0.8125 23.1562C0.8125 23.7172 1.2672 24.1719 1.82812 24.1719Z" fill="#8289AD"/>
<path id="Vector_8" d="M21.125 2.84375C21.125 4.5238 22.4918 5.89062 24.1719 5.89062C24.7328 5.89062 25.1875 5.43593 25.1875 4.875C25.1875 4.31407 24.7328 3.85938 24.1719 3.85938C23.6119 3.85938 23.1562 3.40377 23.1562 2.84375C23.1562 2.28282 22.7016 1.82812 22.1406 1.82812C21.5797 1.82812 21.125 2.28282 21.125 2.84375Z" fill="#8289AD"/>
</g>
</g>
<defs>
<clipPath id="clip0_8517_646">
<rect width="26" height="26" fill="white"/>
</clipPath>
</defs>
</svg>
