<svg width="59" height="17" viewBox="0 0 59 17" fill="none" xmlns="http://www.w3.org/2000/svg">
<g clip-path="url(#clip0_10097_1138)">
<g opacity="0.75">
<path d="M14.7025 10.892C15.1892 9.55511 15.3484 8.11574 15.166 6.70072C14.835 4.273 13.5736 2.40735 11.2207 1.08337C8.21053 -0.610508 4.14268 -0.0135691 1.71438 2.47963C0.366154 3.86313 -0.451554 6.15905 0.631827 7.7696C1.41643 8.93711 2.93267 9.36058 3.82486 10.4439C4.94052 11.7977 4.85528 13.8886 5.96349 15.2492C6.94507 16.4558 8.71373 16.7798 10.1662 16.29C11.3804 15.8767 13.5728 14.0519 14.7025 10.892Z" fill="white"/>
</g>
<g opacity="0.8">
<path d="M10.1671 16.2895C11.3812 15.8762 13.577 14.0514 14.7034 10.8915C15.1809 9.55311 15.4408 8.26485 15.1669 6.70022C14.2631 1.53015 8.10377 8.17811 7.04191 8.85243C4.94632 10.1832 4.36697 13.1041 5.86086 15.1152C5.8948 15.162 5.92956 15.2062 5.96432 15.2487C6.9459 16.4553 8.71457 16.7836 10.1671 16.2895Z" fill="white"/>
</g>
<g opacity="0.7">
<path d="M12.083 1.88526C10.7814 1.38561 9.38024 1.22209 8.00272 1.40907C5.63981 1.74921 3.82479 3.04598 2.53616 5.46265C0.885013 8.55618 1.46684 12.7348 3.88935 15.2305C5.23675 16.6157 7.47055 17.455 9.03893 16.3419C10.1753 15.5358 10.5866 13.978 11.641 13.0613C12.9595 11.915 14.9938 12.0026 16.3189 10.864C17.4933 9.8555 17.8127 8.03918 17.3311 6.54598C16.9321 5.29853 15.156 3.04258 12.083 1.88526Z" fill="white"/>
</g>
<path d="M9.38394 12.0921L8.188 9.60912L7.38436 10.3625L7.02682 12.0921H5.65625L6.96558 5.73242H8.34525L7.82963 8.20861L10.4665 5.73242H12.3701L9.26145 8.62358L11.0252 12.0947L9.38394 12.0921Z" fill="#202020"/>
<path d="M29.8934 14.7756L27.528 10.0758L25.9257 11.5647L25.2719 14.7781H23.125L25.4589 3.44141H27.6058L26.6259 8.22117L31.7912 3.44141H34.7476L29.2239 8.52474L32.4136 14.7756H29.8934Z" fill="white"/>
<path d="M39.3682 6.90982H41.3752L40.1147 13.0484C40.0208 13.5165 39.9739 13.9932 39.9748 14.471C39.9744 14.5725 39.9797 14.6738 39.9905 14.7746H38.0762C38.0646 14.6525 38.0597 14.5299 38.0613 14.4073C38.0613 14.269 38.0715 14.0705 38.0919 13.812C37.6047 14.549 36.9203 14.9175 36.0386 14.9175C35.126 14.9175 34.3998 14.5844 33.8602 13.9183C33.3206 13.2522 33.0508 12.4183 33.0508 11.4166C33.0508 10.085 33.4243 8.96878 34.1714 8.06799C34.9185 7.16719 35.8468 6.7168 36.9564 6.7168C37.5887 6.7168 38.0853 6.82876 38.4462 7.05268C38.807 7.2766 39.0534 7.52689 39.1853 7.80353L39.3682 6.90982ZM37.1277 8.61986C36.5054 8.61986 36.0126 8.89707 35.6496 9.45149C35.2855 10.0086 35.0955 10.6666 35.105 11.3375C35.105 11.8806 35.2399 12.3058 35.5097 12.6131C35.7795 12.9203 36.1426 13.0748 36.5989 13.0765C37.1506 13.0765 37.6196 12.8234 38.0059 12.3171C38.3921 11.8109 38.5852 11.1369 38.5852 10.295C38.5852 9.77292 38.4555 9.36277 38.1962 9.06459C37.9369 8.7664 37.5807 8.61816 37.1277 8.61986Z" fill="white"/>
<path d="M51.1628 3.20067L49.1401 13.0485C49.0427 13.5057 48.9853 13.971 48.9688 14.4388C48.9645 14.551 48.9697 14.6634 48.9845 14.7746H47.1016C47.0894 14.6418 47.0841 14.5084 47.0859 14.375C47.0859 14.2367 47.0964 14.0502 47.1173 13.8155C46.6296 14.5524 45.9448 14.9209 45.0631 14.9209C44.1505 14.9107 43.4244 14.5751 42.8848 13.9141C42.3452 13.2531 42.0756 12.4218 42.0762 11.4201C42.0762 10.0884 42.4494 8.97221 43.196 8.07142C43.9425 7.17062 44.8711 6.71909 45.9818 6.71682C47.0495 6.71682 47.7756 7.05696 48.1602 7.73723L49.0929 3.19727L51.1628 3.20067ZM46.1523 8.61988C45.5299 8.61988 45.0372 8.8971 44.6741 9.45152C44.3101 10.0086 44.1201 10.6666 44.1295 11.3376C44.1295 11.8807 44.2645 12.3058 44.5343 12.6131C44.8041 12.9203 45.1671 13.0748 45.6234 13.0765C46.1752 13.0765 46.6442 12.8234 47.0304 12.3172C47.4167 11.8109 47.6098 11.1369 47.6098 10.2951C47.6098 9.77295 47.4798 9.3628 47.22 9.06461C46.9601 8.76643 46.6042 8.61818 46.1523 8.61988Z" fill="white"/>
<path d="M58.8951 10.3326C58.8951 11.6217 58.4906 12.7246 57.6817 13.6413C56.8729 14.5579 55.8521 15.0163 54.6195 15.0163C53.5711 15.0163 52.7258 14.6673 52.0836 13.9695C51.4413 13.2716 51.1185 12.4003 51.1152 11.3555C51.1152 9.9916 51.5291 8.87 52.3567 7.99075C53.1843 7.1115 54.201 6.67188 55.4066 6.67188C56.4648 6.67188 57.3101 7.01825 57.9424 7.71099C58.5748 8.40373 58.8923 9.2776 58.8951 10.3326ZM55.2534 8.60555C54.6625 8.60555 54.1698 8.85867 53.7753 9.3649C53.3808 9.87114 53.1838 10.5027 53.1843 11.2595C53.1843 11.8139 53.3294 12.2563 53.6197 12.5868C53.7624 12.7496 53.9381 12.8782 54.1344 12.9637C54.3308 13.0492 54.5429 13.0895 54.756 13.0817C55.2945 13.0817 55.7743 12.8448 56.1953 12.3709C56.6163 11.8969 56.8262 11.245 56.8251 10.4151C56.8251 9.84818 56.6825 9.40572 56.3972 9.08769C56.112 8.76966 55.731 8.60895 55.2543 8.60555H55.2534Z" fill="white"/>
</g>
<defs>
<clipPath id="clip0_10097_1138">
<rect width="59" height="17" fill="white"/>
</clipPath>
</defs>
</svg>
