<svg width="26" height="26" viewBox="0 0 26 26" fill="none" xmlns="http://www.w3.org/2000/svg">
<g id="mobile-analytics 1">
<path id="Vector" d="M17.543 26H8.45312C5.09303 26 2.35938 23.2663 2.35938 19.9062V6.09375C2.35938 2.73366 5.09303 0 8.45312 0H17.543C20.9031 0 23.6367 2.73366 23.6367 6.09375V19.9062C23.6367 23.2663 20.9031 26 17.543 26ZM8.45312 2.03125C6.21306 2.03125 4.39062 3.85369 4.39062 6.09375V19.9062C4.39062 22.1463 6.21306 23.9688 8.45312 23.9688H17.543C19.783 23.9688 21.6055 22.1463 21.6055 19.9062V6.09375C21.6055 3.85369 19.783 2.03125 17.543 2.03125H8.45312ZM15.9688 16.6562V11.1719C15.9688 10.6109 15.5141 10.1562 14.9531 10.1562C14.3922 10.1562 13.9375 10.6109 13.9375 11.1719V16.6562C13.9375 17.2172 14.3922 17.6719 14.9531 17.6719C15.5141 17.6719 15.9688 17.2172 15.9688 16.6562ZM19.625 16.6562V14.2188C19.625 13.6578 19.1703 13.2031 18.6094 13.2031C18.0484 13.2031 17.5938 13.6578 17.5938 14.2188V16.6562C17.5938 17.2172 18.0484 17.6719 18.6094 17.6719C19.1703 17.6719 19.625 17.2172 19.625 16.6562ZM8.50391 16.707V12.7461C8.50391 12.1852 8.04921 11.7305 7.48828 11.7305C6.92735 11.7305 6.47266 12.1852 6.47266 12.7461V16.707C6.47266 17.268 6.92735 17.7227 7.48828 17.7227C8.04921 17.7227 8.50391 17.268 8.50391 16.707ZM12.2617 16.707V8.17578C12.2617 7.61485 11.807 7.16016 11.2461 7.16016C10.6852 7.16016 10.2305 7.61485 10.2305 8.17578V16.707C10.2305 17.268 10.6852 17.7227 11.2461 17.7227C11.807 17.7227 12.2617 17.268 12.2617 16.707Z" fill="#8289AD"/>
</g>
</svg>
