<svg width="29" height="29" viewBox="0 0 29 29" fill="none" xmlns="http://www.w3.org/2000/svg">
<g id="apple 1" clip-path="url(#clip0_8517_666)">
<path id="Vector" d="M24.3048 22.0984C23.7846 24.0518 22.8506 25.7359 21.6039 26.9687C19.5828 28.9884 16.8199 29.583 14.3362 28.3799C13.0853 27.7739 11.6505 27.7739 10.3998 28.3799C7.39066 29.8158 4.18123 28.6791 2.14553 25.784C-0.699607 21.9352 -0.699494 15.1108 2.14553 11.2621C4.18055 8.36713 7.39139 7.23015 10.3998 8.66625C11.6505 9.27225 13.0853 9.27225 14.3361 8.66625C17.1611 7.30648 20.2064 8.25372 22.2547 10.8556C22.2549 10.8558 22.2552 10.8561 22.2554 10.8564C22.2888 10.8986 22.3219 10.9412 22.3548 10.9841C22.7348 11.4809 22.6401 12.1916 22.1433 12.5716C21.6508 12.9494 20.9379 12.8596 20.556 12.3601C20.5309 12.3273 20.5057 12.2949 20.4802 12.2628C20.4802 12.2628 20.4802 12.2627 20.4801 12.2627L20.4798 12.2623C19.3897 10.8154 17.3833 9.68025 15.3237 10.7045C13.4453 11.6146 11.2907 11.6146 9.41226 10.7045C8.87652 10.445 8.31848 10.3133 7.75347 10.3133C4.08775 10.4687 2.22129 14.9608 2.26137 18.5231C2.21936 22.0836 4.08945 26.5803 7.75347 26.7331C8.31837 26.733 8.87652 26.6014 9.41232 26.3418C11.2906 25.4319 13.4453 25.4318 15.3237 26.3418C18.3594 27.7173 21.0898 25.246 22.1164 21.5157C22.2774 20.9114 22.8976 20.5518 23.502 20.7129C24.1063 20.8736 24.4658 21.494 24.3048 22.0984ZM3.58661 2.77306C3.41007 2.51068 3.35124 2.18642 3.42445 1.87875C3.49766 1.57108 3.69617 1.30803 3.97196 1.15328C8.06941 -1.06383 11.1347 0.221721 13.2444 2.42972C13.8507 1.66603 14.6251 0.885926 15.6018 0.209775C16.116 -0.146193 16.8214 -0.0179493 17.1774 0.49627C17.5334 1.01049 17.4051 1.71591 16.8909 2.07188C14.3344 3.84175 13.4906 6.58599 13.4824 6.61345C13.3096 7.21934 12.6631 7.55736 12.0793 7.38252C11.4788 7.20785 11.1342 6.57744 11.3089 5.97694C11.3186 5.94336 11.3821 5.73087 11.5155 5.3963C10.5307 5.78777 9.10351 6.03786 7.90946 5.80974C6.19751 5.51316 4.74307 4.49152 3.58661 2.77306ZM6.34433 2.55926C6.93107 3.11034 7.57931 3.45096 8.28151 3.57558C9.20701 3.73967 10.1095 3.51953 10.7949 3.24821C10.553 3.06578 10.2683 2.88262 9.94437 2.72555C8.82925 2.18512 7.62268 2.1302 6.34433 2.55926ZM18.629 20.6746C18.6048 20.675 18.6531 20.6746 18.629 20.6746V20.6746ZM28.6496 10.4139C28.2049 9.97417 27.4879 9.97819 27.0482 10.4228L19.5167 18.039C19.2863 18.2714 18.9807 18.403 18.6563 18.4095C18.314 18.4158 17.9914 18.2855 17.748 18.0411L14.4511 14.6734C14.0135 14.2265 13.2966 14.2188 12.8497 14.6563C12.4028 15.0939 12.3952 15.8108 12.8326 16.2577L16.1325 19.6284C16.1342 19.6301 16.1359 19.6319 16.1376 19.6336C16.8049 20.3066 17.6871 20.6746 18.629 20.6746C19.5448 20.6563 20.4781 20.2861 21.1261 19.6325L28.6586 12.0153C29.0983 11.5707 29.0943 10.8537 28.6496 10.4139Z" fill="#8289AD"/>
</g>
<defs>
<clipPath id="clip0_8517_666">
<rect width="29" height="29" fill="white"/>
</clipPath>
</defs>
</svg>
