<svg width="20" height="20" viewBox="0 0 20 20" fill="none" xmlns="http://www.w3.org/2000/svg">
<g clip-path="url(#clip0_1510_3121)">
<path d="M19.2406 0.759595C18.6168 0.135832 17.6696 -0.10554 16.425 0.0421586C14.488 0.272085 11.1755 1.13628 7.9862 2.2438C5.88799 2.97241 2.17272 4.39006 0.864924 5.69785C-0.264981 6.81124 -0.303107 8.14779 0.842501 9.23523C2.03565 10.3794 4.61332 11.3129 6.56562 11.8944C7.30829 12.1157 7.88315 12.6901 8.10331 13.431C8.85832 15.7432 10.0514 19.924 12.5027 20C13.1231 20 13.7284 19.7092 14.3023 19.1352C17.013 15.9387 19.4588 7.12269 19.9581 3.57508C20.1057 2.33068 19.8644 1.3834 19.2406 0.759595ZM18.4064 3.39097C17.9351 7.3609 14.8976 16.3302 13.1974 18.0304C12.6283 18.5995 12.3391 18.5144 11.9419 18.1252C11.2125 17.4105 10.3593 15.5373 9.60103 12.9859C9.22993 11.7373 8.26194 10.7694 7.01165 10.397C4.5223 9.65543 2.66789 8.82092 1.92393 8.10747C1.76014 7.9504 1.56443 7.71809 1.5622 7.50312C1.89639 5.38914 13.1817 1.98845 16.6092 1.59379C17.1213 1.53305 17.8018 1.53066 18.1357 1.8645C18.4695 2.19837 18.4672 2.87885 18.4064 3.39097ZM10.1957 10.5858C9.50966 10.5899 9.15063 9.74172 9.64322 9.2521L15.073 3.82231C15.8352 3.11851 16.8814 4.16587 16.1779 4.92718L10.7481 10.357C10.5955 10.5095 10.3956 10.5858 10.1957 10.5858Z" fill="#8289AD"/>
</g>
<defs>
<clipPath id="clip0_1510_3121">
<rect width="20" height="20" fill="white"/>
</clipPath>
</defs>
</svg>
