<svg width="38" height="38" viewBox="0 0 38 38" fill="none" xmlns="http://www.w3.org/2000/svg">
<g id="Group 626626">
<circle id="Ellipse 121" cx="19" cy="19" r="19" fill="#15103A"/>
<path id="Vector" d="M25.4535 10.4349C23.8021 8.77639 21.602 7.86298 19.2584 7.86298H19.2483C14.5291 7.76639 10.3889 11.9224 10.4861 16.6399C10.6096 19.971 13.8142 24.2015 16.3097 27.4516C17.0426 28.3271 18.1105 28.8269 19.2577 28.8269C20.4451 28.8268 21.5476 28.2918 22.2824 27.3589C24.1337 25.0583 28.1313 19.525 28.0106 16.6398C28.0106 14.2946 27.1025 12.091 25.4535 10.4349ZM19.2943 20.1056C17.3753 20.1056 15.814 18.5443 15.814 16.6252C16.0051 12.008 22.5842 12.0094 22.7747 16.6252C22.7747 18.5443 21.2134 20.1056 19.2943 20.1056Z" fill="white"/>
</g>
</svg>
