<svg width="16" height="16" viewBox="0 0 16 16" fill="none" xmlns="http://www.w3.org/2000/svg">
<g id="location 1" clip-path="url(#clip0_1565_3423)">
<path id="Vector" d="M12.7363 1.96406C11.476 0.698337 9.79698 0.00125985 8.00848 0.00125985H8.00076C4.39926 -0.0724539 1.23963 3.09927 1.31378 6.69946C1.40805 9.24163 3.85367 12.4701 5.75816 14.9505C6.31747 15.6186 7.13241 16 8.00792 16C8.9141 16 9.75548 15.5917 10.3163 14.8797C11.7291 13.124 14.7799 8.90121 14.6878 6.6994C14.6878 4.90961 13.9948 3.22791 12.7363 1.96406ZM8.03588 9.34428C6.57133 9.34428 5.37981 8.15276 5.37981 6.68821C5.52571 3.16457 10.5466 3.16561 10.6919 6.68824C10.6919 8.1528 9.50044 9.34428 8.03588 9.34428Z" fill="white"/>
</g>
<defs>
<clipPath id="clip0_1565_3423">
<rect width="16" height="16" fill="white"/>
</clipPath>
</defs>
</svg>
