<svg width="18" height="18" viewBox="0 0 18 18" fill="none" xmlns="http://www.w3.org/2000/svg">
<g id="lock 1" opacity="0.5">
<path id="Vector" d="M13.5556 8H3.44444C2.6467 8 2 8.65122 2 9.45455V14.5455C2 15.3488 2.6467 16 3.44444 16H13.5556C14.3533 16 15 15.3488 15 14.5455V9.45455C15 8.65122 14.3533 8 13.5556 8Z" stroke="white" stroke-linecap="round" stroke-linejoin="round"/>
<path id="Vector_2" d="M5 8V4.88889C5 3.85749 5.36875 2.86834 6.02513 2.13903C6.6815 1.40972 7.57174 1 8.5 1C9.42826 1 10.3185 1.40972 10.9749 2.13903C11.6313 2.86834 12 3.85749 12 4.88889V8" stroke="white" stroke-linecap="round" stroke-linejoin="round"/>
</g>
</svg>
