<svg width="17" height="17" viewBox="0 0 17 17" fill="none" xmlns="http://www.w3.org/2000/svg">
<g id="logout 1" clip-path="url(#clip0_8974_3041)">
<path id="Vector" d="M12.0315 15.9883C12.0315 16.1903 11.9512 16.384 11.8084 16.5269C11.6655 16.6697 11.4718 16.75 11.2697 16.75H4.08887C3.4157 16.7492 2.77032 16.4815 2.29431 16.0055C1.81831 15.5295 1.55056 14.8841 1.5498 14.2109V3.03906C1.55056 2.36589 1.81831 1.72051 2.29431 1.24451C2.77032 0.768506 3.4157 0.500756 4.08887 0.5L11.2697 0.5C11.4718 0.5 11.6655 0.580252 11.8084 0.723102C11.9512 0.865952 12.0315 1.0597 12.0315 1.26172C12.0315 1.46374 11.9512 1.65749 11.8084 1.80034C11.6655 1.94319 11.4718 2.02344 11.2697 2.02344H4.08887C3.8196 2.02373 3.56144 2.13083 3.37104 2.32123C3.18063 2.51163 3.07354 2.76979 3.07324 3.03906V14.2109C3.07353 14.4802 3.18062 14.7384 3.37103 14.9288C3.56143 15.1192 3.81959 15.2263 4.08887 15.2266H11.2697C11.4718 15.2266 11.6655 15.3068 11.8084 15.4497C11.9512 15.5925 12.0315 15.7863 12.0315 15.9883ZM15.4768 8.0864L11.857 4.46659C11.7865 4.39456 11.7025 4.33722 11.6097 4.29789C11.517 4.25856 11.4174 4.23802 11.3166 4.23747C11.2159 4.23691 11.116 4.25634 11.0228 4.29464C10.9296 4.33294 10.845 4.38935 10.7737 4.46059C10.7025 4.53183 10.6461 4.6165 10.6078 4.70969C10.5695 4.80288 10.5501 4.90274 10.5507 5.00348C10.5513 5.10423 10.5718 5.20386 10.6111 5.29661C10.6505 5.38936 10.7078 5.47338 10.7799 5.54382L13.0992 7.86328H7.1027C6.90068 7.86328 6.70694 7.94353 6.56409 8.08638C6.42124 8.22923 6.34098 8.42298 6.34098 8.625C6.34098 8.82702 6.42124 9.02077 6.56409 9.16362C6.70694 9.30647 6.90068 9.38672 7.1027 9.38672H13.0992L10.7797 11.7062C10.7087 11.7768 10.6523 11.8608 10.6138 11.9533C10.5752 12.0458 10.5553 12.145 10.5552 12.2452C10.555 12.3454 10.5747 12.4446 10.613 12.5372C10.6512 12.6299 10.7074 12.714 10.7783 12.7848C10.8491 12.8557 10.9333 12.9119 11.0259 12.9502C11.1185 12.9885 11.2177 13.0081 11.3179 13.0079C11.4181 13.0078 11.5173 12.9879 11.6098 12.9494C11.7023 12.9108 11.7863 12.8544 11.857 12.7834L15.4768 9.16363C15.6196 9.02078 15.6999 8.82703 15.6999 8.62502C15.6999 8.423 15.6196 8.22925 15.4768 8.0864Z" fill="white"/>
</g>
<defs>
<clipPath id="clip0_8974_3041">
<rect width="16.25" height="16.25" fill="white" transform="translate(0.5 0.5)"/>
</clipPath>
</defs>
</svg>
