<svg width="40" height="40" viewBox="0 0 40 40" fill="none" xmlns="http://www.w3.org/2000/svg">
<g clip-path="url(#clip0_8576_582)">
<path fill-rule="evenodd" clip-rule="evenodd" d="M20 0C31.0312 0 40 8.96875 40 20C40 31.0312 31.0312 40 20 40C8.96875 40 0 31.0312 0 20C0 8.96875 8.96875 0 20 0Z" fill="#0B00FF"/>
<g clip-path="url(#clip1_8576_582)">
<path d="M24.0324 27.9883C24.0324 28.1903 23.9522 28.384 23.8093 28.5269C23.6665 28.6697 23.4727 28.75 23.2707 28.75H16.0898C15.4167 28.7492 14.7713 28.4815 14.2953 28.0055C13.8193 27.5295 13.5515 26.8841 13.5508 26.2109V15.0391C13.5515 14.3659 13.8193 13.7205 14.2953 13.2445C14.7713 12.7685 15.4167 12.5008 16.0898 12.5H23.2707C23.4727 12.5 23.6665 12.5803 23.8093 12.7231C23.9522 12.866 24.0324 13.0597 24.0324 13.2617C24.0324 13.4637 23.9522 13.6575 23.8093 13.8003C23.6665 13.9432 23.4727 14.0234 23.2707 14.0234H16.0898C15.8206 14.0237 15.5624 14.1308 15.372 14.3212C15.1816 14.5116 15.0745 14.7698 15.0742 15.0391V26.2109C15.0745 26.4802 15.1816 26.7384 15.372 26.9288C15.5624 27.1192 15.8206 27.2263 16.0898 27.2266H23.2707C23.4727 27.2266 23.6665 27.3068 23.8093 27.4497C23.9522 27.5925 24.0324 27.7863 24.0324 27.9883ZM27.4777 20.0864L23.8579 16.4666C23.7875 16.3946 23.7035 16.3372 23.6107 16.2979C23.518 16.2586 23.4183 16.238 23.3176 16.2375C23.2168 16.2369 23.117 16.2563 23.0238 16.2946C22.9306 16.3329 22.846 16.3893 22.7747 16.4606C22.7035 16.5318 22.6471 16.6165 22.6088 16.7097C22.5705 16.8029 22.5511 16.9027 22.5517 17.0035C22.5522 17.1042 22.5728 17.2039 22.6121 17.2966C22.6515 17.3894 22.7088 17.4734 22.7808 17.5438L25.1002 19.8633H19.1037C18.9017 19.8633 18.7079 19.9435 18.5651 20.0864C18.4222 20.2292 18.342 20.423 18.342 20.625C18.342 20.827 18.4222 21.0208 18.5651 21.1636C18.7079 21.3065 18.9017 21.3867 19.1037 21.3867H25.1002L22.7807 23.7062C22.7097 23.7768 22.6533 23.8608 22.6147 23.9533C22.5762 24.0458 22.5563 24.145 22.5561 24.2452C22.556 24.3454 22.5756 24.4446 22.6139 24.5372C22.6522 24.6299 22.7084 24.714 22.7793 24.7848C22.8501 24.8557 22.9342 24.9119 23.0268 24.9502C23.1195 24.9885 23.2187 25.0081 23.3189 25.0079C23.4191 25.0078 23.5183 24.9879 23.6108 24.9494C23.7033 24.9108 23.7873 24.8544 23.8579 24.7834L27.4777 21.1636C27.6206 21.0208 27.7008 20.827 27.7008 20.625C27.7008 20.423 27.6206 20.2293 27.4777 20.0864Z" fill="white"/>
</g>
</g>
<defs>
<clipPath id="clip0_8576_582">
<rect width="40" height="40" fill="white" transform="matrix(-1 0 0 1 40 0)"/>
</clipPath>
<clipPath id="clip1_8576_582">
<rect width="16.25" height="16.25" fill="white" transform="translate(12.5 12.5)"/>
</clipPath>
</defs>
</svg>
