<svg width="25" height="25" viewBox="0 0 25 25" fill="none" xmlns="http://www.w3.org/2000/svg">
<g id="energy 1" clip-path="url(#clip0_8517_624)">
<path id="Vector" d="M7.35888 24.9985C5.38945 24.9985 3.53784 24.2315 2.14528 22.8389C-0.715141 20.0944 -0.715043 15.1561 2.14528 12.4116L12.4116 2.14526C15.1561 -0.71516 20.0944 -0.715013 22.8389 2.14526C24.4782 3.76673 25.2653 6.15825 24.92 8.43457C24.8417 8.96827 24.3451 9.33722 23.8119 9.259C23.2783 9.18068 22.9092 8.68457 22.9875 8.15097C23.7242 2.99132 17.4912 -0.134531 13.7927 3.5264L3.52636 13.7928C1.42363 15.8103 1.42378 19.4404 3.52632 21.4579C5.54384 23.5606 9.17396 23.5605 11.1914 21.4579L14.0461 18.5904C14.9968 17.7085 16.3076 19.0148 15.4304 19.9684L12.5741 22.8374C11.1799 24.2315 9.32836 24.9985 7.35888 24.9985ZM15.2334 15.2335C15.6148 14.8521 15.6148 14.2337 15.2334 13.8524L11.4736 10.0925C10.5209 9.21276 9.21302 10.5219 10.0924 11.4736L13.8523 15.2335C14.043 15.4241 14.2929 15.5195 14.5429 15.5195C14.7928 15.5195 15.0427 15.4242 15.2334 15.2335ZM19.6212 24.9924C18.7588 24.9975 18.3122 23.9272 18.938 23.318L22.9478 19.3922C23.065 19.2776 23.0489 19.1542 23.0149 19.0708C22.9811 18.9877 22.9067 18.8887 22.7447 18.8887H19.0367C17.035 18.899 16.0306 16.4158 17.4735 15.0303L21.6762 10.9605C22.6428 10.096 23.9295 11.4261 23.0349 12.3635L18.833 16.4327C18.7165 16.5457 18.7323 16.6693 18.7663 16.753C18.8 16.8363 18.8743 16.9355 19.0366 16.9355H22.7447C23.6614 16.9355 24.4774 17.4843 24.8236 18.3335C25.1699 19.1834 24.9697 20.147 24.3136 20.7883L20.3043 24.7136C20.1143 24.8997 19.8677 24.9924 19.6212 24.9924Z" fill="#8289AD"/>
</g>
<defs>
<clipPath id="clip0_8517_624">
<rect width="25" height="25" fill="white"/>
</clipPath>
</defs>
</svg>
