<svg width="30" height="30" viewBox="0 0 30 30" fill="none" xmlns="http://www.w3.org/2000/svg">
<g id="mortarboard 1">
<g id="_x30_1_toga_hat">
<path id="Vector" d="M23.4375 16.7351V22.5007C23.4375 22.7538 23.3344 22.9882 23.1656 23.1663C23.0344 23.2882 20.0156 26.2507 15 26.2507C9.98438 26.2507 6.96562 23.2882 6.83437 23.1663C6.66563 22.9882 6.5625 22.7538 6.5625 22.5007V16.7351L13.7437 20.3257C14.1281 20.5226 14.5688 20.6257 15 20.6257C15.4312 20.6257 15.8719 20.5226 16.2563 20.3257L23.4375 16.7351ZM28.125 19.0113V12.2988L28.5441 12.0888C28.8619 11.9304 29.0625 11.606 29.0625 11.2507C29.0625 10.8954 28.8619 10.571 28.5441 10.4116L15.4191 3.84914C15.1556 3.71695 14.8444 3.71695 14.58 3.84914L1.455 10.4116C1.13813 10.571 0.9375 10.8954 0.9375 11.2507C0.9375 11.606 1.13812 11.9304 1.45594 12.0898L14.5809 18.6523C14.7122 18.7179 14.8566 18.7507 15 18.7507C15.1434 18.7507 15.2878 18.7179 15.4191 18.6523L26.25 13.2363V19.0113C25.6922 19.3366 25.3125 19.9338 25.3125 20.6257C25.3125 21.6598 26.1534 22.5007 27.1875 22.5007C28.2216 22.5007 29.0625 21.6598 29.0625 20.6257C29.0625 19.9348 28.6828 19.3366 28.125 19.0113Z" fill="white"/>
</g>
</g>
</svg>
