<svg width="18" height="18" viewBox="0 0 18 18" fill="none" xmlns="http://www.w3.org/2000/svg">
<g id="navigation 1">
<g id="Navigation">
<path id="Vector" d="M13.7459 5.24624L10.0742 15.9843C10.0224 16.0974 9.93463 16.1901 9.82455 16.248C9.71447 16.3059 9.5883 16.3257 9.46579 16.3042C9.34328 16.2828 9.23133 16.2214 9.14745 16.1295C9.06357 16.0377 9.01248 15.9207 9.00218 15.7967L8 10.5L2.20343 8.99797C2.07949 8.98767 1.96245 8.93658 1.87062 8.8527C1.7788 8.76882 1.71736 8.65687 1.69592 8.53436C1.67448 8.41185 1.69425 8.28568 1.75214 8.1756C1.81002 8.06552 1.90275 7.97773 2.01584 7.92595L13 4.50036C13.1044 4.45253 13.2209 4.43778 13.3339 4.45809C13.4468 4.4784 13.5509 4.53279 13.6321 4.61397C13.7133 4.69515 13.7677 4.79922 13.788 4.91221C13.8083 5.0252 13.7937 5.14187 13.7459 5.24624Z" fill="#8B8B8B"/>
</g>
</g>
</svg>
