<svg width="16" height="16" viewBox="0 0 16 16" fill="none" xmlns="http://www.w3.org/2000/svg">
<g id="calendar 1">
<path id="Vector" d="M12.6663 3.33333H11.9997V2.66667C11.9997 2.3 11.6997 2 11.333 2C10.9663 2 10.6663 2.3 10.6663 2.66667V3.33333H7.99967C7.63301 3.33333 7.33301 3.63333 7.33301 4C7.33301 4.36667 7.63301 4.66667 7.99967 4.66667H12.6663C13.033 4.66667 13.333 4.96667 13.333 5.33333V10C13.333 10.3667 13.633 10.6667 13.9997 10.6667C14.3663 10.6667 14.6663 10.3667 14.6663 10V5.33333C14.6663 4.23333 13.7663 3.33333 12.6663 3.33333Z" fill="#F9F9F9"/>
<path id="Vector_2" d="M14.4737 14.4733C14.3404 14.6 14.1737 14.6667 14.0004 14.6667C13.827 14.6667 13.6604 14.6 13.527 14.4733L13.0204 13.96C12.907 13.98 12.787 14 12.667 14H3.3337C2.2337 14 1.3337 13.1 1.3337 12V5.33333C1.3337 4.50667 1.8337 3.8 2.5537 3.49333L1.52703 2.47333C1.26703 2.21333 1.26703 1.78667 1.52703 1.52667C1.78703 1.26667 2.2137 1.26667 2.4737 1.52667L14.4737 13.5267C14.7337 13.7867 14.7337 14.2133 14.4737 14.4733Z" fill="#F9F9F9"/>
</g>
</svg>
