<svg width="212" height="40" viewBox="0 0 212 40" fill="none" xmlns="http://www.w3.org/2000/svg">
<path d="M38.3145 20.0564C34.5176 13.4194 30.7207 6.78233 26.9238 0.145048C27.0781 -0.00419044 27.2353 0.0573521 27.3733 0.0573521C31.2601 0.0531769 35.1469 0.0575714 39.0335 0.0474606C39.3513 0.0468006 39.5405 0.121969 39.71 0.416712C43.4142 6.86123 47.1308 13.2985 50.8431 19.7382C50.8996 19.8364 50.9277 19.9509 50.9691 20.0578C46.7787 20.0597 42.5886 20.0617 38.3985 20.0635C38.3708 20.0578 38.3429 20.0553 38.3145 20.0564Z" fill="#3B5AB1"/>
<path d="M12.6517 20.0627C14.9324 24.0258 17.2143 27.9884 19.494 31.9521C20.9471 34.4788 22.3915 37.0104 23.8545 39.5312C24.0648 39.8934 24.0529 39.9864 23.6008 39.9848C19.6953 39.9712 15.7899 39.9741 11.8844 39.9829C11.6019 39.9835 11.4323 39.9079 11.2859 39.6543C7.55161 33.1838 3.809 26.718 0.0694547 20.2504C0.0369255 20.1943 0.0228584 20.1277 0 20.0662C4.21737 20.0649 8.43452 20.0638 12.6517 20.0627Z" fill="#F04427"/>
<path d="M6.29688 9.08716C7.73585 6.57384 9.17307 4.05942 10.6149 1.54764C10.898 1.05465 11.0916 0.385599 11.5222 0.136576C11.9528 -0.11223 12.6291 0.0554714 13.1975 0.0550308C16.566 0.0521736 19.9345 0.0534935 23.3028 0.0537128C23.9972 0.0537128 23.9998 0.0552521 23.6453 0.680779C20.0517 7.01826 16.4572 13.3553 12.8618 19.6919C12.8049 19.7924 12.7313 19.8831 12.6656 19.9785C12.6291 19.9447 12.5814 19.9174 12.5576 19.8763C10.8277 16.8597 9.10692 13.8375 7.3644 10.8281C7.02395 10.24 6.76877 9.59576 6.29688 9.08716Z" fill="#F7B70D"/>
<path d="M38.314 20.0567C38.3423 20.0556 38.3703 20.058 38.3979 20.0637C38.4665 20.2329 38.5166 20.4127 38.6065 20.5694C40.415 23.7265 42.2219 26.8847 44.0503 30.0302C44.2341 30.3464 44.329 30.7564 44.7222 30.9258C43.0426 33.8403 41.3616 36.7538 39.6857 39.6705C39.5668 39.8773 39.4347 39.9843 39.1754 39.9839C35.2052 39.9753 31.2349 39.9777 27.2646 39.9762C27.2026 39.9762 27.1404 39.959 27.002 39.9388C30.7881 33.284 34.5511 26.6704 38.314 20.0567Z" fill="#69BBEA"/>
<path d="M6.29682 9.08687C6.76871 9.59547 7.02389 10.2397 7.36435 10.8278C9.10686 13.8372 10.8276 16.8594 12.5576 19.876C12.5813 19.9171 12.629 19.9444 12.6655 19.9782C12.6719 20.0081 12.6673 20.036 12.6517 20.0624C8.43452 20.0635 4.21737 20.0646 0 20.0659C0.451892 19.0423 1.07368 18.1131 1.62558 17.1455C3.09027 14.5777 4.57233 12.0198 6.04911 9.45876C6.1234 9.32996 6.21396 9.21061 6.29682 9.08687Z" fill="#F57816"/>
<path d="M44.7222 30.9253C44.329 30.7558 44.2341 30.3459 44.0503 30.0296C42.2217 26.8842 40.415 23.726 38.6065 20.5689C38.5166 20.412 38.4665 20.2324 38.3979 20.0632C42.5881 20.0614 46.7782 20.0594 50.9685 20.0575C50.5757 20.9639 50.021 21.7806 49.5326 22.6334C48.0112 25.2907 46.4738 27.9388 44.9414 30.5897C44.8748 30.7053 44.7957 30.8136 44.7222 30.9253Z" fill="#5699D8"/>
<path d="M141.279 15.5749C141.278 13.0526 141.282 10.5305 141.277 8.00813C141.275 6.74608 140.993 5.57393 140.048 4.66333C138.686 3.35205 137.064 3.11753 135.36 3.75867C133.644 4.40442 132.835 5.79263 132.762 7.58481C132.707 8.92884 132.744 10.2768 132.744 11.623C132.742 15.1355 132.738 18.648 132.751 22.1608C132.752 22.5021 132.658 22.6839 132.335 22.8203C131.666 23.1028 131.014 23.4265 130.363 23.7496C130.068 23.8964 129.936 23.9055 129.937 23.5026C129.947 18.5355 129.913 13.568 129.954 8.60135C129.986 4.79917 132.807 2.02319 136.611 1.91088C138.768 1.84714 140.68 2.40497 142.23 3.97055C143.435 5.18666 144.039 6.68432 144.054 8.36265C144.098 13.0198 144.074 17.6777 144.085 22.3353C144.086 22.5652 143.988 22.6619 143.803 22.7476C143.101 23.0729 142.398 23.396 141.709 23.7455C141.36 23.9226 141.27 23.8615 141.272 23.4665C141.285 20.8361 141.279 18.2054 141.279 15.5749Z" fill="#55575C"/>
<path d="M116.21 8.75931C119.41 6.28951 124.314 8.29753 124.941 12.2478C124.996 12.5975 125.025 12.9556 125.025 13.3097C125.032 16.2654 125.024 19.2212 125.037 22.1769C125.039 22.5016 124.947 22.6746 124.646 22.8047C123.98 23.0933 123.32 23.4027 122.676 23.7379C122.285 23.9412 122.222 23.826 122.223 23.4361C122.234 19.8304 122.23 16.2248 122.228 12.6189C122.228 12.341 122.221 12.061 122.187 11.7858C121.979 10.0712 120.807 9.12043 119.009 9.19603C117.36 9.26549 116.282 10.3341 116.225 12.0124C116.187 13.1255 116.211 14.2405 116.21 15.3546C116.209 17.6451 116.204 19.9353 116.216 22.2257C116.218 22.5137 116.137 22.6673 115.867 22.7853C115.188 23.0831 114.514 23.3981 113.856 23.7399C113.463 23.9439 113.402 23.8254 113.403 23.4368C113.412 18.3455 113.409 13.2541 113.409 8.16279C113.409 6.53787 113.419 4.91295 113.4 3.28825C113.397 2.9735 113.499 2.82075 113.779 2.6981C114.444 2.40666 115.1 2.09192 115.75 1.76641C116.098 1.59211 116.222 1.61981 116.218 2.05763C116.199 4.17752 116.21 6.29764 116.21 8.41775C116.21 8.50633 116.21 8.59468 116.21 8.75931Z" fill="#55575C"/>
<path d="M83.8874 17.6369C84.1357 17.5901 84.2406 17.4468 84.3676 17.3442C85.9671 16.0511 87.5291 14.7087 89.176 13.4794C89.8776 12.9556 90.0279 12.3874 89.8659 11.623C89.8596 11.5927 89.8536 11.5623 89.8486 11.532C89.5914 10.0293 88.4393 9.15451 86.7704 9.19495C85.2213 9.23232 84.0861 10.1798 83.9599 11.6637C83.7924 13.6354 83.9373 15.6155 83.8874 17.6369ZM81.131 15.6116C81.131 14.5908 81.029 13.5578 81.1501 12.5518C81.5112 9.54838 84.1656 7.46145 87.2423 7.65025C89.3143 7.77751 90.8785 8.74965 92.0078 10.4566C92.2023 10.7502 92.3555 11.0799 92.4764 11.4116C92.8947 12.5591 92.8334 12.7543 91.8929 13.5139C89.3769 15.5456 86.8651 17.5824 84.338 19.6001C84.0371 19.8404 83.9911 20.0494 84.1349 20.3813C84.3248 20.8197 84.5846 21.1936 84.9835 21.4582C86.1005 22.1994 87.2715 22.235 88.4672 21.6811C89.1415 21.3686 89.547 20.8151 89.716 20.0977C89.7938 19.7676 89.9024 19.4208 89.8708 19.0937C89.8112 18.4781 90.1251 18.2291 90.6346 18.0306C91.224 17.8011 91.7858 17.5007 92.3599 17.2314C92.547 17.1435 92.692 17.0725 92.7217 17.4002C92.9786 20.2408 91.0456 22.8893 88.2804 23.4656C85.2114 24.1054 82.2585 22.5064 81.3554 19.7149C81.1826 19.1812 81.0954 18.633 81.0951 18.0719C81.0945 17.2519 81.0949 16.4318 81.0949 15.6116C81.1068 15.6116 81.1189 15.6116 81.131 15.6116Z" fill="#57595D"/>
<path d="M157.76 15.6321C157.757 15.6321 157.754 15.6321 157.751 15.6321C157.751 14.3795 157.791 13.1254 157.742 11.8745C157.677 10.2375 156.5 9.19989 154.792 9.19505C153.07 9.19 151.843 10.2054 151.804 11.8308C151.744 14.3501 151.775 16.8719 151.795 19.3925C151.801 20.0719 152.017 20.7196 152.533 21.1939C153.562 22.1386 154.774 22.2659 156.039 21.8098C157.254 21.3717 157.744 20.3985 157.757 19.1582C157.77 17.983 157.76 16.8075 157.76 15.6321ZM148.958 15.6638C148.958 14.7817 148.923 13.8979 148.964 13.0179C149.116 9.77772 151.884 7.40661 155.193 7.65739C158.406 7.90092 160.588 10.2597 160.59 13.4922C160.591 14.9622 160.593 16.4321 160.589 17.9023C160.583 20.7651 158.615 23.065 155.783 23.5257C152.902 23.9945 150.158 22.4316 149.25 19.8084C149.04 19.2017 148.957 18.5767 148.955 17.9384C148.953 17.1801 148.954 16.4218 148.954 15.6638H148.958Z" fill="#585A5E"/>
<path d="M186.692 15.6368C186.696 15.6368 186.7 15.6368 186.704 15.6368C186.704 16.874 186.666 18.1126 186.714 19.348C186.777 21.0127 187.913 22.0266 189.642 22.0398C191.404 22.0532 192.614 21.0514 192.653 19.388C192.712 16.8841 192.689 14.3776 192.659 11.8727C192.648 10.9849 192.303 10.2066 191.504 9.71563C190.416 9.04702 189.277 9.00724 188.14 9.55562C187.063 10.0746 186.7 11.0284 186.694 12.1571C186.687 13.3169 186.692 14.477 186.692 15.6368ZM195.502 15.6384C195.502 16.474 195.531 17.3108 195.497 18.1449C195.383 20.9303 193.418 23.0994 190.641 23.5357C187.7 23.9977 184.896 22.3014 184.09 19.5775C183.976 19.1891 183.887 18.7922 183.884 18.3919C183.87 16.5509 183.788 14.7042 183.897 12.8694C184.085 9.69893 186.829 7.43573 190.072 7.6542C193.277 7.87026 195.504 10.2488 195.505 13.4565C195.505 14.1838 195.505 14.9111 195.505 15.6384H195.502Z" fill="#585A5E"/>
<path d="M208.467 17.6718C208.467 15.8451 208.488 14.0182 208.461 12.1922C208.426 9.73052 205.99 8.37616 203.831 9.59513C203.007 10.0609 202.584 10.7824 202.511 11.7049C202.465 12.2746 202.473 12.8491 202.472 13.4215C202.469 16.3318 202.465 19.242 202.479 22.1521C202.481 22.4949 202.386 22.6807 202.065 22.818C201.383 23.1101 200.715 23.4363 200.049 23.7651C199.748 23.9139 199.649 23.8664 199.65 23.5139C199.658 20.0311 199.624 16.5476 199.664 13.0652C199.7 9.91888 202.53 7.48534 205.803 7.64227C209.004 7.79547 211.382 10.4807 211.294 13.4534C211.208 16.361 211.27 19.2732 211.283 22.1835C211.285 22.5097 211.191 22.6826 210.89 22.8119C210.25 23.0862 209.628 23.3994 208.997 23.695C208.475 23.9398 208.474 23.9388 208.474 23.384C208.473 21.4799 208.474 19.5759 208.474 17.6718H208.467Z" fill="#57595D"/>
<path d="M72.6495 13.7953C72.6495 10.593 72.6427 7.39038 72.6583 4.18823C72.6603 3.79964 72.5517 3.70118 72.1695 3.70601C70.483 3.72733 68.7959 3.70755 67.1094 3.7214C66.7318 3.72447 66.6503 3.68579 66.7859 3.2684C67.0714 2.39055 67.5697 2.13604 68.5093 2.15098C72.6557 2.2167 76.8034 2.17912 80.9506 2.17956C81.521 2.17956 81.4645 2.16329 81.2994 2.68661C81.0385 3.51457 80.5776 3.81129 79.6826 3.74008C78.4371 3.64095 77.1775 3.73063 75.9244 3.70601C75.5455 3.69854 75.4686 3.8236 75.4692 4.17724C75.4793 10.1488 75.4721 16.1205 75.4859 22.092C75.4868 22.4929 75.3723 22.6969 74.9984 22.8492C74.3553 23.1114 73.7311 23.424 73.1113 23.7394C72.7574 23.9192 72.6398 23.8838 72.6418 23.449C72.6561 20.2311 72.6495 17.0133 72.6495 13.7953Z" fill="#585A5E"/>
<path d="M96.9275 15.6034C96.9275 14.6906 96.8664 13.7732 96.9385 12.8662C97.1934 9.65873 99.9158 7.40213 103.165 7.6584C105.714 7.85951 107.926 9.64027 108.443 11.9063C108.447 11.9213 108.453 11.9358 108.456 11.9509C108.645 12.8224 108.645 12.8224 107.848 13.2007C107.276 13.4726 106.699 13.7361 106.131 14.0196C105.838 14.1664 105.717 14.1328 105.727 13.7728C105.742 13.1855 105.738 12.5967 105.719 12.0094C105.675 10.6786 105.049 9.79082 103.885 9.38135C102.647 8.94572 101.146 9.28069 100.371 10.173C99.958 10.6493 99.7628 11.2265 99.7589 11.8399C99.7421 14.3616 99.7134 16.8844 99.7672 19.405C99.8004 20.9609 100.92 21.9655 102.516 22.0379C104.236 22.1157 105.36 21.2761 105.624 19.7133C105.662 19.485 105.729 19.248 105.702 19.0245C105.64 18.5003 105.889 18.262 106.35 18.0829C106.968 17.8425 107.559 17.5321 108.158 17.2418C108.409 17.1198 108.54 17.1018 108.557 17.4585C108.694 20.2094 107.07 22.6045 104.545 23.3526C101.795 24.1668 98.9841 23.0832 97.6058 20.6811C97.1319 19.8553 96.9224 18.9619 96.9152 18.0172C96.909 17.2128 96.9139 16.4081 96.9139 15.6034C96.9185 15.6034 96.9229 15.6034 96.9275 15.6034Z" fill="#585A5E"/>
<path d="M166.632 16.6571C166.632 14.4132 166.625 12.1696 166.639 9.92572C166.642 9.57405 166.57 9.44086 166.185 9.45338C165.257 9.48372 164.327 9.4547 163.399 9.46789C163.085 9.47251 162.978 9.42855 163.131 9.08765C163.653 7.92605 163.642 7.92144 164.936 7.92144C165.339 7.92144 165.743 7.89792 166.143 7.92803C166.517 7.95638 166.649 7.85198 166.642 7.45086C166.616 6.05848 166.641 4.66544 166.625 3.27305C166.622 2.98359 166.708 2.82907 166.975 2.71149C167.654 2.41191 168.326 2.09519 168.988 1.75891C169.37 1.56483 169.45 1.66769 169.447 2.06728C169.431 3.8621 169.452 5.65736 169.43 7.45218C169.425 7.84912 169.549 7.94122 169.925 7.93001C170.822 7.90319 171.72 7.93045 172.618 7.91682C172.965 7.91154 173.054 7.93594 172.926 8.34541C172.644 9.2492 172.134 9.64219 171.176 9.47448C170.786 9.40613 170.371 9.48943 169.971 9.45602C169.562 9.42195 169.426 9.53141 169.429 9.97561C169.448 13.9989 169.432 18.0222 169.451 22.0455C169.453 22.482 169.328 22.7064 168.924 22.8686C168.308 23.1161 167.718 23.4286 167.117 23.7128C166.634 23.9412 166.632 23.9408 166.632 23.3884C166.632 21.1446 166.632 18.9009 166.632 16.6571Z" fill="#57595D"/>
<path d="M178.96 15.0813C178.96 17.4493 178.953 19.8174 178.968 22.1852C178.97 22.5149 178.863 22.6828 178.567 22.812C177.873 23.1154 177.189 23.4431 176.509 23.7769C176.212 23.9229 176.14 23.8415 176.14 23.5314C176.146 18.6716 176.146 13.812 176.14 8.95218C176.139 8.71986 176.207 8.59063 176.425 8.49238C177.13 8.17522 177.831 7.84751 178.522 7.50002C178.881 7.31913 178.967 7.41166 178.966 7.79168C178.954 10.2215 178.96 12.6515 178.96 15.0813Z" fill="#57595D"/>
<path d="M61.0148 16.1934C61.0148 13.8108 61.0208 11.4283 61.0074 9.04597C61.0056 8.74068 61.0845 8.57254 61.3729 8.44748C62.0536 8.1523 62.7211 7.82635 63.3886 7.50216C63.6723 7.36435 63.8235 7.32984 63.8227 7.74964C63.8119 12.5921 63.8139 17.4343 63.8216 22.2768C63.822 22.5317 63.7449 22.661 63.511 22.7654C62.8055 23.0808 62.1057 23.4109 61.4162 23.7604C61.0603 23.9408 61.0089 23.8173 61.01 23.4802C61.0192 21.0512 61.0148 18.6223 61.0148 16.1934Z" fill="#55575C"/>
<path d="M87.2055 34.8226C88.3106 33.9825 88.8454 34.0342 89.5091 35.0061C89.8239 34.5096 90.2584 34.2377 90.8562 34.2472C91.6259 34.2592 92.1776 34.7006 92.2227 35.4738C92.2774 36.4143 92.2462 37.3596 92.2543 38.3028C92.2574 38.6511 91.9948 38.5204 91.8216 38.5443C91.5952 38.5753 91.4866 38.4964 91.4906 38.241C91.5031 37.437 91.5044 36.6323 91.4912 35.8283C91.4813 35.2222 91.2321 34.9164 90.7584 34.8755C90.1848 34.8259 89.7999 35.1661 89.7823 35.7908C89.7606 36.5635 89.7665 37.3374 89.7788 38.1104C89.7832 38.3959 89.7599 38.5658 89.3924 38.5588C89.0572 38.5524 88.9786 38.4428 88.9862 38.1287C89.006 37.3405 88.9986 36.5512 88.9882 35.7626C88.9834 35.4094 88.9007 35.0659 88.526 34.9259C88.1647 34.7907 87.8306 34.8885 87.5306 35.132C87.3457 35.2819 87.2771 35.4582 87.2804 35.6951C87.2912 36.4682 87.2857 37.2416 87.284 38.0148C87.2833 38.2801 87.373 38.554 86.9028 38.5628C86.3986 38.5722 86.4986 38.2707 86.498 37.9922C86.4956 36.9405 86.4892 35.8886 86.5041 34.8371C86.507 34.6448 86.3461 34.3406 86.7415 34.3006C87.0842 34.2658 87.231 34.4327 87.2055 34.8226Z" fill="#7A7B7E"/>
<path d="M63.875 33.4598C63.4919 34.4576 63.1458 35.3592 62.7785 36.3158C63.4572 36.3158 64.0713 36.3118 64.6852 36.318C64.9045 36.3202 64.9551 36.245 64.8749 36.0408C64.5491 35.2131 64.2315 34.3822 63.875 33.4598ZM61.0918 38.4899C61.2248 38.1543 61.3536 37.8268 61.4843 37.5002C62.0932 35.9788 62.7143 34.4623 63.3025 32.9329C63.4229 32.62 63.5932 32.5683 63.8878 32.56C64.2027 32.5509 64.348 32.6556 64.4632 32.9507C65.1254 34.6506 65.8153 36.3395 66.4813 38.038C66.5387 38.1844 66.7866 38.433 66.5189 38.5154C66.2683 38.5926 65.8877 38.6899 65.7305 38.2697C65.6006 37.9222 65.4457 37.5835 65.3296 37.2318C65.2538 37.0024 65.1309 36.9191 64.8907 36.9237C64.21 36.9369 63.5289 36.9389 62.8482 36.9226C62.6 36.9167 62.4851 37.0167 62.4149 37.2376C62.3402 37.473 62.2398 37.7 62.1508 37.9308C61.8855 38.6192 61.8813 38.6214 61.0918 38.4899Z" fill="#797B7D"/>
<path d="M80.0431 35.549C80.0431 34.698 80.0543 33.8465 80.0371 32.9959C80.0307 32.6902 80.0943 32.5566 80.4387 32.5643C81.4132 32.5865 82.3889 32.5783 83.3639 32.5678C83.614 32.5651 83.7237 32.628 83.7224 32.9023C83.7211 33.1685 83.6298 33.2472 83.3703 33.2419C82.6586 33.2272 81.946 33.2478 81.2345 33.2316C80.9563 33.225 80.8462 33.3043 80.8609 33.5947C80.8818 34.0116 80.882 34.431 80.8607 34.8477C80.8455 35.1435 80.9666 35.2169 81.24 35.2086C81.7812 35.1919 82.3238 35.2163 82.865 35.1987C83.1448 35.1897 83.1982 35.315 83.2023 35.5596C83.207 35.8308 83.0661 35.8552 82.8527 35.8519C82.3111 35.8436 81.7686 35.8631 81.2277 35.8438C80.9387 35.8335 80.8492 35.9376 80.8613 36.2174C80.88 36.6498 80.8798 37.0843 80.8613 37.5168C80.8495 37.7936 80.933 37.8982 81.2247 37.8905C81.9361 37.8718 82.6485 37.8925 83.3604 37.8804C83.6149 37.876 83.7573 37.9072 83.7586 38.2219C83.7602 38.5578 83.5773 38.5477 83.3441 38.5463C82.3845 38.5411 81.4244 38.5268 80.4655 38.5532C80.1009 38.5633 80.0272 38.4354 80.0358 38.1021C80.0576 37.2516 80.0431 36.4001 80.0431 35.549Z" fill="#77787A"/>
<path d="M192.178 36.4813C192.178 37.0385 192.165 37.5959 192.183 38.1524C192.192 38.4447 192.116 38.5588 191.797 38.5581C191.469 38.5575 191.375 38.4555 191.382 38.1337C191.401 37.2211 191.373 36.3075 191.396 35.3951C191.405 35.0401 191.287 34.9364 190.946 34.9568C190.498 34.9837 190.048 34.972 189.599 34.9601C189.358 34.954 189.228 35.0061 189.235 35.2892C189.251 36.0006 189.228 36.713 189.245 37.4244C189.257 37.9188 189.543 38.1144 189.981 37.9021C190.261 37.7658 190.372 37.8625 190.478 38.0867C190.612 38.3682 190.355 38.3983 190.211 38.4685C189.247 38.9384 188.489 38.4729 188.486 37.4157C188.484 36.7194 188.479 36.0228 188.489 35.3268C188.492 35.0918 188.46 34.9338 188.169 34.9595C187.992 34.9753 187.83 34.9502 187.82 34.7012C187.81 34.4392 187.992 34.4403 188.158 34.4322C188.426 34.419 188.533 34.2781 188.554 34.0232C188.575 33.7616 188.635 33.5031 188.655 33.2416C188.675 32.9932 188.809 32.9396 189.028 32.9477C189.273 32.9567 189.237 33.124 189.239 33.2748C189.241 33.5225 189.256 33.7715 189.235 34.0172C189.211 34.3069 189.327 34.3893 189.606 34.3834C190.333 34.3678 191.062 34.3915 191.789 34.3722C192.092 34.3641 192.196 34.4546 192.184 34.7639C192.162 35.3355 192.178 35.9088 192.178 36.4813Z" fill="#7B7C7F"/>
<path d="M166.138 38.6187C165.524 38.6319 164.994 38.4112 164.507 38.0494C164.281 37.8813 164.336 37.7331 164.464 37.5443C164.605 37.3373 164.754 37.2799 164.959 37.4514C165.396 37.8164 165.892 37.9855 166.466 37.9039C166.978 37.8312 167.331 37.498 167.395 37.0142C167.458 36.5465 167.267 36.2344 166.745 36.0216C166.388 35.8759 166.01 35.7823 165.65 35.642C164.858 35.3328 164.491 34.7998 164.542 34.0635C164.593 33.3184 165.115 32.7135 165.89 32.5482C166.569 32.4036 167.209 32.5177 167.801 32.8986C168.042 33.054 168.038 33.205 167.902 33.432C167.755 33.6786 167.597 33.6481 167.406 33.5129C167.021 33.2399 166.595 33.1406 166.13 33.2204C165.709 33.2927 165.419 33.516 165.342 33.9551C165.266 34.3916 165.489 34.6723 165.862 34.8361C166.215 34.991 166.585 35.1073 166.945 35.2451C167.945 35.6269 168.31 36.1671 168.165 37.0452C168.013 37.9681 167.331 38.5664 166.37 38.6182C166.293 38.6222 166.216 38.6187 166.138 38.6187Z" fill="#78797C"/>
<path d="M177.552 1.90905C178.493 1.90356 179.253 2.67657 179.244 3.62914C179.235 4.56941 178.499 5.32528 177.579 5.33869C176.637 5.35231 175.877 4.59469 175.869 3.63332C175.861 2.67019 176.599 1.91477 177.552 1.90905Z" fill="#585A5E"/>
<path d="M62.4123 1.9137C63.3732 1.91261 64.1036 2.65418 64.0994 3.62676C64.0954 4.58879 63.3407 5.34817 62.3982 5.33828C61.4722 5.32883 60.744 4.5822 60.7383 3.63621C60.7324 2.65287 61.4496 1.9148 62.4123 1.9137Z" fill="#585A5E"/>
<path d="M174.088 36.4655C174.095 35.5995 173.795 35.0568 173.222 34.8975C172.512 34.7005 171.898 35.0289 171.695 35.7136C171.398 36.7145 171.735 37.7535 172.423 37.9572C172.482 37.9746 172.544 37.9823 172.604 37.9899C173.556 38.1113 174.079 37.5734 174.088 36.4655ZM172.838 34.2493C174.079 34.2432 174.885 35.1017 174.886 36.4325C174.887 37.7451 174.099 38.604 172.884 38.6142C171.622 38.6247 170.834 37.7968 170.827 36.4543C170.82 35.0962 171.587 34.2557 172.838 34.2493Z" fill="#78797C"/>
<path d="M198.333 36.453C198.349 36.1877 198.308 35.929 198.231 35.6775C198.071 35.1571 197.68 34.8608 197.139 34.8397C196.604 34.8186 196.173 35.0892 195.991 35.5973C195.781 36.1837 195.783 36.7785 196.025 37.3567C196.231 37.8458 196.629 38.0166 197.142 38.0051C197.646 37.9939 197.994 37.7785 198.182 37.3108C198.293 37.0356 198.344 36.7492 198.333 36.453ZM195.075 36.4519C195.068 35.0946 195.836 34.255 197.088 34.2493C198.329 34.2436 199.134 35.1037 199.133 36.4347C199.133 37.7478 198.345 38.6047 197.129 38.6142C195.868 38.6238 195.082 37.7959 195.075 36.4519Z" fill="#78797C"/>
<path d="M126.331 35.9559C126.608 35.9559 126.885 35.9458 127.161 35.9588C127.438 35.9717 127.46 35.844 127.402 35.6172C127.281 35.1482 126.935 34.8464 126.454 34.815C125.897 34.7785 125.483 35.0286 125.274 35.5148C125.151 35.8023 125.151 35.9876 125.548 35.9597C125.808 35.9414 126.07 35.9561 126.331 35.9559ZM126.577 36.4573C126.206 36.4575 125.834 36.4738 125.465 36.4527C125.143 36.4342 125.113 36.5716 125.165 36.8432C125.351 37.8068 126.096 38.2385 127.035 37.9031C127.194 37.8464 127.35 37.7727 127.494 37.6839C127.706 37.5518 127.833 37.6398 127.956 37.8136C128.094 38.0103 127.939 38.1018 127.82 38.1844C127.183 38.6257 126.48 38.7354 125.744 38.5205C124.705 38.2169 124.141 37.023 124.429 35.788C124.683 34.6937 125.616 34.0791 126.726 34.2747C127.597 34.4286 128.247 35.3198 128.13 36.1825C128.099 36.4069 127.976 36.4595 127.783 36.4579C127.381 36.4551 126.979 36.457 126.577 36.4573Z" fill="#7A7B7E"/>
<path d="M184.342 38.0425C183.912 38.405 183.494 38.6441 182.961 38.6265C182.229 38.6028 181.719 38.2037 181.615 37.4746C181.476 36.5069 181.581 35.5299 181.557 34.5571C181.549 34.2276 181.8 34.3114 181.987 34.2979C182.192 34.283 182.345 34.3045 182.341 34.5828C182.328 35.371 182.336 36.1596 182.338 36.9482C182.339 37.386 182.404 37.7975 182.893 37.9608C183.318 38.1028 183.968 37.877 184.24 37.5304C184.349 37.3906 184.328 37.2403 184.329 37.0895C184.331 36.3011 184.342 35.5123 184.324 34.7243C184.317 34.4116 184.396 34.2828 184.735 34.287C185.052 34.2909 185.123 34.4127 185.119 34.7026C185.106 35.8466 185.117 36.9906 185.11 38.1346C185.109 38.2964 185.204 38.5309 184.893 38.5476C184.638 38.561 184.421 38.5406 184.406 38.2113C184.405 38.1713 184.377 38.1324 184.342 38.0425Z" fill="#7D7F80"/>
<path d="M107.533 35.9555C107.812 35.9555 108.091 35.9463 108.369 35.9582C108.623 35.9692 108.695 35.8845 108.631 35.6294C108.503 35.1249 108.127 34.8168 107.589 34.8139C107.02 34.8109 106.567 35.1518 106.447 35.6531C106.392 35.8854 106.472 35.9639 106.697 35.9573C106.976 35.9489 107.255 35.9553 107.533 35.9555ZM107.828 36.4575C107.441 36.458 107.054 36.4716 106.669 36.4534C106.374 36.4395 106.341 36.5732 106.381 36.82C106.551 37.8827 107.492 38.3069 108.537 37.791C108.693 37.7143 108.84 37.5172 109.037 37.6611C109.23 37.8018 109.328 37.9561 109.072 38.1728C107.891 39.1737 105.976 38.5306 105.652 37.0138C105.377 35.7241 105.932 34.6159 107.002 34.3185C108.252 33.9713 109.313 34.7478 109.35 36.014C109.361 36.3698 109.23 36.4804 108.894 36.4617C108.54 36.4419 108.183 36.4573 107.828 36.4575Z" fill="#7A7B7E"/>
<path d="M112.926 34.855C113.368 34.4404 113.823 34.2145 114.389 34.2472C115.122 34.2901 115.642 34.7466 115.694 35.5572C115.752 36.4662 115.714 37.3815 115.722 38.2938C115.725 38.6387 115.471 38.5277 115.292 38.5439C115.094 38.562 114.927 38.5523 114.931 38.269C114.942 37.4802 114.932 36.6911 114.935 35.902C114.936 35.4785 114.873 35.0838 114.413 34.9152C113.985 34.7582 113.297 34.9928 113.024 35.3526C112.917 35.4939 112.946 35.6462 112.946 35.7965C112.942 36.601 112.93 37.4059 112.951 38.2096C112.96 38.533 112.804 38.5527 112.555 38.5512C112.311 38.5497 112.147 38.5398 112.152 38.2151C112.168 37.0551 112.155 35.8948 112.16 34.7345C112.161 34.5519 112.076 34.307 112.411 34.2971C112.683 34.2888 112.869 34.3593 112.866 34.6745C112.865 34.7147 112.892 34.7554 112.926 34.855Z" fill="#7B7C7F"/>
<path d="M100.03 34.8264C100.412 34.5106 100.817 34.2457 101.344 34.2468C102.165 34.2483 102.726 34.7029 102.783 35.5645C102.842 36.4731 102.803 37.3881 102.809 38.3004C102.811 38.6473 102.549 38.5231 102.374 38.5435C102.168 38.5675 102.016 38.5367 102.021 38.2609C102.033 37.4876 102.023 36.7142 102.025 35.941C102.026 35.5047 101.981 35.0877 101.495 34.9134C101.063 34.7583 100.38 34.9941 100.109 35.3559C100.014 35.4829 100.033 35.6185 100.033 35.7541C100.03 36.5584 100.018 37.363 100.038 38.1666C100.046 38.4811 99.9342 38.553 99.6395 38.5556C99.3377 38.5582 99.239 38.4712 99.2432 38.1642C99.259 37.0355 99.2447 35.9062 99.2542 34.7774C99.2557 34.5912 99.134 34.318 99.5059 34.2978C99.8261 34.2804 99.9621 34.422 99.961 34.729C99.961 34.7517 99.9918 34.7743 100.03 34.8264Z" fill="#78797C"/>
<path d="M155.413 35.9024C155.413 35.1455 155.397 34.3878 155.42 33.6315C155.43 33.3157 155.319 33.2315 155.023 33.2467C154.607 33.2682 154.188 33.2394 153.771 33.2559C153.511 33.2663 153.462 33.1445 153.467 32.9207C153.471 32.7159 153.477 32.5662 153.753 32.568C155.128 32.5772 156.504 32.5768 157.879 32.5678C158.135 32.566 158.184 32.6768 158.188 32.9029C158.193 33.1548 158.125 33.2691 157.851 33.2566C157.45 33.2381 157.046 33.2724 156.646 33.2458C156.317 33.2238 156.23 33.3412 156.233 33.6623C156.249 35.1453 156.229 36.6286 156.248 38.1116C156.252 38.456 156.163 38.5613 155.811 38.5575C155.474 38.554 155.398 38.4397 155.406 38.1272C155.427 37.386 155.413 36.644 155.413 35.9024Z" fill="#78797B"/>
<path d="M139.742 34.8472C140.168 34.4579 140.606 34.2258 141.154 34.248C141.887 34.2779 142.437 34.728 142.48 35.4764C142.535 36.4171 142.505 37.3629 142.511 38.3067C142.514 38.6575 142.245 38.5164 142.074 38.5425C141.842 38.5781 141.746 38.4843 141.75 38.2348C141.763 37.4614 141.755 36.6875 141.754 35.9138C141.754 35.4736 141.68 35.0661 141.189 34.908C140.744 34.7645 140.074 35.0076 139.813 35.3777C139.713 35.5193 139.734 35.672 139.734 35.8239C139.732 36.6132 139.72 37.4027 139.739 38.1913C139.746 38.4873 139.633 38.5465 139.362 38.5542C139.054 38.563 138.966 38.4625 138.97 38.1594C138.986 37.0145 138.973 35.8694 138.979 34.7243C138.98 34.5586 138.892 34.3322 139.194 34.3029C139.466 34.2766 139.65 34.3509 139.675 34.6555C139.679 34.6992 139.704 34.7412 139.742 34.8472Z" fill="#78797B"/>
<path d="M202.726 34.8363C203.119 34.507 203.5 34.2584 203.997 34.2485C204.817 34.2325 205.406 34.6675 205.462 35.4778C205.526 36.4175 205.486 37.3641 205.496 38.3074C205.499 38.6224 205.269 38.5325 205.102 38.5417C204.917 38.5521 204.729 38.5778 204.734 38.2795C204.747 37.5061 204.739 36.7324 204.738 35.9587C204.737 35.5255 204.69 35.1062 204.214 34.9202C203.783 34.7521 203.141 34.9655 202.825 35.342C202.711 35.4778 202.717 35.624 202.717 35.7774C202.717 36.5509 202.711 37.3248 202.72 38.0982C202.723 38.3681 202.731 38.5631 202.348 38.558C201.996 38.5534 201.95 38.4147 201.954 38.1164C201.968 36.9872 201.957 35.8576 201.963 34.7281C201.964 34.5639 201.87 34.3314 202.174 34.3055C202.44 34.2826 202.634 34.3472 202.651 34.66C202.654 34.7022 202.685 34.7429 202.726 34.8363Z" fill="#78797B"/>
<path d="M69.9417 34.8364C70.3417 34.5122 70.7448 34.2456 71.273 34.2471C72.1097 34.2495 72.6755 34.7474 72.7113 35.6155C72.7476 36.4956 72.7142 37.3781 72.7315 38.2592C72.7379 38.5856 72.5352 38.537 72.3352 38.5467C72.108 38.5577 71.9563 38.5355 71.9636 38.235C71.9818 37.4778 71.9715 36.7198 71.9684 35.9622C71.9666 35.5125 71.9165 35.0773 71.4031 34.9085C70.9554 34.7614 70.2958 34.9973 70.0226 35.3672C69.9276 35.4953 69.9503 35.6307 69.9498 35.7661C69.947 36.5701 69.938 37.3745 69.9542 38.1783C69.9597 38.4557 69.8881 38.5614 69.5938 38.5533C69.3192 38.5456 69.1775 38.5122 69.1834 38.1785C69.2039 37.0347 69.1882 35.8901 69.1944 34.7458C69.1953 34.5674 69.0968 34.3188 69.4333 34.3027C69.7166 34.2891 69.8788 34.388 69.8736 34.6931C69.8729 34.7307 69.9083 34.7689 69.9417 34.8364Z" fill="#77787A"/>
<path d="M209.697 38.6198C209.249 38.6354 208.871 38.5147 208.521 38.3C208.373 38.2094 208.221 38.1222 208.376 37.9057C208.5 37.732 208.624 37.6303 208.833 37.772C209.135 37.9762 209.461 38.1057 209.835 38.0652C210.205 38.025 210.506 37.8703 210.563 37.4729C210.618 37.0898 210.329 36.9333 210.027 36.8201C209.708 36.7014 209.381 36.6058 209.067 36.477C208.667 36.3126 208.408 36.0234 208.38 35.571C208.351 35.093 208.549 34.7178 208.96 34.4886C209.622 34.1193 210.292 34.1624 210.945 34.533C211.098 34.6191 211.245 34.7158 211.114 34.9321C211.004 35.1139 210.868 35.1438 210.685 35.0427C210.396 34.8818 210.09 34.7756 209.754 34.8317C209.45 34.8822 209.17 34.9991 209.117 35.3451C209.064 35.6932 209.327 35.8324 209.596 35.9359C209.898 36.0524 210.208 36.1493 210.512 36.2621C210.949 36.4243 211.274 36.7041 211.294 37.1966C211.316 37.732 211.088 38.1591 210.605 38.4184C210.314 38.5747 209.997 38.6424 209.697 38.6198Z" fill="#797B7D"/>
<path d="M119.337 36.4433C119.34 37.5447 119.896 38.126 120.812 37.9932C121.053 37.9583 121.248 37.8405 121.432 37.6985C121.636 37.5407 121.763 37.6442 121.893 37.8082C122.047 38.0023 121.88 38.0869 121.773 38.1823C120.821 39.0311 119.207 38.6625 118.738 37.4818C118.458 36.7767 118.463 36.058 118.756 35.3582C119.224 34.2403 120.803 33.8583 121.742 34.6223C121.854 34.7133 121.983 34.7922 121.843 34.9533C121.735 35.0775 121.644 35.2542 121.43 35.121C121.417 35.1129 121.404 35.1041 121.39 35.0977C120.155 34.5306 119.333 35.0689 119.337 36.4433Z" fill="#7A7B7E"/>
<path d="M177.73 35.4685C177.73 34.5713 177.742 33.6741 177.724 32.7774C177.718 32.4681 177.821 32.3877 178.122 32.3855C178.431 32.3833 178.517 32.4813 178.515 32.782C178.504 34.5759 178.503 36.3703 178.516 38.1642C178.518 38.4726 178.418 38.5546 178.118 38.5561C177.811 38.5579 177.718 38.4634 177.724 38.1596C177.741 37.2629 177.73 36.3657 177.73 35.4685Z" fill="#7A7B7E"/>
<path d="M150.656 35.5761C150.656 36.4414 150.638 37.3074 150.665 38.1721C150.677 38.5506 150.484 38.542 150.211 38.5536C149.907 38.5664 149.818 38.4657 149.82 38.162C149.833 36.4159 149.837 34.6695 149.818 32.9234C149.814 32.5667 149.99 32.5705 150.243 32.5667C150.509 32.563 150.674 32.5885 150.664 32.9338C150.64 33.814 150.656 34.6952 150.656 35.5761Z" fill="#797B7D"/>
<path d="M135.083 36.4454C135.083 35.8438 135.097 35.2416 135.076 34.6407C135.066 34.3235 135.227 34.2994 135.475 34.2937C135.74 34.2875 135.867 34.3493 135.863 34.6502C135.849 35.8379 135.847 37.0261 135.863 38.2139C135.868 38.5337 135.712 38.5493 135.466 38.5521C135.209 38.5548 135.064 38.5178 135.076 38.2038C135.099 37.6184 135.083 37.0316 135.083 36.4454Z" fill="#7A7B7E"/>
<path d="M95.3818 36.4129C95.3816 35.8109 95.395 35.2087 95.3759 34.6074C95.3662 34.3021 95.533 34.2961 95.7539 34.299C95.9726 34.3018 96.1386 34.3076 96.1353 34.6113C96.1223 35.8305 96.123 37.0499 96.1342 38.2691C96.1372 38.6023 95.9208 38.5346 95.7293 38.5452C95.5271 38.5561 95.3702 38.5462 95.3772 38.2649C95.3928 37.648 95.382 37.0303 95.3818 36.4129Z" fill="#78797B"/>
<path d="M135.437 33.5239C135.151 33.5136 134.948 33.3329 134.932 33.0191C134.915 32.7043 135.105 32.4973 135.424 32.4538C135.717 32.4135 135.996 32.6821 135.999 32.9828C136.003 33.2685 135.77 33.5101 135.437 33.5239Z" fill="#797B7D"/>
<path d="M95.7657 33.5269C95.4442 33.5071 95.2365 33.344 95.2193 33.0191C95.2024 32.6971 95.3853 32.4936 95.7055 32.4516C95.9893 32.4145 96.3069 32.7004 96.2902 32.9816C96.2713 33.2976 96.0899 33.4853 95.7657 33.5269Z" fill="#7B7C7F"/>
<path d="M191.261 32.96C191.294 32.6442 191.46 32.447 191.781 32.4222C192.069 32.3998 192.359 32.6956 192.329 32.9811C192.296 33.2974 192.1 33.4965 191.784 33.4921C191.465 33.4879 191.291 33.2831 191.261 32.96Z" fill="#7A7B7E"/>
</svg>
