<svg width="246" height="40" viewBox="0 0 246 40" fill="none" xmlns="http://www.w3.org/2000/svg">
<g id="649abefbbb566a2002faf6f9_Group 2127 1" clip-path="url(#clip0_10448_862)">
<path id="Vector" d="M31.0602 8.64587C27.8162 10.5962 24.9983 13.3756 22.9688 16.883C22.8889 17.0212 22.809 17.1594 22.7344 17.3028C22.6599 17.1594 22.58 17.0265 22.5001 16.883C20.4706 13.3703 17.6634 10.5962 14.4087 8.64587C16.3743 5.08528 19.256 2.09866 22.7291 -0.000488281C26.2075 2.09866 29.0893 5.08528 31.0549 8.64587H31.0602Z" fill="#0F9300"/>
<path id="Vector_2" d="M11.5423 19.8161C11.5423 19.9756 11.5423 20.135 11.553 20.2997C11.4145 20.2094 11.276 20.1297 11.1375 20.0499C7.62179 18.0199 3.7972 17.0208 0.00454566 16.9464C-0.0753555 12.9235 0.899436 8.94309 2.8224 5.40908C2.83306 5.39314 2.83838 5.38251 2.84371 5.36657C2.85437 5.34531 2.86502 5.32937 2.87034 5.30811C6.93469 5.39314 10.9244 6.54102 14.4028 8.64546C12.5757 11.9563 11.5317 15.7613 11.5317 19.8108L11.5423 19.8161Z" fill="#0F9300"/>
<path id="Vector_3" d="M22.7412 17.3074C20.7011 20.9902 19.7849 24.9972 19.8648 28.9404C17.9685 25.4861 15.1613 22.4729 11.555 20.3046C11.5444 20.1453 11.5444 19.9858 11.5444 19.821C11.5444 15.7716 12.5884 11.9613 14.4156 8.65576C17.6649 10.6061 20.4774 13.3802 22.5069 16.8929C22.5868 17.0364 22.6667 17.1693 22.7412 17.3127V17.3074Z" fill="#14C000"/>
<path id="Vector_4" d="M22.7346 39.6285C14.8937 39.4638 7.32428 35.324 3.11083 28.0487C1.08134 24.5413 0.0799018 20.7256 0 16.9419C3.79265 17.011 7.6173 18.0154 11.1329 20.0454C11.2768 20.1251 11.4099 20.2048 11.5484 20.2952C11.7135 28.4951 16.1508 35.6481 22.7346 39.6285Z" fill="#14C000"/>
<path id="Vector_5" d="M33.9222 20.3058C33.7571 28.5057 29.3252 35.6587 22.736 39.6339C16.1521 35.6535 11.7202 28.5004 11.5498 20.3004C15.156 22.4687 17.9686 25.4819 19.8596 28.9362C19.7797 24.9983 20.6958 20.9913 22.736 17.3032C24.7708 20.986 25.6924 24.993 25.6124 28.9309C27.5087 25.4819 30.316 22.474 33.9222 20.3004V20.3058Z" fill="#23FF0A"/>
<path id="Vector_6" d="M33.9327 19.8162C33.9327 19.9756 33.9327 20.1404 33.922 20.3051C30.3158 22.4733 27.5086 25.4812 25.6123 28.9355C25.6922 24.9976 24.7707 20.9906 22.7358 17.3078C22.8051 17.1644 22.885 17.0262 22.9702 16.888C24.9997 13.3806 27.8123 10.6012 31.0616 8.65088C32.8887 11.9617 33.9327 15.7667 33.9327 19.8162Z" fill="#14C000"/>
<path id="Vector_7" d="M45.4802 16.9513C41.6875 17.0204 37.8576 18.0248 34.3419 20.0548C34.1981 20.1345 34.0649 20.2143 33.9264 20.3046C33.937 20.1452 33.937 19.9804 33.937 19.8157C33.937 15.7662 32.893 11.9558 31.0659 8.65034C34.5497 6.5459 38.5394 5.39802 42.5984 5.31299C42.609 5.33425 42.6197 5.3555 42.6304 5.37145C44.5693 8.90546 45.5548 12.9124 45.4802 16.9566V16.9513Z" fill="#0F9300"/>
<path id="Vector_8" d="M45.4758 16.9526C45.4066 20.7364 44.3944 24.552 42.365 28.0595C38.1568 35.3347 30.5875 39.4692 22.7358 39.634C29.3304 35.6589 33.7569 28.5059 33.922 20.3059C34.0605 20.2156 34.199 20.1359 34.3375 20.0562C37.8532 18.0261 41.6831 17.027 45.4758 16.9526Z" fill="#14C000"/>
<path id="Vector_9" d="M59.1994 22.2737C59.1994 26.8682 62.332 28.4309 65.337 28.4309C67.9419 28.4309 70.4958 27.2674 70.4958 24.9404C70.4958 22.6134 68.3763 22.0954 64.5454 21.2631C60.9871 20.4988 56.535 19.4541 56.535 15.2333C56.535 11.9891 59.1739 8.86377 64.5708 8.86377C70.5808 8.86377 72.9817 12.7789 72.9817 16.8893H69.7633C69.7633 13.3649 68.1976 11.471 64.639 11.471C61.4808 11.471 59.7613 13.1526 59.7613 14.9615C59.7613 17.0167 61.9064 17.5348 65.3115 18.2992C69.1503 19.123 73.7475 20.3798 73.7475 24.7876C73.7475 28.4564 70.4021 31.0297 65.2433 31.0297C59.5654 31.0297 55.9731 27.7515 55.9731 22.2737H59.1994Z" fill="white"/>
<path id="Vector_10" d="M82.1095 14.3403C87.0587 14.3403 89.8918 18.2281 89.9516 23.2797H77.3743C77.3743 26.4084 79.3111 28.6601 82.3568 28.6601C84.422 28.6601 86.2052 27.6565 86.8793 25.6832L89.465 26.8048C88.4837 29.0565 86.265 31.0299 82.5451 31.0299C77.5279 31.0299 74.2681 27.5047 74.2681 22.7652C74.2681 18.0257 77.1949 14.3403 82.1095 14.3403ZM82.1095 16.7101C79.8058 16.7101 77.8351 18.3799 77.4933 21.087H86.6917C86.3506 18.2281 84.3541 16.7101 82.1095 16.7101Z" fill="white"/>
<path id="Vector_11" d="M99.8829 14.3403V17.6602C99.4786 17.5066 98.7997 17.3529 98.2065 17.3529C96.4091 17.3529 94.3622 18.9489 94.3622 21.6287V30.7691H91.2573V14.622H94.3622V18.8039C95.1016 15.9704 97.3978 14.3403 99.8829 14.3403Z" fill="white"/>
<path id="Vector_12" d="M106.942 14.3403C111.892 14.3403 114.725 18.2281 114.785 23.2797H102.207C102.207 26.4084 104.144 28.6601 107.19 28.6601C109.255 28.6601 111.038 27.6565 111.712 25.6832L114.298 26.8048C113.317 29.0565 111.098 31.0299 107.378 31.0299C102.361 31.0299 99.1011 27.5047 99.1011 22.7652C99.1011 18.0257 102.028 14.3403 106.942 14.3403ZM106.942 16.7101C104.639 16.7101 102.668 18.3799 102.326 21.087H111.525C111.184 18.2281 109.187 16.7101 106.942 16.7101Z" fill="white"/>
<path id="Vector_13" d="M130.458 21.3108V30.7691H127.383V22.6609C127.383 19.2902 126.768 17.0912 123.812 17.0912C120.421 17.0912 119.165 21.226 119.165 23.824V30.7691H116.09V14.7053H119.165V19.4515C120.028 16.4544 122.027 14.3403 124.982 14.3403C128.528 14.3403 130.466 16.5393 130.466 21.3194L130.458 21.3108Z" fill="white"/>
<path id="Vector_14" d="M134.391 8.60254C135.578 8.60254 136.478 9.48844 136.478 10.664C136.478 11.8396 135.578 12.6915 134.391 12.6915C133.206 12.6915 132.296 11.8311 132.296 10.664C132.296 9.49698 133.171 8.60254 134.391 8.60254ZM135.95 14.6508V30.7684H132.833V14.6508H135.95Z" fill="white"/>
<path id="Vector_15" d="M148.25 27.1775V29.8358C147.449 30.657 146.128 31.0295 144.841 31.0295C141.611 31.0295 140.136 28.7437 140.136 25.5097V16.9928H136.479V14.6731H140.136V14.6393L140.963 9.90674H143.204V14.6646H149.026V16.9844H143.204V25.5012C143.204 27.7616 144.091 28.4643 145.6 28.4643C146.767 28.4643 147.688 27.9479 148.242 27.1859L148.25 27.1775Z" fill="white"/>
<path id="Vector_16" d="M162.879 14.61L156.634 30.9666C155.175 34.5523 154.094 36.5066 151.314 36.5066C150.259 36.5066 148.869 36.1073 148.251 35.589V32.768C148.869 33.2269 149.95 33.7452 150.971 33.7452C152.361 33.7452 152.893 32.2412 153.571 30.6862L153.631 30.5333L147.196 14.6355H150.379L155.141 26.6417L159.808 14.6016H162.87L162.879 14.61Z" fill="white"/>
<path id="Vector_17" d="M170.542 22.2737C170.542 26.8682 173.676 28.4309 176.682 28.4309C179.288 28.4309 181.844 27.2674 181.844 24.9404C181.844 22.6134 179.723 22.0954 175.891 21.2631C172.33 20.4988 167.876 19.4541 167.876 15.2333C167.876 11.9891 170.516 8.86377 175.916 8.86377C181.928 8.86377 184.33 12.7789 184.33 16.8893H181.111C181.111 13.3649 179.544 11.471 175.984 11.471C172.824 11.471 171.104 13.1526 171.104 14.9615C171.104 17.0167 173.25 17.5348 176.656 18.2992C180.498 19.123 185.097 20.3798 185.097 24.7876C185.097 28.4564 181.75 31.0297 176.589 31.0297C170.908 31.0297 167.323 27.7515 167.323 22.2737H170.542Z" fill="white"/>
<path id="Vector_18" d="M201.034 21.3272V30.7688H197.959V22.6747C197.959 19.31 197.344 17.1148 194.388 17.1148C190.997 17.1148 189.742 21.2423 189.742 23.8358V30.7688H186.667V9.38525H189.742V19.471C190.604 16.4792 192.603 14.3688 195.559 14.3688C199.103 14.3688 201.043 16.5639 201.043 21.3356L201.034 21.3272Z" fill="white"/>
<path id="Vector_19" d="M204.968 8.60254C206.154 8.60254 207.054 9.48844 207.054 10.664C207.054 11.8396 206.154 12.6915 204.968 12.6915C203.781 12.6915 202.872 11.8311 202.872 10.664C202.872 9.49698 203.747 8.60254 204.968 8.60254ZM206.526 14.6508V30.7684H203.409V14.6508H206.526Z" fill="white"/>
<path id="Vector_20" d="M215.941 14.3403C220.89 14.3403 223.722 18.2281 223.782 23.2797H211.205C211.205 26.4084 213.141 28.6601 216.188 28.6601C218.253 28.6601 220.036 27.6565 220.71 25.6832L223.295 26.8048C222.314 29.0565 220.096 31.0299 216.375 31.0299C211.358 31.0299 208.099 27.5047 208.099 22.7652C208.099 18.0257 211.025 14.3403 215.941 14.3403ZM215.941 16.7101C213.637 16.7101 211.665 18.3799 211.324 21.087H220.523C220.181 18.2281 218.184 16.7101 215.941 16.7101Z" fill="white"/>
<path id="Vector_21" d="M228.224 9.38525V30.7688H225.088V9.38525H228.224Z" fill="white"/>
<path id="Vector_22" d="M245.992 9.39366V30.6669H242.921V27.1678C241.872 29.5371 239.782 31.0295 237.36 31.0295C232.959 31.0295 229.794 27.5051 229.794 22.5472C229.794 17.5893 232.873 14.3431 237.147 14.3431C239.637 14.3431 241.94 15.8945 242.93 18.1711V9.38525H246L245.992 9.39366ZM242.947 22.8001C242.947 19.2166 240.797 16.6871 237.812 16.6871C234.827 16.6871 232.865 19.1829 232.865 22.5809C232.865 25.9789 234.954 28.7192 237.812 28.7192C240.67 28.7192 242.947 26.1644 242.947 22.7917V22.8001Z" fill="white"/>
</g>
<defs>
<clipPath id="clip0_10448_862">
<rect width="246" height="40" fill="white"/>
</clipPath>
</defs>
</svg>
