<svg width="131" height="131" viewBox="0 0 131 131" fill="none" xmlns="http://www.w3.org/2000/svg">
<g filter="url(#filter0_ii_7343_405)">
<path fill-rule="evenodd" clip-rule="evenodd" d="M23.4224 10.916C22.2442 10.916 21.2891 11.8711 21.2891 13.0493V117.949C21.2891 119.128 22.2442 120.083 23.4224 120.083H107.581C108.759 120.083 109.714 119.128 109.714 117.949L109.714 38.2077L82.4224 10.916H23.4224Z" fill="#FA4E4E"/>
</g>
<path d="M83.2294 84.4371C79.5457 84.1636 75.9991 82.7956 73.1342 80.3332C67.5407 81.564 62.2195 83.3421 56.899 85.5315C52.6702 93.0552 48.7136 96.8856 45.3028 96.8856C44.6205 96.8856 43.8024 96.7491 43.2566 96.3384C41.7556 95.6547 40.9375 94.1496 40.9375 92.6451C40.9375 91.4136 41.2104 87.9939 54.1705 82.3848C57.1726 76.9128 59.4911 71.3044 61.4015 65.4224C59.764 62.1392 56.2174 54.0677 58.6723 49.9644C59.4911 48.4592 61.1286 47.6384 62.9025 47.7756C64.2664 47.7756 65.6303 48.4592 66.4491 49.5536C68.223 52.016 68.0866 57.2144 65.7668 64.8752C67.9501 68.9732 70.8098 72.6732 74.2251 75.8191C77.0908 75.2712 79.955 74.8612 82.82 74.8612C89.2322 74.9976 90.1874 78.0072 90.0509 79.786C90.0509 84.4371 85.5485 84.4371 83.2294 84.4371ZM45.0306 92.918L45.4399 92.7816C47.3497 92.0979 48.85 90.7299 49.9417 88.9512C47.8948 89.772 46.258 91.14 45.0306 92.9187V92.918ZM63.1748 51.8796H62.7654C62.6289 51.8796 62.356 51.8796 62.2195 52.016C61.6737 54.3413 62.0831 56.8036 63.0383 58.9924C63.857 56.6672 63.857 54.2048 63.1748 51.8796ZM64.13 71.7151L63.9935 71.9881L63.857 71.8516C62.6289 74.9983 61.2643 78.1444 59.764 81.154L60.0369 81.0175V81.2904C63.0707 80.1905 66.1688 79.2768 69.314 78.5544L69.1775 78.418H69.5869C67.5401 76.3656 65.6303 74.0404 64.13 71.7151ZM82.6835 78.9652C81.4554 78.9652 80.3644 78.9652 79.1363 79.2381C80.5009 79.9224 81.8655 80.196 83.2294 80.3332C84.1846 80.4696 85.1398 80.3332 85.9578 80.0596C85.9578 79.6488 85.412 78.9652 82.6835 78.9652Z" fill="white"/>
<path d="M107.153 35.6494L84.9805 35.6494L109.714 60.3825L109.714 38.208L107.153 35.6494Z" fill="url(#paint0_linear_7343_405)"/>
<path d="M84.5526 38.208L109.711 38.208L82.4193 10.9163L82.4193 36.0747C82.4193 37.2529 83.3744 38.208 84.5526 38.208Z" fill="#FDB8B8"/>
<defs>
<filter id="filter0_ii_7343_405" x="21.2891" y="10.7827" width="88.4258" height="109.434" filterUnits="userSpaceOnUse" color-interpolation-filters="sRGB">
<feFlood flood-opacity="0" result="BackgroundImageFix"/>
<feBlend mode="normal" in="SourceGraphic" in2="BackgroundImageFix" result="shape"/>
<feColorMatrix in="SourceAlpha" type="matrix" values="0 0 0 0 0 0 0 0 0 0 0 0 0 0 0 0 0 0 127 0" result="hardAlpha"/>
<feOffset dy="-0.266667"/>
<feGaussianBlur stdDeviation="0.0666667"/>
<feComposite in2="hardAlpha" operator="arithmetic" k2="-1" k3="1"/>
<feColorMatrix type="matrix" values="0 0 0 0 0 0 0 0 0 0 0 0 0 0 0 0 0 0 0.3 0"/>
<feBlend mode="normal" in2="shape" result="effect1_innerShadow_7343_405"/>
<feColorMatrix in="SourceAlpha" type="matrix" values="0 0 0 0 0 0 0 0 0 0 0 0 0 0 0 0 0 0 127 0" result="hardAlpha"/>
<feOffset dy="0.266667"/>
<feGaussianBlur stdDeviation="0.0666667"/>
<feComposite in2="hardAlpha" operator="arithmetic" k2="-1" k3="1"/>
<feColorMatrix type="matrix" values="0 0 0 0 1 0 0 0 0 1 0 0 0 0 1 0 0 0 0.3 0"/>
<feBlend mode="normal" in2="effect1_innerShadow_7343_405" result="effect2_innerShadow_7343_405"/>
</filter>
<linearGradient id="paint0_linear_7343_405" x1="90.5241" y1="30.1058" x2="115.257" y2="54.8389" gradientUnits="userSpaceOnUse">
<stop stop-opacity="0.2"/>
<stop offset="1" stop-opacity="0"/>
</linearGradient>
</defs>
</svg>
