<svg width="43" height="43" viewBox="0 0 43 43" fill="none" xmlns="http://www.w3.org/2000/svg">
<g filter="url(#filter0_ii_8517_1492)">
<path fill-rule="evenodd" clip-rule="evenodd" d="M9.12064 3.5835C7.94243 3.5835 6.9873 4.53862 6.9873 5.71683V37.2835C6.9873 38.4617 7.94243 39.4168 9.12064 39.4168H33.879C35.0572 39.4168 36.0123 38.4617 36.0123 37.2835L36.0123 12.5418L27.054 3.5835H9.12064Z" fill="#F6AD00"/>
</g>
<g filter="url(#filter1_dd_8517_1492)">
<path d="M13.3845 29.5509L16.6496 24.7519C16.6914 24.6904 16.7462 24.6388 16.8102 24.6008C16.8741 24.5628 16.9456 24.5394 17.0196 24.5321C17.0937 24.5248 17.1684 24.5339 17.2385 24.5586C17.3086 24.5834 17.3724 24.6233 17.4254 24.6755L19.5833 26.7897L24.3177 19.3688C24.3646 19.2952 24.4297 19.2349 24.5067 19.1937C24.5837 19.1526 24.67 19.132 24.7573 19.1339C24.8445 19.1359 24.9298 19.1603 25.0049 19.2049C25.08 19.2494 25.1423 19.3126 25.1858 19.3883L31.0683 29.5829C31.113 29.6601 31.1365 29.7477 31.1365 29.8368C31.1366 29.926 31.1131 30.0136 31.0685 30.0909C31.0239 30.1681 30.9598 30.2322 30.8825 30.2767C30.8052 30.3213 30.7176 30.3447 30.6284 30.3446H13.8045C13.712 30.3448 13.6213 30.3197 13.5421 30.2721C13.4628 30.2245 13.3981 30.1562 13.3549 30.0745C13.3116 29.9928 13.2915 29.9009 13.2967 29.8086C13.3019 29.7163 13.3322 29.6272 13.3843 29.5509H13.3845Z" fill="white"/>
<path d="M14.3623 18.6846C14.3623 19.3635 14.632 20.0145 15.112 20.4945C15.5921 20.9746 16.2431 21.2442 16.922 21.2442C17.6008 21.2442 18.2519 20.9746 18.7319 20.4945C19.2119 20.0145 19.4816 19.3635 19.4816 18.6846C19.4816 18.0058 19.2119 17.3547 18.7319 16.8747C18.2519 16.3947 17.6008 16.125 16.922 16.125C16.2431 16.125 15.5921 16.3947 15.112 16.8747C14.632 17.3547 14.3623 18.0058 14.3623 18.6846Z" fill="white"/>
</g>
<path d="M35.1721 11.7017L27.894 11.7017L36.0125 19.8201L36.0125 12.5415L35.1721 11.7017Z" fill="url(#paint0_linear_8517_1492)"/>
<path d="M29.1877 12.5415L36.0127 12.5415L27.0544 3.58317L27.0544 10.4082C27.0544 11.5864 28.0095 12.5415 29.1877 12.5415Z" fill="#FBDE99"/>
<defs>
<filter id="filter0_ii_8517_1492" x="6.9873" y="3.45016" width="29.0249" height="36.1002" filterUnits="userSpaceOnUse" color-interpolation-filters="sRGB">
<feFlood flood-opacity="0" result="BackgroundImageFix"/>
<feBlend mode="normal" in="SourceGraphic" in2="BackgroundImageFix" result="shape"/>
<feColorMatrix in="SourceAlpha" type="matrix" values="0 0 0 0 0 0 0 0 0 0 0 0 0 0 0 0 0 0 127 0" result="hardAlpha"/>
<feOffset dy="-0.266667"/>
<feGaussianBlur stdDeviation="0.0666667"/>
<feComposite in2="hardAlpha" operator="arithmetic" k2="-1" k3="1"/>
<feColorMatrix type="matrix" values="0 0 0 0 0 0 0 0 0 0 0 0 0 0 0 0 0 0 0.3 0"/>
<feBlend mode="normal" in2="shape" result="effect1_innerShadow_8517_1492"/>
<feColorMatrix in="SourceAlpha" type="matrix" values="0 0 0 0 0 0 0 0 0 0 0 0 0 0 0 0 0 0 127 0" result="hardAlpha"/>
<feOffset dy="0.266667"/>
<feGaussianBlur stdDeviation="0.0666667"/>
<feComposite in2="hardAlpha" operator="arithmetic" k2="-1" k3="1"/>
<feColorMatrix type="matrix" values="0 0 0 0 1 0 0 0 0 1 0 0 0 0 1 0 0 0 0.3 0"/>
<feBlend mode="normal" in2="effect1_innerShadow_8517_1492" result="effect2_innerShadow_8517_1492"/>
</filter>
<filter id="filter1_dd_8517_1492" x="13.1626" y="15.9917" width="19.0408" height="15.6864" filterUnits="userSpaceOnUse" color-interpolation-filters="sRGB">
<feFlood flood-opacity="0" result="BackgroundImageFix"/>
<feColorMatrix in="SourceAlpha" type="matrix" values="0 0 0 0 0 0 0 0 0 0 0 0 0 0 0 0 0 0 127 0" result="hardAlpha"/>
<feOffset dx="0.533333" dy="0.8"/>
<feGaussianBlur stdDeviation="0.266667"/>
<feColorMatrix type="matrix" values="0 0 0 0 0 0 0 0 0 0 0 0 0 0 0 0 0 0 0.1 0"/>
<feBlend mode="normal" in2="BackgroundImageFix" result="effect1_dropShadow_8517_1492"/>
<feColorMatrix in="SourceAlpha" type="matrix" values="0 0 0 0 0 0 0 0 0 0 0 0 0 0 0 0 0 0 127 0" result="hardAlpha"/>
<feOffset/>
<feGaussianBlur stdDeviation="0.0666667"/>
<feColorMatrix type="matrix" values="0 0 0 0 0 0 0 0 0 0 0 0 0 0 0 0 0 0 0.4 0"/>
<feBlend mode="normal" in2="effect1_dropShadow_8517_1492" result="effect2_dropShadow_8517_1492"/>
<feBlend mode="normal" in="SourceGraphic" in2="effect2_dropShadow_8517_1492" result="shape"/>
</filter>
<linearGradient id="paint0_linear_8517_1492" x1="29.7137" y1="9.882" x2="37.8322" y2="18.0005" gradientUnits="userSpaceOnUse">
<stop stop-opacity="0.2"/>
<stop offset="1" stop-opacity="0"/>
</linearGradient>
</defs>
</svg>
