<svg width="24" height="24" viewBox="0 0 24 24" fill="none" xmlns="http://www.w3.org/2000/svg">
<g id="privacy-policy 1">
<g id="_x39_22">
<path id="Vector" d="M14.9787 1.36523H7.55717C6.76171 1.36523 5.99463 1.64972 5.36024 2.26059L2.19404 5.3806C1.62713 5.94738 1.26172 6.7298 1.26172 7.61443V17.639C1.26172 19.3837 2.68329 20.8052 4.42792 20.8052H13.0494C13.0402 20.796 13.0402 20.7868 13.0309 20.7775C11.6463 18.2852 11.8125 15.396 11.9048 14.5191C11.9695 13.7437 12.4218 13.0606 13.1141 12.6914L16.8526 10.6698C17.194 10.4852 17.5725 10.3929 17.951 10.3929C18.0157 10.3929 18.0894 10.3929 18.1541 10.4021V4.53138C18.1541 2.78675 16.7325 1.36523 14.9787 1.36523ZM8.58177 15.1098H5.8495C5.34176 15.1098 4.92642 14.6945 4.92642 14.1867C4.92642 13.6698 5.34176 13.2637 5.8495 13.2637H8.58177C9.09863 13.2637 9.50485 13.6698 9.50485 14.1867C9.50485 14.6945 9.09863 15.1098 8.58177 15.1098ZM11.3234 10.8729H5.8495C5.34176 10.8729 4.92642 10.4575 4.92642 9.94984C4.92642 9.43292 5.34176 9.02676 5.8495 9.02676H11.3234C11.831 9.02676 12.2465 9.43292 12.2465 9.94984C12.2465 10.4575 11.831 10.8729 11.3234 10.8729Z" fill="white"/>
<path id="Vector_2" d="M14.4252 14.3615C14.2868 14.4354 14.1944 14.5646 14.1852 14.7215C14.1022 15.4877 13.9729 17.9062 15.0897 19.9185C15.1821 20.0846 15.2837 20.2508 15.3944 20.4077C16.0683 21.3862 17.0745 22.2077 18.579 22.6323C23.3698 21.2754 22.8068 15.8939 22.6222 14.7031C22.6037 14.5554 22.5113 14.4354 22.3822 14.3615L18.6252 12.3307C18.4868 12.2569 18.3114 12.2569 18.1729 12.3307L18.1544 12.34C18.0611 12.3905 14.1818 14.4934 14.4252 14.3615Z" fill="white"/>
</g>
</g>
</svg>
