<svg width="21" height="21" viewBox="0 0 21 21" fill="none" xmlns="http://www.w3.org/2000/svg">
<path d="M15.0738 20.0902C14.577 20.0902 14.0777 19.9709 13.6158 19.7293L11.0684 18.3968C10.741 18.2255 10.35 18.2256 10.0225 18.3968L7.47507 19.7293C5.21709 20.9393 2.47715 18.9631 2.93509 16.4389L3.42163 13.6167C3.48345 13.2582 3.36367 12.8921 3.10125 12.6376L1.0404 10.6389C-0.820905 8.86565 0.230127 5.65867 2.7742 5.31603L5.62225 4.90428C5.98756 4.85146 6.30285 4.62402 6.4656 4.29586L7.7393 1.72816C8.85572 -0.576457 12.2359 -0.575653 13.3517 1.72816L14.6254 4.29581C14.7881 4.62397 15.1034 4.85146 15.4687 4.90423L18.3168 5.31603C20.8617 5.65892 21.9113 8.8664 20.0506 10.6389L17.9897 12.6376C17.7273 12.892 17.6075 13.2581 17.6693 13.6167L18.1559 16.4388C18.3584 17.614 17.8844 18.7812 16.9187 19.4849C16.3681 19.8863 15.7232 20.0901 15.0738 20.0902ZM10.5454 2.00154C10.1087 2.00154 9.7329 2.23335 9.54034 2.62157L8.26665 5.18927C7.81017 6.10942 6.92917 6.74674 5.90985 6.89406L3.0618 7.30581C2.15778 7.41794 1.77303 8.57176 2.44006 9.19572L4.50091 11.1944C5.24036 11.9115 5.57757 12.9447 5.40286 13.9582L4.91632 16.7804C4.84349 17.2027 5.008 17.6063 5.35632 17.8602C5.71061 18.1184 6.15433 18.1511 6.54316 17.9477L9.09055 16.6153C10.0015 16.1387 11.0892 16.1387 12.0002 16.6153L14.5476 17.9477C14.9364 18.1511 15.3801 18.1184 15.7345 17.8602C16.0828 17.6063 16.2473 17.2027 16.1744 16.7804L15.6879 13.9582C15.5132 12.9447 15.8504 11.9115 16.5899 11.1944L18.6507 9.19572C19.3179 8.57156 18.9327 7.41789 18.029 7.30586L15.1809 6.89411C14.1616 6.74674 13.2806 6.10942 12.8241 5.18932L11.5504 2.62163C11.358 2.23335 10.9822 2.00154 10.5454 2.00154Z" fill="#8289AD"/>
</svg>
