<svg width="52" height="52" viewBox="0 0 52 52" fill="none" xmlns="http://www.w3.org/2000/svg">
<g id="security 1">
<path id="Vector" d="M12.1674 23.1805C16.7615 18.5848 24.2383 18.5832 28.8324 23.1805C33.4273 27.7746 33.4273 35.2506 28.8324 39.8447C26.5353 42.1426 23.5178 43.2915 20.5003 43.2915C17.482 43.2915 14.4645 42.1426 12.1674 39.8447C7.57249 35.2506 7.57249 27.7746 12.1674 23.1805Z" fill="white"/>
<path id="Vector_2" d="M6.02887 43.6852L8.58936 41.1255C9.22412 40.4907 10.2524 40.4907 10.8872 41.1255C11.522 41.7603 11.522 42.7886 10.8872 43.4233L8.32672 45.983C8.00934 46.3004 7.59357 46.4591 7.1778 46.4591C6.76202 46.4591 6.34625 46.3004 6.02887 45.983C5.3941 45.3483 5.3941 44.3199 6.02887 43.6852Z" fill="white"/>
<path id="Vector_3" d="M31.1235 42.1384C36.9898 36.2883 36.9898 26.7495 31.1235 20.8833C25.2735 15.0171 15.7347 15.0171 9.8685 20.8833C7.80472 22.9471 6.47221 25.4496 5.87096 28.0983C5.65971 26.7983 5.56221 25.4496 5.56221 24.0846V16.3171C5.56221 12.8396 7.73975 9.67088 10.9898 8.4196L22.966 3.82082C24.9323 3.05712 27.0772 3.05712 29.0435 3.82082L41.0197 8.4196C44.2697 9.67088 46.4473 12.8396 46.4473 16.3171V24.0846C46.4473 35.1021 39.9635 43.9095 28.6698 48.2646C27.8085 48.5896 26.8985 48.7521 26.0047 48.7521C25.111 48.7521 24.201 48.5896 23.3397 48.2646C21.9748 47.7446 20.6747 47.1434 19.4559 46.4933C19.7972 46.5259 20.1548 46.5421 20.496 46.5421C24.3472 46.5421 28.1984 45.0796 31.1235 42.1384Z" fill="white"/>
</g>
</svg>
