<svg width="18" height="18" viewBox="0 0 18 18" fill="none" xmlns="http://www.w3.org/2000/svg">
<g id="setting 1">
<g id="Layer 2">
<path id="Vector" d="M16.4306 6.66002C16.1024 6.61235 15.7892 6.49124 15.5142 6.30572C15.2393 6.1202 15.0098 5.87504 14.8427 5.58851C14.6757 5.30198 14.5754 4.98146 14.5494 4.65081C14.5234 4.32015 14.5723 3.9879 14.6925 3.67877C14.7689 3.47668 14.7802 3.25574 14.7247 3.04693C14.6692 2.83812 14.5498 2.65191 14.3831 2.5144C13.6474 1.89659 12.81 1.41125 11.9081 1.08002C11.7028 1.00374 11.4786 0.994208 11.2675 1.05279C11.0564 1.11137 10.8692 1.23507 10.7325 1.40627C10.5268 1.66933 10.2639 1.88208 9.96369 2.02841C9.66351 2.17473 9.33396 2.25077 9.00001 2.25077C8.66607 2.25077 8.33651 2.17473 8.03633 2.02841C7.73615 1.88208 7.47323 1.66933 7.26751 1.40627C7.13084 1.23507 6.94362 1.11137 6.73253 1.05279C6.52144 0.994208 6.29724 1.00374 6.09189 1.08002C5.2592 1.38582 4.48066 1.82257 3.78564 2.37377C3.61044 2.51247 3.48425 2.70361 3.42555 2.9192C3.36684 3.1348 3.3787 3.36353 3.45939 3.5719C3.58919 3.8892 3.64282 4.2325 3.61597 4.57427C3.58913 4.91604 3.48256 5.24677 3.30481 5.53991C3.12707 5.83305 2.88309 6.08046 2.59246 6.26228C2.30183 6.44411 1.97262 6.55528 1.63126 6.5869C1.40964 6.6106 1.20148 6.70482 1.03744 6.8557C0.87339 7.00659 0.762121 7.20615 0.720012 7.42502C0.615273 7.94348 0.562512 8.47109 0.562512 9.00002C0.561742 9.44284 0.597488 9.88496 0.669387 10.3219C0.705171 10.5478 0.81437 10.7556 0.980101 10.9132C1.14583 11.0708 1.35887 11.1694 1.58626 11.1938C1.93512 11.2265 2.27106 11.3423 2.56597 11.5316C2.86088 11.7208 3.10617 11.9779 3.28132 12.2814C3.45646 12.5848 3.55637 12.9259 3.57267 13.2759C3.58897 13.6259 3.52119 13.9747 3.37501 14.2931C3.27935 14.5003 3.25562 14.7334 3.30759 14.9556C3.35956 15.1778 3.48426 15.3762 3.66189 15.5194C4.3932 16.126 5.22258 16.6035 6.11439 16.9313C6.22843 16.9708 6.34808 16.9917 6.46876 16.9931C6.63423 16.9928 6.79721 16.9528 6.94401 16.8764C7.09082 16.8001 7.21719 16.6897 7.31251 16.5544C7.513 16.2623 7.78174 16.0235 8.09542 15.8589C8.4091 15.6942 8.75823 15.6086 9.11251 15.6094C9.45578 15.6098 9.7942 15.6904 10.1008 15.8447C10.4075 15.999 10.6739 16.2227 10.8788 16.4981C11.0151 16.6814 11.2081 16.8144 11.4279 16.8764C11.6476 16.9385 11.8818 16.9261 12.0938 16.8413C12.9092 16.5131 13.6684 16.0595 14.3438 15.4969C14.5134 15.3566 14.6342 15.1662 14.6888 14.9529C14.7434 14.7396 14.7289 14.5146 14.6475 14.31C14.5152 13.9968 14.4575 13.6571 14.479 13.3178C14.5005 12.9785 14.6005 12.6488 14.7713 12.3548C14.942 12.0607 15.1788 11.8104 15.4629 11.6236C15.7469 11.4367 16.0705 11.3185 16.4081 11.2781C16.6271 11.2479 16.8307 11.1487 16.9894 10.995C17.1482 10.8413 17.2539 10.641 17.2913 10.4231C17.3816 9.95397 17.4305 9.47777 17.4375 9.00002C17.4376 8.49611 17.3905 7.99329 17.2969 7.49815C17.2589 7.28513 17.1548 7.0895 16.9993 6.93904C16.8438 6.78858 16.6448 6.69095 16.4306 6.66002ZM11.8125 9.00002C11.8125 9.55628 11.6476 10.1001 11.3385 10.5626C11.0295 11.0251 10.5902 11.3856 10.0763 11.5984C9.56239 11.8113 8.99689 11.867 8.45132 11.7585C7.90575 11.65 7.40461 11.3821 7.01127 10.9888C6.61794 10.5954 6.35007 10.0943 6.24155 9.54872C6.13303 9.00314 6.18873 8.43764 6.4016 7.92373C6.61447 7.40981 6.97496 6.97056 7.43747 6.66152C7.89998 6.35247 8.44375 6.18752 9.00001 6.18752C9.74593 6.18752 10.4613 6.48384 10.9887 7.01129C11.5162 7.53873 11.8125 8.2541 11.8125 9.00002Z" fill="#F9F9F9"/>
</g>
</g>
</svg>
