<svg width="26" height="26" viewBox="0 0 26 26" fill="none" xmlns="http://www.w3.org/2000/svg">
<g id="cloud 1" clip-path="url(#clip0_8517_691)">
<path id="Vector" d="M26 17.748C26 20.3381 23.8928 22.4453 21.3027 22.4453H11.0703C10.5094 22.4453 10.0547 21.9906 10.0547 21.4297C10.0547 20.8688 10.5094 20.4141 11.0703 20.4141H21.3027C22.7728 20.4141 23.9688 19.2181 23.9688 17.748C23.9688 16.7528 23.4198 15.8472 22.5361 15.3847C22.0777 15.1447 21.8729 14.5985 22.0606 14.1163C22.2148 13.7204 22.293 13.3021 22.293 12.873C22.293 10.983 20.7553 9.44531 18.8652 9.44531C18.723 9.44531 18.579 9.45425 18.4372 9.47177C17.8953 9.5389 17.3966 9.1651 17.3096 8.6256C16.9591 6.45237 15.1039 4.875 12.8984 4.875C12.4018 4.875 11.9146 4.95564 11.4501 5.11469C10.9197 5.29628 10.342 5.01353 10.1603 4.48282C9.97857 3.95215 10.2615 3.37467 10.7921 3.19297C11.4688 2.96121 12.1775 2.84375 12.8984 2.84375C14.4522 2.84375 15.956 3.40087 17.133 4.41243C18.0653 5.21376 18.7481 6.25975 19.1078 7.41939C22.0059 7.5466 24.3242 9.94414 24.3242 12.873C24.3242 13.2715 24.2817 13.6645 24.1973 14.0483C25.3258 14.9292 26 16.2834 26 17.748ZM9.64844 12.9819V17.2656C9.64844 17.5037 9.57348 17.7237 9.42099 17.9062C9.3565 17.9895 7.81909 20.0238 7.81909 23.7955C7.81909 25.0111 6.78255 26 5.50845 26H4.13994C2.86584 26 1.82929 25.011 1.82929 23.7955C1.82929 19.9697 0.24573 17.9286 0.229785 17.909C0.0811992 17.7275 0 17.5002 0 17.2656V12.982C0 10.4998 2.01937 8.48047 4.50145 8.48047H5.14704C7.62907 8.48047 9.64844 10.4998 9.64844 12.9819ZM7.61719 12.9819C7.61719 11.6198 6.50909 10.5117 5.14698 10.5117H4.50145C3.13935 10.5117 2.03125 11.6198 2.03125 12.9819V16.9405C2.57045 17.7493 3.86054 20.0734 3.86054 23.7955C3.86054 23.8624 3.98841 23.9688 4.13994 23.9688H5.50845C5.65998 23.9688 5.78784 23.8624 5.78784 23.7955C5.78784 20.0734 7.07794 17.7493 7.61714 16.9405V12.9819H7.61719ZM1.32031 3.45312C1.32031 1.54908 2.86939 0 4.77344 0C6.67748 0 8.22656 1.54908 8.22656 3.45312C8.22656 5.35717 6.67748 6.90625 4.77344 6.90625C2.86939 6.90625 1.32031 5.35717 1.32031 3.45312ZM3.35156 3.45312C3.35156 4.23714 3.98943 4.875 4.77344 4.875C5.55745 4.875 6.19531 4.23714 6.19531 3.45312C6.19531 2.66911 5.55745 2.03125 4.77344 2.03125C3.98943 2.03125 3.35156 2.66911 3.35156 3.45312Z" fill="#8289AD"/>
</g>
<defs>
<clipPath id="clip0_8517_691">
<rect width="26" height="26" fill="white"/>
</clipPath>
</defs>
</svg>
