<svg width="30" height="30" viewBox="0 0 30 30" fill="none" xmlns="http://www.w3.org/2000/svg">
<g id="suitcase 1">
<path id="Vector" d="M27.4961 11.25C27.4961 10.587 27.2327 9.95107 26.7639 9.48223C26.295 9.01339 25.6591 8.75 24.9961 8.75H4.99609C4.33305 8.75 3.69717 9.01339 3.22833 9.48223C2.75949 9.95107 2.49609 10.587 2.49609 11.25V23.75C2.49609 24.413 2.75949 25.0489 3.22833 25.5178C3.69717 25.9866 4.33305 26.25 4.99609 26.25H24.9961C25.6591 26.25 26.295 25.9866 26.7639 25.5178C27.2327 25.0489 27.4961 24.413 27.4961 23.75V11.25ZM18.7461 18.125C18.7461 18.2908 18.6802 18.4497 18.563 18.5669C18.4458 18.6842 18.2869 18.75 18.1211 18.75H16.2461V20.625C16.2461 20.7908 16.1802 20.9497 16.063 21.0669C15.9458 21.1842 15.7869 21.25 15.6211 21.25H14.3711C14.2053 21.25 14.0464 21.1842 13.9292 21.0669C13.8119 20.9497 13.7461 20.7908 13.7461 20.625V18.75H11.8711C11.7053 18.75 11.5464 18.6842 11.4292 18.5669C11.3119 18.4497 11.2461 18.2908 11.2461 18.125V16.875C11.2461 16.7092 11.3119 16.5503 11.4292 16.4331C11.5464 16.3158 11.7053 16.25 11.8711 16.25H13.7461V14.375C13.7461 14.2092 13.8119 14.0503 13.9292 13.9331C14.0464 13.8158 14.2053 13.75 14.3711 13.75H15.6211C15.7869 13.75 15.9458 13.8158 16.063 13.9331C16.1802 14.0503 16.2461 14.2092 16.2461 14.375V16.25H18.1211C18.2869 16.25 18.4458 16.3158 18.563 16.4331C18.6802 16.5503 18.7461 16.7092 18.7461 16.875V18.125ZM9.37109 3.75H20.6211C20.7869 3.75 20.9458 3.81585 21.063 3.93306C21.1802 4.05027 21.2461 4.20924 21.2461 4.375V5.625C21.2461 5.79076 21.1802 5.94973 21.063 6.06694C20.9458 6.18415 20.7869 6.25 20.6211 6.25H9.37109C9.20533 6.25 9.04636 6.18415 8.92915 6.06694C8.81194 5.94973 8.74609 5.79076 8.74609 5.625V4.375C8.74609 4.20924 8.81194 4.05027 8.92915 3.93306C9.04636 3.81585 9.20533 3.75 9.37109 3.75Z" fill="white"/>
</g>
</svg>
