<svg width="26" height="26" viewBox="0 0 26 26" fill="none" xmlns="http://www.w3.org/2000/svg">
<g id="isotonic 1">
<path id="Vector" d="M17.6211 26H8.88672C7.41203 26 5.89905 25.4216 4.73586 24.4132C3.48293 23.327 2.79297 21.9068 2.79297 20.4141V15.0608C2.79297 11.4278 5.01917 8.25789 5.11393 8.1247C5.93907 7.05793 7.50628 8.17461 6.76889 9.30246C6.7504 9.32867 4.82422 12.0886 4.82422 15.0608V20.4141C4.82422 22.416 7.00807 23.9688 8.88672 23.9688H17.6211C19.5811 23.9688 21.1758 22.3741 21.1758 20.4141V15.0608C21.1758 12.0696 19.2506 9.32984 19.2311 9.30246C18.9059 8.84543 19.0127 8.21133 19.4697 7.88607C19.9267 7.56097 20.5608 7.66761 20.8861 8.12464C20.9808 8.25789 23.207 11.4278 23.207 15.0608V20.4141C23.207 23.4941 20.7012 26 17.6211 26ZM21.1758 4.0625V3.04688C21.1758 1.36683 19.809 0 18.1289 0H7.87109C6.19105 0 4.82422 1.36683 4.82422 3.04688V4.0625C4.82422 5.18253 5.73544 6.09375 6.85547 6.09375H19.1445C20.2646 6.09375 21.1758 5.18253 21.1758 4.0625ZM18.1289 2.03125C18.6889 2.03125 19.1445 2.48686 19.1445 3.04688V4.0625H6.85547V3.04688C6.85547 2.48686 7.31108 2.03125 7.87109 2.03125H18.1289ZM12.8945 20.3815L15.7266 17.6354C16.2824 17.0921 16.4521 16.2759 16.1587 15.556C15.8655 14.8364 15.1741 14.3715 14.3973 14.3715H12.1235L14.8264 11.7484C15.7561 10.7714 14.4152 9.39113 13.4118 10.2907L10.4819 13.1342C9.92301 13.6766 9.75102 14.4934 10.0437 15.2152C10.3362 15.9366 11.0281 16.4028 11.8063 16.4028H14.0799L11.4805 18.9232C11.0778 19.3137 11.0679 19.9567 11.4584 20.3594C11.6576 20.5648 11.9224 20.668 12.1876 20.668C12.4423 20.668 12.6972 20.5728 12.8945 20.3815Z" fill="#8289AD"/>
</g>
</svg>
