<svg width="26" height="26" viewBox="0 0 26 26" fill="none" xmlns="http://www.w3.org/2000/svg">
<g id="growth 1" clip-path="url(#clip0_8517_708)">
<path id="Vector" d="M19.9062 21.2266H6.09268C2.7332 21.2266 0 18.4934 0 15.1339V6.80469C0 3.44459 2.73366 0.710938 6.09375 0.710938H16.1484C16.7094 0.710938 17.1641 1.16563 17.1641 1.72656C17.1641 2.28749 16.7094 2.74219 16.1484 2.74219H6.09375C3.85369 2.74219 2.03125 4.56463 2.03125 6.80469V15.1339C2.03125 17.3733 3.85323 19.1953 6.09268 19.1953H19.9062C22.1463 19.1953 23.9688 17.3729 23.9688 15.1328V10.5625C23.9688 10.0016 24.4234 9.54688 24.9844 9.54688C25.5453 9.54688 26 10.0016 26 10.5625V15.1328C26 18.4929 23.2663 21.2266 19.9062 21.2266ZM18.8906 24.2734C18.8906 23.7125 18.4359 23.2578 17.875 23.2578H8.125C7.56407 23.2578 7.10938 23.7125 7.10938 24.2734C7.10938 24.8344 7.56407 25.2891 8.125 25.2891H17.875C18.4359 25.2891 18.8906 24.8344 18.8906 24.2734ZM26 6.5V3.81758C26 2.10453 24.6064 0.710938 22.8934 0.710938H20.2109C19.65 0.710938 19.1953 1.16563 19.1953 1.72656C19.1953 2.28749 19.65 2.74219 20.2109 2.74219H22.8934C23.4863 2.74219 23.9688 3.22461 23.9688 3.81758V6.5C23.9688 7.06093 24.4234 7.51562 24.9844 7.51562C25.5453 7.51562 26 7.06093 26 6.5ZM22.4684 5.88062C22.8558 5.47498 22.841 4.83209 22.4353 4.44473C22.0297 4.05737 21.3868 4.07215 20.9994 4.47779C18.5345 7.05895 15.2608 8.48047 11.7812 8.48047H11.181C10.62 8.48047 10.1653 8.93516 10.1653 9.49609C10.1653 10.057 10.62 10.5117 11.181 10.5117H11.7812C15.8211 10.5117 19.6165 8.86702 22.4684 5.88062Z" fill="#8289AD"/>
</g>
<defs>
<clipPath id="clip0_8517_708">
<rect width="26" height="26" fill="white"/>
</clipPath>
</defs>
</svg>
