<svg width="20" height="20" viewBox="0 0 20 20" fill="none" xmlns="http://www.w3.org/2000/svg">
<path fill-rule="evenodd" clip-rule="evenodd" d="M10.0001 1.25C14.8317 1.25 18.7501 5.16838 18.7501 10.0001C18.7501 14.8317 14.8317 18.7501 10.0001 18.7501C5.16838 18.7501 1.25 14.8317 1.25 10.0001C1.25 5.16838 5.16838 1.25 10.0001 1.25ZM9.06263 10.753V6.24946C9.06263 5.73317 9.48377 5.31204 10.0001 5.31204C10.5163 5.31204 10.9375 5.73708 10.9375 6.24946V10.753C10.9375 11.2654 10.5163 11.6904 10.0001 11.6904C9.48376 11.6904 9.06263 11.2693 9.06263 10.753ZM9.996 12.6959C10.5827 12.6959 11.0585 13.1717 11.0585 13.7583C11.0585 14.345 10.5827 14.8209 9.996 14.8209C9.40936 14.8209 8.93353 14.345 8.93353 13.7583C8.93353 13.1717 9.40936 12.6959 9.996 12.6959Z" fill="white"/>
</svg>
