<svg width="18" height="18" viewBox="0 0 18 18" fill="none" xmlns="http://www.w3.org/2000/svg">
<g id="checked (1) 1" clip-path="url(#clip0_1945_3311)">
<g id="Group">
<g id="Group_2">
<path id="Vector" d="M8.99609 0.00195312C4.03369 0.00195312 -0.00390625 4.03955 -0.00390625 9.00195C-0.00390625 13.9644 4.03369 18.002 8.99609 18.002C13.9585 18.002 17.9961 13.9644 17.9961 9.00195C17.9961 4.03955 13.9585 0.00195312 8.99609 0.00195312ZM14.0262 6.63353L8.27429 12.3403C7.93594 12.6786 7.39459 12.7012 7.03369 12.3629L3.98857 9.58842C3.62767 9.25007 3.60512 8.68616 3.92091 8.32526C4.25925 7.96436 4.82316 7.9418 5.18406 8.28015L7.5976 10.4907L12.7405 5.34782C13.1014 4.98692 13.6653 4.98692 14.0262 5.34782C14.3871 5.70872 14.3871 6.27263 14.0262 6.63353Z" fill="white"/>
</g>
</g>
</g>
<defs>
<clipPath id="clip0_1945_3311">
<rect width="18" height="18" fill="white"/>
</clipPath>
</defs>
</svg>
