<svg width="26" height="26" viewBox="0 0 26 26" fill="none" xmlns="http://www.w3.org/2000/svg">
<g id="score 1">
<path id="Vector" d="M14.6758 26H7.21094C3.85084 26 1.11719 23.2663 1.11719 19.9062V6.09375C1.11719 2.73366 3.85084 0 7.21094 0H16.5547C19.9148 0 22.6484 2.73366 22.6484 6.09375V13.5586C22.6484 14.1195 22.1937 14.5742 21.6328 14.5742C21.0719 14.5742 20.6172 14.1195 20.6172 13.5586V6.09375C20.6172 3.85369 18.7947 2.03125 16.5547 2.03125H7.21094C4.97087 2.03125 3.14844 3.85369 3.14844 6.09375V19.9062C3.14844 22.1463 4.97087 23.9688 7.21094 23.9688H14.6758C15.2367 23.9688 15.6914 24.4234 15.6914 24.9844C15.6914 25.5453 15.2367 26 14.6758 26ZM23.7971 24.9142C25.2424 23.4689 25.2424 21.1171 23.7971 19.6717L20.2368 16.1115C19.2079 15.0826 17.9098 14.388 16.4828 14.1027L13.6053 13.5275C13.2724 13.461 12.9282 13.5652 12.6881 13.8053C12.448 14.0454 12.3438 14.3895 12.4103 14.7225L12.9855 17.6C13.2707 19.027 13.9654 20.3251 14.9943 21.354L18.5545 24.9142C19.2772 25.6369 20.2265 25.9983 21.1758 25.9983C22.1251 25.9983 23.0743 25.6369 23.7971 24.9142ZM16.0846 16.0945C17.117 16.3008 18.0561 16.8034 18.8005 17.5478L22.3607 21.108C22.6772 21.4245 22.8516 21.8453 22.8516 22.2929C22.8516 22.7405 22.6772 23.1614 22.3607 23.4778C22.0442 23.7943 21.6234 23.9688 21.1758 23.9688C20.7281 23.9688 20.3073 23.7944 19.9909 23.4779L16.4306 19.9177C15.6862 19.1733 15.1837 18.2342 14.9774 17.2018L14.7007 15.8179L16.0846 16.0945ZM18.5352 9.34375C18.5352 8.78282 18.0805 8.32812 17.5195 8.32812H15.793C14.9529 8.32812 14.2695 7.64471 14.2695 6.80469V5.07812C14.2695 4.5172 13.8148 4.0625 13.2539 4.0625C12.693 4.0625 12.2383 4.5172 12.2383 5.07812V6.80469C12.2383 8.76474 13.8329 10.3594 15.793 10.3594H17.5195C18.0805 10.3594 18.5352 9.90468 18.5352 9.34375ZM10.2578 13.3047H7.61719C7.05626 13.3047 6.60156 12.85 6.60156 12.2891C6.60156 11.7281 7.05626 11.2734 7.61719 11.2734H10.2578C10.8187 11.2734 11.2734 11.7281 11.2734 12.2891C11.2734 12.85 10.8187 13.3047 10.2578 13.3047ZM10.7656 16.3516C10.7656 15.7906 10.3109 15.3359 9.75 15.3359H7.61719C7.05626 15.3359 6.60156 15.7906 6.60156 16.3516C6.60156 16.9125 7.05626 17.3672 7.61719 17.3672H9.75C10.3109 17.3672 10.7656 16.9125 10.7656 16.3516ZM11.9844 20.4141C11.9844 19.8531 11.5297 19.3984 10.9687 19.3984H7.61719C7.05626 19.3984 6.60156 19.8531 6.60156 20.4141C6.60156 20.975 7.05626 21.4297 7.61719 21.4297H10.9687C11.5297 21.4297 11.9844 20.975 11.9844 20.4141Z" fill="#8289AD"/>
</g>
</svg>
