<svg width="279" height="141" viewBox="0 0 279 141" fill="none" xmlns="http://www.w3.org/2000/svg">
<rect width="141" height="141" fill="#311A6B"/>
<path opacity="0.1" d="M162 0H279V7.33333H162V0ZM259.5 14.6667H162V22H259.5V14.6667Z" fill="white"/>
<path opacity="0.1" d="M162 50H279V57.3333H162V50ZM259.5 64.6667H162V72H259.5V64.6667Z" fill="white"/>
<path opacity="0.1" d="M83.8571 60.6316C83.8571 67.6077 78.1008 73.2632 71 73.2632C63.8992 73.2632 58.1429 67.6077 58.1429 60.6316C58.1429 53.6554 63.8992 48 71 48C78.1008 48 83.8571 53.6554 83.8571 60.6316ZM71 78.3158C61.0589 78.3158 53 86.2333 53 96H89C89 86.2333 80.9411 78.3158 71 78.3158Z" fill="white"/>
</svg>
