<svg width="17" height="16" viewBox="0 0 17 16" fill="none" xmlns="http://www.w3.org/2000/svg">
<g id="folder-2 1">
<g id="Upload">
<g id="Group">
<path id="Vector" d="M8.8904 12.8926H1.99219C0.893695 12.8926 0 12.0515 0 11.0176V3.51758C0 2.4837 0.893695 1.64258 1.99219 1.64258H5.16083C5.69291 1.64258 6.19321 1.83761 6.5695 2.19173L7.31412 2.89258H11.0234C12.1219 2.89258 13.0156 3.7337 13.0156 4.76758V6.01758C13.0156 6.36277 12.7183 6.64258 12.3516 6.64258C11.9848 6.64258 11.6875 6.36277 11.6875 6.01758V4.76758C11.6875 4.42295 11.3896 4.14258 11.0234 4.14258H7.03906C6.86292 4.14258 6.69402 4.07673 6.56947 3.95952L5.63035 3.07564C5.50495 2.95761 5.33817 2.89258 5.16079 2.89258H1.99219C1.62602 2.89258 1.32812 3.17295 1.32812 3.51758V11.0176C1.32812 11.3622 1.62602 11.6426 1.99219 11.6426H8.8904C9.25716 11.6426 9.55446 11.9224 9.55446 12.2676C9.55446 12.6128 9.25716 12.8926 8.8904 12.8926Z" fill="white"/>
</g>
<g id="Group_2">
<path id="Vector_2" d="M9.96097 10.6842C10.2544 10.8914 10.6706 10.8354 10.8907 10.5592L11.6875 9.55923V13.3092C11.6875 13.6544 11.9848 13.9342 12.3516 13.9342C12.7184 13.9342 13.0157 13.6544 13.0157 13.3092V9.55923L13.8125 10.5592C14.0315 10.834 14.4474 10.8923 14.7422 10.6842C15.0356 10.4771 15.0951 10.0854 14.875 9.80923L13.9454 8.64258C13.5655 8.16595 12.9846 7.89258 12.3516 7.89258C11.7186 7.89258 11.1377 8.16595 10.7578 8.64258L9.82816 9.80923C9.60813 10.0854 9.66756 10.4771 9.96097 10.6842Z" fill="white"/>
</g>
</g>
</g>
</svg>
