<svg width="20" height="20" viewBox="0 0 20 20" fill="none" xmlns="http://www.w3.org/2000/svg">
<g id="user 1" clip-path="url(#clip0_1510_3786)">
<path id="Vector" d="M10 20C7.32891 20 4.8177 18.9598 2.92891 17.0711C1.0402 15.1823 0 12.6711 0 10C0 7.32891 1.0402 4.8177 2.92891 2.92891C4.8177 1.0402 7.32891 0 10 0C12.6711 0 15.1823 1.0402 17.0711 2.92891C18.9598 4.8177 20 7.32891 20 10C20 12.6711 18.9598 15.1823 17.0711 17.0711C15.1823 18.9598 12.6711 20 10 20ZM10 1.5625C5.34754 1.5625 1.5625 5.34754 1.5625 10C1.5625 14.6525 5.34754 18.4375 10 18.4375C14.6525 18.4375 18.4375 14.6525 18.4375 10C18.4375 5.34754 14.6525 1.5625 10 1.5625ZM9.96094 10.7422C7.89316 10.7422 6.21094 9.05996 6.21094 6.99219C6.21094 4.92441 7.89316 3.24219 9.96094 3.24219C12.0287 3.24219 13.7109 4.92441 13.7109 6.99219C13.7109 9.05996 12.0287 10.7422 9.96094 10.7422ZM9.96094 4.80469C8.75473 4.80469 7.77344 5.78602 7.77344 6.99219C7.77344 8.19836 8.75473 9.17969 9.96094 9.17969C11.1671 9.17969 12.1484 8.19836 12.1484 6.99219C12.1484 5.78602 11.1671 4.80469 9.96094 4.80469ZM14.9106 15.2919C15.2445 15.0185 15.2934 14.5262 15.02 14.1924C13.9153 12.8438 12.283 12.0703 10.5416 12.0703H9.61465C7.87328 12.0703 6.24098 12.8438 5.13629 14.1925C4.86289 14.5262 4.91184 15.0185 5.24566 15.2919C5.57945 15.5654 6.07168 15.5163 6.34512 15.1826C7.15176 14.1977 8.34348 13.6328 9.61465 13.6328H10.5416C11.8128 13.6328 13.0045 14.1977 13.8112 15.1825C13.9657 15.3711 14.1899 15.4688 14.416 15.4688C14.5902 15.4688 14.7654 15.4108 14.9106 15.2919Z" fill="#0A0B20"/>
</g>
<defs>
<clipPath id="clip0_1510_3786">
<rect width="20" height="20" fill="white"/>
</clipPath>
</defs>
</svg>
