<svg width="43" height="43" viewBox="0 0 43 43" fill="none" xmlns="http://www.w3.org/2000/svg">
<g id="people 1">
<g id="Group">
<path id="Vector" d="M4.90764 40.119C4.8683 40.119 4.8683 40.119 4.82897 40.119C4.31764 40.076 3.96365 39.603 4.00298 39.087C4.51431 30.874 11.5942 24.467 20.0901 24.467C28.586 24.467 35.666 30.874 36.1773 39.044C36.2166 39.603 35.8233 40.033 35.3513 40.076C34.84 40.119 34.4466 39.689 34.4073 39.173C33.9353 31.992 27.642 26.402 20.0901 26.402C12.4989 26.402 6.20562 32.035 5.77296 39.216C5.73363 39.732 5.3403 40.119 4.90764 40.119Z" fill="#8289AD"/>
<path id="Vector_2" d="M19.804 21.489C14.386 21.489 10 17.103 10 11.685C10 6.26698 14.386 1.88098 19.804 1.88098C25.222 1.88098 29.608 6.26698 29.608 11.685C29.608 17.103 25.222 21.489 19.804 21.489ZM19.804 3.85898C15.504 3.85898 11.978 7.38498 11.978 11.685C11.978 15.985 15.504 19.511 19.804 19.511C24.104 19.511 27.63 15.985 27.63 11.685C27.63 7.38498 24.104 3.85898 19.804 3.85898Z" fill="#8289AD"/>
</g>
</g>
</svg>
