<svg width="28" height="28" viewBox="0 0 28 28" fill="none" xmlns="http://www.w3.org/2000/svg">
<g id="verified 2">
<g id="Group">
<path id="Vector" d="M23.1464 6.06261C23.536 6.11057 23.8332 6.4303 23.8332 6.82279V11.118C23.8332 17.5033 19.9367 23.2275 14.0025 25.5762C8.06837 23.2275 4.17188 17.5033 4.17188 11.118V6.80058C4.17188 6.41759 4.45659 6.10112 4.83556 6.04581C8.01432 5.58193 10.9382 4.45949 13.5636 2.5693C13.8285 2.37858 14.1813 2.37495 14.4494 2.56102C17.218 4.48196 20.1098 5.68878 23.1464 6.06261Z" fill="#0B00FF"/>
<g id="Group_2">
<path id="Vector_2" d="M12.952 17.1109C12.6617 17.1109 12.3832 16.9919 12.1779 16.7802L10.434 14.9821C10.0064 14.5411 10.0064 13.8267 10.434 13.3857C10.8617 12.9448 11.5546 12.9448 11.9822 13.3857L12.952 14.3857L16.0222 11.2194C16.4498 10.7784 17.1427 10.7784 17.5704 11.2194C17.998 11.6604 17.998 12.3748 17.5704 12.8158L13.7261 16.7802C13.5208 16.9919 13.2423 17.1109 12.952 17.1109Z" fill="white"/>
</g>
</g>
</g>
</svg>
