<svg width="15" height="15" viewBox="0 0 15 15" fill="none" xmlns="http://www.w3.org/2000/svg">
<g id="video-camera 1">
<g id="Group">
<g id="Group_2">
<path id="Vector" d="M8.48468 3.09351H1.64114C0.738512 3.09351 0 3.83202 0 4.73464V10.2653C0 11.1679 0.738512 11.9064 1.64114 11.9064H8.48468C9.38731 11.9064 10.1258 11.1679 10.1258 10.2653V4.73464C10.1258 3.81561 9.38731 3.09351 8.48468 3.09351Z" fill="white"/>
</g>
</g>
<g id="Group_3">
<g id="Group_4">
<path id="Vector_2" d="M13.7845 3.99714C13.686 4.01355 13.5875 4.06278 13.5055 4.11202L10.9453 5.58904V9.39648L13.5219 10.8735C13.9978 11.1525 14.5886 10.9884 14.8676 10.5125C14.9497 10.3648 14.9989 10.2006 14.9989 10.0201V4.949C14.9989 4.34178 14.4245 3.84943 13.7845 3.99714Z" fill="white"/>
</g>
</g>
</g>
</svg>
