<svg width="26" height="26" viewBox="0 0 26 26" fill="none" xmlns="http://www.w3.org/2000/svg">
<g id="daily-health-app 1">
<path id="Vector" d="M13.0007 24.9297C11.559 24.9298 10.1177 24.4632 8.91386 23.5295C8.91254 23.5284 8.91116 23.5274 8.90979 23.5263C6.28215 21.4844 4.19746 19.2872 2.71352 16.9959C0.913003 14.2157 0 11.2974 0 8.32227C0 4.32255 3.14374 1.06851 7.00787 1.06851C9.31965 1.05287 11.6362 2.23248 12.9796 4.12826C17.0491 -1.46204 25.9295 1.05419 26 8.34202C25.865 15.2743 21.0804 20.4256 17.0904 23.5263C15.8866 24.4619 14.4435 24.9296 13.0007 24.9297ZM10.1541 21.9208C10.1542 21.9209 10.1544 21.921 10.1545 21.9211C11.8298 23.2232 14.1694 23.2238 15.844 21.9225C19.4827 19.0947 23.8449 14.4387 23.9689 8.31262C23.964 5.43726 21.7334 3.09978 18.9923 3.09978C16.144 3.09978 14.0157 5.24459 14.0157 7.16231C14.0157 7.72325 13.561 8.17794 13.0001 8.17794C12.4392 8.17794 11.9845 7.72325 11.9845 7.16231C11.9542 4.94234 9.21656 3.00675 7.00787 3.09983C4.26378 3.09978 2.03127 5.44259 2.03127 8.32227C2.03127 14.3432 6.448 19.0402 10.1541 21.9208Z" fill="#8289AD"/>
<path id="Vector_2" d="M15.0312 19.043C14.6466 19.043 14.2949 18.8256 14.1228 18.4815L10.9688 12.1733L9.84593 14.419C9.67383 14.7631 9.32217 14.9805 8.9375 14.9805H6.90625C6.34532 14.9805 5.89062 14.5258 5.89062 13.9648C5.89062 13.4039 6.34532 12.9492 6.90625 12.9492H8.30979L10.0603 9.44816C10.2324 9.10406 10.5841 8.88672 10.9688 8.88672C11.3534 8.88672 11.7051 9.10406 11.8772 9.44816L15.0312 15.7564L16.1541 13.5107C16.3262 13.1666 16.6778 12.9492 17.0625 12.9492H19.0938C19.6547 12.9492 20.1094 13.4039 20.1094 13.9648C20.1094 14.5258 19.6547 14.9805 19.0938 14.9805H17.6902L15.9397 18.4815C15.7676 18.8256 15.4159 19.043 15.0312 19.043Z" fill="#8289AD"/>
</g>
</svg>
