<svg width="16" height="16" viewBox="0 0 16 16" fill="none" xmlns="http://www.w3.org/2000/svg">
<g id="web 1">
<g clip-path="url(#clip0_1950_4535)">
<path id="Vector" d="M10.6926 5C10.1651 2.55 9.04014 1 7.99964 1C6.95914 1 5.83414 2.55 5.30664 5H10.6926Z" fill="white"/>
<path id="Vector_2" d="M5 8C4.99988 8.6689 5.04448 9.33705 5.1335 10H10.8665C10.9555 9.33705 11.0001 8.6689 11 8C11.0001 7.3311 10.9555 6.66295 10.8665 6H5.1335C5.04448 6.66295 4.99988 7.3311 5 8Z" fill="white"/>
<path id="Vector_3" d="M5.30664 11C5.83414 13.45 6.95914 15 7.99964 15C9.04014 15 10.1651 13.45 10.6926 11H5.30664Z" fill="white"/>
<path id="Vector_4" d="M11.7171 5.0005H14.8671C14.3938 3.92338 13.6746 2.97217 12.7673 2.22317C11.86 1.47416 10.7898 0.948213 9.64258 0.6875C10.5911 1.522 11.3351 3.065 11.7171 5.0005Z" fill="white"/>
<path id="Vector_5" d="M15.2275 6H11.8775C11.9599 6.66347 12.0012 7.33142 12.001 8C12.001 8.66859 11.9596 9.33654 11.877 10H15.227C15.5916 8.6916 15.5921 7.3084 15.2275 6Z" fill="white"/>
<path id="Vector_6" d="M9.64258 15.313C10.79 15.0524 11.8604 14.5265 12.7679 13.7775C13.6754 13.0285 14.3947 12.0772 14.8681 11H11.7181C11.3351 12.9355 10.5911 14.4785 9.64258 15.313Z" fill="white"/>
<path id="Vector_7" d="M4.28281 11H1.13281C1.60621 12.0772 2.3255 13.0285 3.23298 13.7775C4.14046 14.5265 5.21086 15.0524 6.35831 15.313C5.40881 14.4785 4.66481 12.9355 4.28281 11Z" fill="white"/>
<path id="Vector_8" d="M6.35636 0.6875C5.20891 0.948071 4.13851 1.47396 3.23103 2.22297C2.32355 2.97198 1.60425 3.92326 1.13086 5.0005H4.28086C4.66386 3.065 5.40786 1.522 6.35636 0.6875Z" fill="white"/>
<path id="Vector_9" d="M3.99948 8C3.99941 7.33141 4.04082 6.66346 4.12348 6H0.773476C0.408841 7.3084 0.408841 8.6916 0.773476 10H4.12348C4.04082 9.33654 3.99941 8.66859 3.99948 8Z" fill="white"/>
</g>
</g>
<defs>
<clipPath id="clip0_1950_4535">
<rect width="16" height="16" rx="8" fill="white"/>
</clipPath>
</defs>
</svg>
